SplineFontDB: 1.0
FontName: URWPalladioL-Roma
FullName: URW Palladio L Roman
FamilyName: URW Palladio L
Weight: Regular
Copyright: Copyright (URW)++,Copyright 1999 by (URW)++ Design & Development; Cyrillic glyphs added by Valek Filippov (C) 2001-2004
Version: 1.06
ItalicAngle: 0
UnderlinePosition: -100
UnderlineWidth: 50
Ascent: 800
Descent: 200
NeedsXUIDChange: 1
UniqueID: 4062016
FSType: 0
OS2WinAscent: 0
OS2WinAOffset: 1
OS2WinDescent: 0
OS2WinDOffset: 1
HheadAscent: 0
HheadAOffset: 1
HheadDescent: 0
HheadDOffset: 1
ScriptLang: 2
 1 latn 1 dflt 
 1 DFLT 1 dflt 
Encoding: adobestandard
UnicodeInterp: none
DisplaySize: -36
AntiAlias: 1
FitToEm: 1
WinInfo: 30 30 14
BeginPrivate: 7
BlueValues 15 [-20 0 692 712]
BlueScale 8 0.039625
StdHW 4 [35]
StdVW 4 [84]
StemSnapH 203 [35 43 48 53 58 61 65] 
systemdict /internaldict known
{1183615869 systemdict /internaldict get exec
/StemSnapLength 2 copy known { get 7 lt } { pop pop true } ifelse }
{ true } ifelse { pop [35 43] } if
StemSnapV 195 [84 88 94 108] 
systemdict /internaldict known
{1183615869 systemdict /internaldict get exec
/StemSnapLength 2 copy known { get 4 lt } { pop pop true } ifelse }
{ true } ifelse { pop [84 94] } if
ForceBold 5 false
EndPrivate
BeginChars: 767 660
StartChar: exclam
Encoding: 33 33 2
Width: 278
Flags: W
HStem: -5 116<128 146> 674 20G<160 194>
Fore
138 111 m 0
 169 111 197 83 197 53 c 0
 197 22 169 -5 137 -5 c 0
 108 -5 81 23 81 53 c 0
 81 83 108 111 138 111 c 0
160 694 m 1
 194 694 l 1
 194 669 l 2
 194 647 192 615 187 574 c 0
 184 547 183 542 182 526 c 1
 158 248 l 1
 158 223 l 1
 130 200 l 1
 120 205 l 1
 120 215 l 1
 120 222 l 1
 118 245 l 1
 92 550 l 1
 90 579 88 603 85 656 c 1
 160 694 l 1
EndSplineSet
EndChar
StartChar: quotedbl
Encoding: 34 34 3
Width: 371
Flags: W
HStem: 689 20G<84.5 105.5 265 286.5>
VStem: 52 86<665 678> 233 86<665 678>
Fore
105 469 m 1
 85 469 l 1
 52 665 l 1
 52 670 l 2
 52 689 74 709 95 709 c 0
 116 709 138 689 138 671 c 0
 138 669 138 667 137 665 c 1
 105 469 l 1
286 469 m 1
 266 469 l 1
 233 665 l 1
 233 670 l 2
 233 690 254 709 276 709 c 0
 297 709 319 689 319 670 c 0
 319 669 319 667 318 665 c 1
 286 469 l 1
EndSplineSet
EndChar
StartChar: numbersign
Encoding: 35 35 4
Width: 500
Flags: W
HStem: 0 21G<78 136 272 330> 224 56<4 111 178 303 370 470> 419 56<31 141 207 332 398 495> 419 265<180 332 370 495>
DStem: 111 224 169 224 78 0 136 0 141 419 199 419 120 280 178 280 180 684 238 684 149 475 207 475 303 224 361 224 272 0 330 0 332 419 390 419 312 280 370 280 370 684 428 684 340 475 398 475
Fore
470 280 m 1xd0
 470 224 l 1
 361 224 l 1
 330 0 l 1
 272 0 l 1
 303 224 l 1
 169 224 l 1
 136 0 l 1
 78 0 l 1
 111 224 l 1
 4 224 l 1
 4 280 l 1
 120 280 l 1
 141 419 l 1
 31 419 l 1
 31 475 l 1
 149 475 l 1xe0
 180 684 l 1
 238 684 l 1xd0
 207 475 l 1
 340 475 l 1xe0
 370 684 l 1
 428 684 l 1xd0
 398 475 l 1
 495 475 l 1
 495 419 l 1xe0
 390 419 l 1
 370 280 l 1
 470 280 l 1xd0
332 419 m 1
 199 419 l 1xd0
 178 280 l 1
 312 280 l 1
 332 419 l 1
EndSplineSet
EndChar
StartChar: dollar
Encoding: 36 36 5
Width: 500
Flags: W
VStem: 30 75<458 494> 223 37<18 292 379 633> 381 32<500 542> 392 79<173 207>
Fore
223 18 m 1xd0
 223 297 l 1
 144 306 109 316 80 338 c 0
 46 363 30 402 30 458 c 0
 30 532 61 592 118 629 c 0
 148 649 172 657 223 666 c 1
 219 731 l 1
 264 731 l 1
 262 712 261 700 260 669 c 1
 340 663 379 653 426 626 c 1
 417 593 413 554 413 500 c 1
 381 500 l 1
 381 542 l 2xe0
 381 579 377 591 358 604 c 0
 333 620 306 629 260 633 c 1
 260 373 l 1
 347 364 385 353 417 330 c 0
 453 304 471 264 471 207 c 0
 471 132 437 68 374 27 c 0
 341 5 315 -5 260 -16 c 1
 264 -116 l 1
 219 -116 l 1
 221 -95 221 -82 223 -18 c 1
 161 -17 95 -2 30 24 c 1
 36 63 39 93 42 172 c 1
 74 172 l 1
 74 108 l 2
 74 84 76 79 88 67 c 0
 116 40 158 25 223 18 c 1xd0
260 292 m 1
 260 18 l 1
 340 32 392 92 392 173 c 0xd0
 392 246 358 277 260 292 c 1
223 379 m 1
 223 630 l 1
 187 626 171 620 151 604 c 0
 121 580 105 541 105 494 c 0
 105 421 137 390 223 379 c 1
EndSplineSet
EndChar
StartChar: percent
Encoding: 37 37 6
Width: 840
Flags: W
HStem: 0 23<630 653> 298 23<638 652> 368 23<182 206> 666 23<191 212>
VStem: 39 72<507 541> 283 72<520 541> 486 72<139 173> 730 72<152 173>
DStem: 576 709 616 709 210 -20 250 -20
Fore
203 689 m 0
 290 689 355 623 355 535 c 0
 355 439 286 368 193 368 c 0
 104 368 39 433 39 522 c 0
 39 619 108 689 203 689 c 0
200 666 m 0
 145 666 111 612 111 526 c 0
 111 440 141 391 194 391 c 0
 248 391 283 447 283 533 c 0
 283 615 251 666 200 666 c 0
650 321 m 0
 737 321 802 255 802 167 c 0
 802 71 733 0 640 0 c 0
 551 0 486 65 486 154 c 0
 486 251 555 321 650 321 c 0
647 298 m 0
 592 298 558 244 558 158 c 0
 558 72 588 23 641 23 c 0
 695 23 730 79 730 165 c 0
 730 247 698 298 647 298 c 0
250 -20 m 1
 210 -20 l 1
 576 709 l 1
 616 709 l 1
 250 -20 l 1
EndSplineSet
EndChar
StartChar: ampersand
Encoding: 38 38 7
Width: 778
Flags: W
HStem: -20 56<249 296> 636 53<299 326>
VStem: 43 87<172 209> 168 70<520 557> 357 67<569 599> 532 63<254 295>
Fore
418 344 m 1
 451 389 l 1
 501 387 522 387 548 387 c 2
 742 394 l 1
 733 365 730 347 730 322 c 1
 691 328 661 331 590 334 c 1
 594 319 595 310 595 295 c 0
 595 232 573 184 514 118 c 1
 599 69 637 55 686 55 c 0
 703 55 717 60 747 74 c 1
 753 49 l 1
 666 -14 l 2
 660 -18 650 -20 632 -20 c 0
 584 -20 509 12 451 57 c 1
 380 2 322 -20 249 -20 c 0
 130 -20 43 60 43 172 c 0
 43 222 61 268 96 309 c 0
 122 338 144 356 198 387 c 1
 177 440 168 479 168 520 c 0
 168 561 177 593 192 606 c 2
 260 666 l 2
 278 682 299 689 326 689 c 0
 388 689 424 656 424 599 c 0
 424 553 404 510 360 463 c 0
 340 443 322 428 280 397 c 1
 336 306 395 232 484 141 c 1
 520 189 532 218 532 254 c 0
 532 295 520 330 505 334 c 0
 493 337 477 339 418 344 c 1
213 352 m 1
 152 304 130 267 130 209 c 0
 130 116 207 36 296 36 c 0
 336 36 373 50 420 82 c 1
 307 208 258 271 213 352 c 1
264 431 m 1
 269 435 269 435 275 439 c 0
 325 478 357 528 357 569 c 0
 357 607 332 636 299 636 c 0
 259 636 238 608 238 557 c 0
 238 522 245 487 264 431 c 1
EndSplineSet
EndChar
StartChar: quoteright
Encoding: 39 8217 8
Width: 278
Flags: W
Fore
104 470 m 1
 60 446 l 1
 45 456 l 1
 93 533 117 599 123 679 c 1
 174 694 184 697 220 709 c 1
 233 696 l 1
 199 610 161 543 104 470 c 1
EndSplineSet
KernsSLIF: 65 -127 1 0 225 -131 1 0 257 -127 1 0 256 -127 1 0 262 -127 1 0 44 -78 1 0 100 -61 1 0 111 -43 1 0 46 -63 1 0 114 -31 1 0 115 -25 1 0 116 -32 1 0 118 -21 1 0 119 -20 1 0 121 -23 1 0
EndChar
StartChar: parenleft
Encoding: 40 40 9
Width: 333
Flags: W
VStem: 60 86<266 298>
Fore
301 -194 m 1
 282 -215 l 1
 200 -138 168 -99 133 -32 c 0
 85 58 60 159 60 266 c 0
 60 342 73 413 99 480 c 0
 137 578 178 633 282 726 c 1
 301 700 l 1
 228 615 201 568 175 485 c 0
 156 420 146 349 146 266 c 0
 146 181 156 105 177 33 c 0
 203 -57 229 -105 301 -194 c 1
EndSplineSet
EndChar
StartChar: parenright
Encoding: 41 41 10
Width: 333
Flags: W
VStem: 187 86<232 298>
Fore
51 -215 m 1
 32 -194 l 1
 104 -105 130 -57 156 33 c 0
 177 105 187 181 187 266 c 0
 187 349 177 420 157 485 c 0
 132 567 105 614 32 700 c 1
 51 726 l 1
 155 632 196 577 234 480 c 0
 260 413 273 342 273 265 c 0
 273 145 241 29 180 -68 c 0
 149 -117 120 -150 51 -215 c 1
EndSplineSet
EndChar
StartChar: asterisk
Encoding: 42 42 11
Width: 389
Flags: W
DStem: 353 554 353 554 214 530 359 550
Fore
168 514 m 1
 37 578 l 1
 34 588 l 1
 78 640 l 1
 88 640 l 1
 183 542 l 1
 209 685 l 1
 218 689 l 1
 280 670 l 1
 283 655 l 1
 214 530 l 1
 353 554 l 1
 359 550 l 1
 359 488 l 1
 350 480 l 1
 212 500 l 1
 280 378 l 1
 280 368 l 1
 212 342 l 1
 202 346 l 1
 184 488 l 1
 78 400 l 1
 68 400 l 1
 32 451 l 1
 37 460 l 1
 168 514 l 1
EndSplineSet
EndChar
StartChar: plus
Encoding: 43 43 12
Width: 606
Flags: W
HStem: 233 56<51 275 331 555>
VStem: 275 56<7 233 289 512>
Fore
275 289 m 1
 275 512 l 1
 331 512 l 1
 331 289 l 1
 555 289 l 1
 555 233 l 1
 331 233 l 1
 331 7 l 1
 275 7 l 1
 275 233 l 1
 51 233 l 1
 51 289 l 1
 275 289 l 1
EndSplineSet
EndChar
StartChar: comma
Encoding: 44 44 13
Width: 250
Flags: W
Fore
204 123 m 1
 218 109 l 1
 190 32 152 -31 71 -136 c 1
 30 -155 l 1
 16 -144 l 1
 74 -48 99 17 106 93 c 1
 159 108 177 114 204 123 c 1
EndSplineSet
KernsSLIF: 49 -49 1 0 186 -25 1 0 39 -22 1 0
EndChar
StartChar: hyphen
Encoding: 45 45 14
Width: 333
Flags: W
HStem: 215 72<43 282>
Fore
282 215 m 1
 22 215 l 1
 17 220 l 1
 44 287 l 1
 307 287 l 1
 312 282 l 1
 282 215 l 1
EndSplineSet
KernsSLIF: 65 -41 1 0 225 -35 1 0 257 -41 1 0 256 -41 1 0 262 -41 1 0 84 -79 1 0 86 -67 1 0 87 -34 1 0 89 -97 1 0
EndChar
StartChar: period
Encoding: 46 46 15
Width: 250
Flags: W
HStem: -5 21G<108.5 139>
Fore
124 111 m 0
 155 111 183 83 183 53 c 0
 183 22 155 -5 123 -5 c 0
 94 -5 67 23 67 53 c 0
 67 83 94 111 124 111 c 0
EndSplineSet
KernsSLIF: 49 -61 1 0 186 -46 1 0 39 -43 1 0
EndChar
StartChar: slash
Encoding: 47 47 16
Width: 606
Flags: W
DStem: 459 726 519 726 87 -119 147 -119
Fore
519 726 m 1
 147 -119 l 1
 87 -119 l 1
 459 726 l 1
 519 726 l 1
EndSplineSet
EndChar
StartChar: zero
Encoding: 48 48 17
Width: 500
Flags: W
HStem: -20 35<236 253> 654 35<239 263>
VStem: 29 84<299 369> 381 84<316 368>
Fore
263 689 m 0
 400 689 465 585 465 366 c 0
 465 110 389 -20 238 -20 c 0
 176 -20 120 8 85 57 c 0
 50 106 29 207 29 324 c 0
 29 566 108 689 263 689 c 0
245 654 m 0
 150 654 113 571 113 360 c 0
 113 116 154 15 251 15 c 0
 343 15 381 103 381 316 c 0
 381 556 342 654 245 654 c 0
EndSplineSet
KernsSLIF: 52 -3 1 0 49 -40 1 0 55 -18 1 0
EndChar
StartChar: one
Encoding: 49 49 18
Width: 500
Flags: W
HStem: 0 21G<255.5 267.5>
VStem: 217 84<96 600>
Fore
67 555 m 1
 60 598 l 1
 151 630 222 660 287 694 c 1
 301 689 l 1
 301 96 l 2
 301 44 311 33 366 30 c 2
 418 27 l 1
 418 -3 l 1
 377 -2 342 -2 330 -1 c 0
 296 0 274 0 261 0 c 0
 250 0 250 0 96 -3 c 1
 96 27 l 1
 152 30 l 2
 206 33 217 44 217 96 c 2
 217 581 l 2
 217 605 215 614 209 614 c 0
 208 614 207 614 206 613 c 2
 77 555 l 1
 67 555 l 1
EndSplineSet
KernsSLIF: 44 -63 1 0 56 -60 1 0 53 -44 1 0 52 -79 1 0 57 -50 1 0 49 -67 1 0 46 -54 1 0 55 -48 1 0 54 -70 1 0 51 -42 1 0 50 -27 1 0 48 -61 1 0
EndChar
StartChar: two
Encoding: 50 50 19
Width: 500
Flags: W
HStem: 0 77<122 189.839> 612 77<199 226>
VStem: 341 90<473 503>
DStem: 56 619 81 529 39 483 68 483 186 204 304 270 16 23 122 77
Fore
16 23 m 1
 186 204 l 2
 299 324 341 398 341 473 c 0
 341 558 286 612 200 612 c 0
 133 612 97 587 81 529 c 2
 68 483 l 1
 39 483 l 1
 56 619 l 1
 105 669 154 689 226 689 c 0
 353 689 431 618 431 503 c 0
 431 428 401 373 304 270 c 2
 122 77 l 1
 307 81 353 82 468 87 c 1
 466 65 466 55 466 42 c 0
 466 28 466 18 468 -3 c 1
 275 0 275 0 239 0 c 0
 203 0 203 0 16 -3 c 1
 16 23 l 1
EndSplineSet
KernsSLIF: 52 -39 1 0 49 -42 1 0 55 -23 1 0
EndChar
StartChar: three
Encoding: 51 51 20
Width: 500
Flags: W
HStem: -20 41<184 215> 334 34<206 238> 622 67<207 233>
VStem: 336 82<506 541> 369 93<190 224>
DStem: 72 622 92 554 43 498 74 498
Fore
43 498 m 1xf0
 72 622 l 1
 120 670 165 689 233 689 c 0
 344 689 418 630 418 541 c 0xf0
 418 482 388 436 308 374 c 1
 358 365 381 357 406 339 c 0
 442 314 462 272 462 224 c 0
 462 177 445 133 411 92 c 0
 356 25 264 -20 184 -20 c 0
 147 -20 103 -12 50 6 c 1
 44 56 36 92 15 153 c 1
 42 163 l 1
 61 109 74 86 98 64 c 0
 128 36 169 21 215 21 c 0
 308 21 369 88 369 190 c 0xe8
 369 281 321 334 238 334 c 0
 211 334 192 329 154 312 c 1
 147 318 l 1
 159 371 l 1
 174 370 l 2
 187 369 198 368 206 368 c 0
 277 368 336 431 336 506 c 0
 336 569 283 622 218 622 c 0
 166 622 103 588 92 554 c 2
 74 498 l 1
 43 498 l 1xf0
EndSplineSet
KernsSLIF: 52 1 1 0 49 -52 1 0 55 -33 1 0
EndChar
StartChar: four
Encoding: 52 52 21
Width: 500
Flags: W
HStem: 0 21G<303 327> 181 64<65 280 364 392>
VStem: 280 84<106 181 245 542>
DStem: 285 667 280 597 2 204 65 245 359 694 359 694 285 667 371 689
Fore
280 181 m 1
 13 181 l 1
 2 204 l 1
 285 667 l 1
 359 694 l 1
 371 689 l 1
 366 648 364 562 364 384 c 2
 364 245 l 1
 388 245 l 1
 391 245 l 2
 406 244 425 244 472 248 c 1
 472 177 l 1
 444 180 423 181 364 181 c 1
 364 106 l 2
 364 46 375 33 424 30 c 2
 472 27 l 1
 472 -3 l 1
 339 0 339 0 315 0 c 0
 291 0 291 0 158 -3 c 1
 158 27 l 1
 220 30 l 2
 269 32 280 46 280 106 c 2
 280 181 l 1
280 245 m 1
 280 597 l 1
 65 245 l 1
 280 245 l 1
EndSplineSet
KernsSLIF: 52 6 1 0 49 -40 1 0 55 -21 1 0
EndChar
StartChar: five
Encoding: 53 53 22
Width: 500
Flags: W
HStem: -20 45<173 201> 377 69<218 264> 600 84<258 340.546>
VStem: 374 85<201 253>
Fore
127 605 m 1
 118 396 l 1
 180 433 216 446 264 446 c 0
 378 446 459 366 459 253 c 0
 459 179 427 111 366 57 c 0
 311 9 240 -20 173 -20 c 0
 130 -20 90 -11 62 4 c 1
 48 48 36 80 13 137 c 1
 37 151 l 1
 83 69 l 2
 97 43 147 25 201 25 c 0
 310 25 374 90 374 201 c 0
 374 309 314 377 218 377 c 0
 169 377 142 363 95 316 c 1
 75 322 l 1
 78 366 81 462 81 547 c 0
 81 579 80 623 79 684 c 1
 84 689 l 1
 159 685 203 684 258 684 c 0
 312 684 357 685 432 689 c 1
 437 684 l 1
 435 666 435 658 435 644 c 0
 435 631 435 623 437 605 c 1
 432 600 l 1
 312 600 256 601 127 605 c 1
EndSplineSet
KernsSLIF: 52 -2 1 0 49 -44 1 0 55 -32 1 0
EndChar
StartChar: six
Encoding: 54 54 23
Width: 500
Flags: W
HStem: -20 33<239 258> 349 60<255 293>
VStem: 32 91<217 247> 382 86<184 219>
Fore
416 672 m 1
 416 664 l 1
 236 610 152 512 131 331 c 1
 142 339 143 340 154 349 c 0
 213 396 243 409 293 409 c 0
 399 409 468 334 468 219 c 0
 468 83 371 -20 241 -20 c 0
 112 -20 32 82 32 247 c 0
 32 384 88 506 191 593 c 0
 242 637 283 657 379 689 c 1
 416 672 l 1
255 349 m 0
 207 349 160 325 138 291 c 0
 127 274 123 255 123 220 c 0
 123 86 169 13 254 13 c 0
 331 13 382 80 382 184 c 0
 382 283 331 349 255 349 c 0
EndSplineSet
KernsSLIF: 52 4 1 0 49 -75 1 0 55 -42 1 0
EndChar
StartChar: seven
Encoding: 55 55 24
Width: 500
Flags: W
HStem: 0 21G<107.5 114.5> 603 81<145.849 365>
Fore
56 10 m 1
 300 402 l 2
 338 463 369 521 409 603 c 1
 142 603 l 2
 96 603 89 595 81 533 c 2
 74 477 l 1
 44 477 l 1
 47 568 47 568 47 579 c 0
 47 589 47 589 44 684 c 1
 54 689 l 1
 151 685 200 684 273 684 c 0
 354 684 389 685 497 689 c 1
 497 659 l 1
 314 330 l 2
 248 210 199 106 157 -3 c 1
 118 0 118 0 111 0 c 0
 104 0 104 0 65 -3 c 1
 56 10 l 1
EndSplineSet
KernsSLIF: 58 -74 1 0 44 -135 1 0 56 -29 1 0 53 -19 1 0 52 -86 1 0 49 -23 1 0 46 -121 1 0 55 -1 1 0 54 -66 1 0 51 -23 1 0 50 -16 1 0
EndChar
StartChar: eight
Encoding: 56 56 25
Width: 500
Flags: W
HStem: -20 34<222 249> 655 34<237 261>
VStem: 30 71<155 173> 53 75<508 544> 368 68<532 547> 385 79<164 206>
Fore
168 345 m 1xe4
 80 402 53 440 53 508 c 0
 53 613 140 689 259 689 c 0
 365 689 436 631 436 545 c 0xd8
 436 485 404 443 313 381 c 1
 427 329 464 286 464 206 c 0
 464 82 356 -20 226 -20 c 0
 113 -20 30 56 30 159 c 0
 30 211 50 256 88 294 c 0
 110 315 127 326 168 345 c 1xe4
284 295 m 2
 204 331 l 1
 130 286 101 240 101 167 c 0
 101 74 156 14 241 14 c 0
 322 14 385 80 385 164 c 0xe4
 385 218 347 267 284 295 c 2
223 423 m 2
 278 396 l 1
 343 438 368 477 368 534 c 0
 368 607 320 655 247 655 c 0
 176 655 128 610 128 544 c 0xd8
 128 494 160 454 223 423 c 2
EndSplineSet
KernsSLIF: 52 2 1 0 49 -42 1 0 55 -27 1 0
EndChar
StartChar: nine
Encoding: 57 57 26
Width: 500
Flags: W
HStem: 256 61<199 240> 656 33<227 246>
VStem: 20 86<455 492> 370 87<417 471>
Fore
96 -20 m 1
 62 -3 l 1
 62 5 l 1
 243 49 352 172 360 340 c 1
 290 282 l 2
 272 267 233 256 199 256 c 0
 95 256 20 340 20 455 c 0
 20 589 116 689 244 689 c 0
 376 689 457 586 457 417 c 0
 457 283 406 168 309 85 c 0
 255 39 207 16 96 -20 c 1
240 656 m 0
 158 656 106 593 106 492 c 0
 106 388 160 317 240 317 c 0
 317 317 370 379 370 471 c 0
 370 516 358 565 340 597 c 0
 318 637 285 656 240 656 c 0
EndSplineSet
KernsSLIF: 52 -25 1 0 49 -42 1 0 55 -23 1 0
EndChar
StartChar: colon
Encoding: 58 58 27
Width: 250
Flags: W
HStem: -5 116<113 131> 340 116<113 131>
Fore
123 111 m 0
 154 111 182 83 182 53 c 0
 182 22 154 -5 122 -5 c 0
 93 -5 66 23 66 53 c 0
 66 83 93 111 123 111 c 0
123 456 m 0
 154 456 182 428 182 397 c 0
 182 367 154 340 122 340 c 0
 93 340 66 368 66 398 c 0
 66 428 93 456 123 456 c 0
EndSplineSet
EndChar
StartChar: semicolon
Encoding: 59 59 28
Width: 250
Flags: W
HStem: 340 116<143 152>
Fore
204 125 m 1
 218 111 l 1
 190 34 152 -29 71 -134 c 1
 30 -153 l 1
 16 -142 l 1
 74 -46 99 19 106 95 c 1
 159 110 177 116 204 125 c 1
150 456 m 0
 181 456 209 428 209 397 c 0
 209 367 181 340 149 340 c 0
 120 340 93 368 93 398 c 0
 93 428 120 456 150 456 c 0
EndSplineSet
EndChar
StartChar: less
Encoding: 60 60 29
Width: 606
Flags: W
DStem: 57 232 129 259 558 -2 558 62 558 524 558 460 57 290 129 259
Fore
558 -2 m 1
 57 232 l 1
 57 290 l 1
 558 524 l 1
 558 460 l 1
 129 259 l 1
 558 62 l 1
 558 -2 l 1
EndSplineSet
EndChar
StartChar: equal
Encoding: 61 61 30
Width: 606
Flags: W
HStem: 136 56<51 555> 330 56<51 555>
Fore
555 386 m 1
 555 330 l 1
 51 330 l 1
 51 386 l 1
 555 386 l 1
555 192 m 1
 555 136 l 1
 51 136 l 1
 51 192 l 1
 555 192 l 1
EndSplineSet
EndChar
StartChar: greater
Encoding: 62 62 31
Width: 606
Flags: W
DStem: 48 460 48 524 477 259 549 290 477 259 549 232 48 62 48 -2
Fore
48 -2 m 1
 48 62 l 1
 477 259 l 1
 48 460 l 1
 48 524 l 1
 549 290 l 1
 549 232 l 1
 48 -2 l 1
EndSplineSet
EndChar
StartChar: question
Encoding: 63 63 32
Width: 444
Flags: W
HStem: -5 116<189 204> 628 66<179 213>
VStem: 141 116<53 60> 148 43<241 256> 302 93<519 540>
DStem: 81 659 92 586 43 546 72 538
Fore
43 546 m 1xd8
 81 659 l 1
 134 685 169 694 213 694 c 0
 316 694 395 627 395 540 c 0
 395 483 370 444 285 366 c 0
 204 293 191 276 191 243 c 0
 191 227 197 214 213 195 c 1
 192 181 l 1
 162 200 148 224 148 254 c 0
 148 288 164 315 225 382 c 0
 284 447 302 479 302 519 c 0
 302 583 251 628 179 628 c 0
 134 628 103 613 92 586 c 2
 72 538 l 1
 43 546 l 1xd8
198 111 m 0
 229 111 257 83 257 53 c 0
 257 22 229 -5 197 -5 c 0
 168 -5 141 23 141 53 c 0xe8
 141 83 168 111 198 111 c 0
EndSplineSet
EndChar
StartChar: at
Encoding: 64 64 33
Width: 747
Flags: W
HStem: -20 50<374 417> 134 29<491 514> 139 27<292 310> 644 50<374 417>
VStem: 24 55<315 349> 159 89<254 280> 671 53<395 426>
Fore
658 171 m 1xde
 719 171 l 1
 688 120 672 99 640 72 c 0
 571 11 487 -20 394 -20 c 0
 186 -20 24 134 24 331 c 0
 24 535 185 694 393 694 c 0
 579 694 724 569 724 409 c 0
 724 272 607 134 491 134 c 0xde
 447 134 420 164 415 218 c 1
 365 155 339 139 292 139 c 0xbe
 218 139 159 201 159 280 c 0
 159 399 263 509 376 509 c 0
 424 509 452 484 464 429 c 1
 482 499 l 1
 570 499 l 1
 493 220 l 2
 490 210 489 201 489 192 c 0
 489 175 499 163 514 163 c 0
 589 163 671 290 671 405 c 0
 671 542 554 644 397 644 c 0
 215 644 79 513 79 337 c 0
 79 161 216 30 401 30 c 0
 446 30 485 38 523 55 c 0
 579 80 610 106 658 171 c 1xde
393 482 m 0
 364 484 332 463 305 424 c 0
 273 377 248 303 248 254 c 0
 248 201 272 166 308 166 c 0xbe
 341 166 371 189 396 234 c 0
 424 283 445 359 445 410 c 0
 445 451 424 480 393 482 c 0
EndSplineSet
EndChar
StartChar: A
Encoding: 65 65 34
Width: 778
Flags: W
HStem: 0 21G<116 130.5 621 638.5> 229 40<240 511> 680 20G<376 408>
DStem: 284 484 367 567 106 79 240 269 284 484 223 229 106 79 195 162 367 567 408 700 493 269 650 132
Fore
408 700 m 1
 650 132 l 1
 685 51 696 34 722 30 c 2
 756 27 l 1
 756 -3 l 1
 648 0 648 0 629 0 c 0
 613 0 613 0 490 -3 c 1
 490 27 l 1
 537 30 l 2
 562 32 578 39 578 50 c 0
 578 59 574 72 557 114 c 2
 511 229 l 1
 223 229 l 1
 195 162 l 2
 174 112 160 69 160 56 c 0
 160 40 173 33 208 30 c 2
 245 27 l 1
 245 -3 l 1
 137 0 137 0 124 0 c 0
 108 0 108 0 15 -3 c 1
 15 27 l 1
 52 30 l 2
 74 32 94 50 106 79 c 1
 284 484 l 1
 337 605 l 1
 376 700 l 1
 408 700 l 1
240 269 m 1
 493 269 l 1
 367 567 l 1
 240 269 l 1
EndSplineSet
KernsSLIF: 67 -72 0 0 264 -75 0 0 71 -70 0 0 79 -69 0 0 286 -69 0 0 81 -67 0 0 84 -69 0 0 85 -74 0 0 299 -74 0 0 301 -74 0 0 298 -74 0 0 300 -74 0 0 86 -140 0 0 87 -98 0 0 89 -89 0 0 97 -11 0 0 98 -13 0 0 99 -33 0 0 332 -39 0 0 44 -33 0 0 100 -34 0 0 101 -30 0 0 103 -26 0 0 171 -84 0 0 172 -92 0 0 45 -37 0 0 111 -36 0 0 46 -24 0 0 113 -34 0 0 186 -123 0 0 39 -120 0 0 116 -38 0 0 117 -45 0 0 118 -87 0 0 119 -78 0 0 121 -88 0 0
EndChar
StartChar: B
Encoding: 66 66 35
Width: 611
Flags: W
HStem: -3 42<265 300> 364 35<233 291> 652 37<184 318.906>
VStem: 113 95<76 362 95 644> 443 99<533 556> 473 103<207 230>
Fore
338 692 m 2xf4
 363 692 l 2
 479 692 542 644 542 556 c 0xf8
 542 504 517 461 469 428 c 0
 441 409 418 400 369 390 c 1
 446 384 480 375 518 347 c 0
 556 320 576 279 576 228 c 0
 576 158 541 90 482 48 c 0
 437 15 371 -3 298 -3 c 0
 288 -3 288 -3 208 -1 c 0
 196 0 185 0 174 0 c 0
 155 0 134 -1 65 -3 c 1
 65 20 l 1
 91 30 l 2
 105 36 113 58 113 95 c 2
 113 569 l 2
 113 648 109 655 62 659 c 2
 26 662 l 1
 26 692 l 1
 165 689 165 689 184 689 c 0
 199 689 199 689 338 692 c 2xf4
208 362 m 1
 208 47 l 1
 233 41 256 39 285 39 c 0
 404 39 473 102 473 208 c 0xf4
 473 315 410 364 275 364 c 0
 256 364 247 364 208 362 c 1
208 644 m 1
 208 401 l 1
 239 399 252 399 269 399 c 0
 383 399 443 446 443 533 c 0xf8
 443 616 396 652 289 652 c 0
 257 652 234 650 208 644 c 1
EndSplineSet
KernsSLIF: 65 -51 0 0 225 -38 0 0 257 -51 0 0 259 -51 0 0 256 -51 0 0 262 -51 0 0 261 -51 0 0 79 -8 0 0 234 -8 0 0 287 -8 0 0 289 -8 0 0 286 -8 0 0 288 -8 0 0 233 -15 0 0 86 -37 0 0 87 -37 0 0 89 -33 0 0
EndChar
StartChar: C
Encoding: 67 67 36
Width: 709
Flags: W
HStem: -20 54<415 454> 667 42<405 439>
VStem: 22 107<331 365> 614 31<516 544.7>
Fore
670 84 m 1
 642 34 l 1
 573 -2 498 -20 415 -20 c 0
 180 -20 22 126 22 342 c 0
 22 477 82 582 196 649 c 0
 263 688 346 709 433 709 c 0
 506 709 579 696 664 668 c 1
 650 602 646 566 645 516 c 1
 614 516 l 1
 614 588 l 2
 614 627 513 667 415 667 c 0
 243 667 129 545 129 361 c 0
 129 164 259 34 454 34 c 0
 530 34 599 54 661 94 c 1
 670 84 l 1
EndSplineSet
KernsSLIF: 65 -17 0 0 225 -5 0 0 257 -17 0 0 256 -17 0 0 262 -17 0 0 72 -11 0 0 75 -11 0 0 79 -39 0 0 287 -39 0 0 286 -39 0 0
EndChar
StartChar: D
Encoding: 68 68 37
Width: 774
Flags: W
HStem: -3 44<262.094 343> 652 37<228 343>
VStem: 113 95<78.8983 606> 644 107<357 387>
Fore
57 20 m 1
 88 36 l 2
 104 44 113 66 113 95 c 2
 113 569 l 2
 113 647 108 656 62 659 c 2
 22 662 l 1
 22 692 l 1
 136 690 191 689 228 689 c 0
 271 689 314 690 364 691 c 0
 382 692 395 692 402 692 c 0
 613 692 751 571 751 385 c 0
 751 278 707 170 635 99 c 0
 565 30 469 -3 341 -3 c 0
 327 -3 327 -3 248 -1 c 0
 230 0 214 0 196 0 c 0
 173 0 173 0 57 -3 c 1
 57 20 l 1
208 644 m 1
 208 49 l 1
 234 43 265 41 311 41 c 0
 424 41 484 58 544 107 c 0
 610 161 644 247 644 359 c 0
 644 459 621 531 573 579 c 0
 555 597 536 611 514 620 c 0
 472 639 392 652 319 652 c 0
 269 652 234 649 208 644 c 1
EndSplineSet
KernsSLIF: 65 -82 0 0 257 -82 0 0 259 -82 0 0 256 -82 0 0 258 -82 0 0 262 -82 0 0 261 -82 0 0 74 -31 0 0 84 -18 0 0 86 -60 0 0 87 -46 0 0 88 -63 0 0 89 -56 0 0
EndChar
StartChar: E
Encoding: 69 69 38
Width: 611
Flags: W
HStem: -3 42<277 389> 0 164<537 557> 330 42<261 375> 650 39<200 375>
VStem: 121 95<92 327 120 642> 505 35<537 580.794>
Fore
22 662 m 1xbc
 22 692 l 1
 121 690 166 689 200 689 c 0
 227 689 270 690 333 691 c 0
 374 692 407 692 432 692 c 0
 476 692 507 691 556 689 c 1
 545 645 540 597 540 537 c 1
 505 537 l 1
 505 602 l 2
 505 625 502 630 478 636 c 0
 446 645 390 650 333 650 c 0
 264 650 247 649 216 642 c 1
 216 375 l 1
 250 373 284 372 326 372 c 0
 392 372 420 375 438 383 c 1
 442 391 445 400 446 409 c 1
 451 461 l 1
 481 461 l 1
 478 361 478 361 478 345 c 0
 478 327 478 327 481 234 c 1
 451 234 l 1
 446 293 l 1
 438 318 l 1
 420 327 393 330 319 330 c 0
 274 330 244 329 216 327 c 1
 216 47 l 1
 245 41 263 39 315 39 c 0xbc
 405 39 478 44 499 51 c 0
 513 56 526 87 532 130 c 0
 533 134 535 148 537 164 c 1
 572 164 l 1
 562 112 556 58 556 0 c 1x7c
 420 -3 420 -3 389 -3 c 0xbc
 367 -3 367 -3 228 -1 c 0
 190 0 162 0 157 0 c 0x7c
 129 0 100 -1 34 -3 c 1
 34 27 l 1
 70 30 l 2
 117 34 121 41 121 120 c 2
 121 569 l 2
 121 648 116 656 70 659 c 2
 22 662 l 1xbc
EndSplineSet
EndChar
StartChar: F
Encoding: 70 70 39
Width: 556
Flags: W
HStem: 0 21G<142 194> 330 42<261 375> 650 39<198 359>
VStem: 121 95<120 327 120 642> 485 35<537 580.794>
Fore
216 327 m 1
 216 120 l 2
 216 41 221 33 267 30 c 2
 315 27 l 1
 315 -3 l 1
 256 -1 220 0 168 0 c 0
 116 0 81 -1 22 -3 c 1
 22 27 l 1
 70 30 l 2
 116 33 121 41 121 120 c 2
 121 569 l 2
 121 648 116 656 70 659 c 2
 22 662 l 1
 22 692 l 1
 169 689 169 689 198 689 c 0
 223 689 258 689 307 691 c 1
 414 692 l 2
 457 692 487 691 536 689 c 1
 525 645 520 597 520 537 c 1
 485 537 l 1
 485 602 l 2
 485 625 482 630 458 636 c 0
 427 644 371 650 323 650 c 0
 264 650 246 649 216 642 c 1
 216 375 l 1
 250 373 284 372 326 372 c 0
 392 372 420 375 438 383 c 1
 442 391 445 400 446 409 c 1
 451 461 l 1
 481 461 l 1
 478 361 478 361 478 345 c 0
 478 327 478 327 481 234 c 1
 451 234 l 1
 446 293 l 1
 438 318 l 1
 420 327 393 330 319 330 c 0
 274 330 244 329 216 327 c 1
EndSplineSet
KernsSLIF: 65 -95 0 0 257 -95 0 0 259 -95 0 0 256 -95 0 0 258 -95 0 0 262 -95 0 0 261 -95 0 0 74 2 0 0 79 -18 0 0 286 -18 0 0 97 -40 0 0 323 -42 0 0 322 -36 0 0 241 -41 0 0 328 -42 0 0 44 -80 0 0 101 -23 0 0 335 -23 0 0 45 6 0 0 105 -22 0 0 106 -8 0 0 111 -26 0 0 352 -26 0 0 351 -26 0 0 250 -26 0 0 249 -29 0 0 46 -65 0 0 114 -22 0 0 117 -20 0 0
EndChar
StartChar: G
Encoding: 71 71 40
Width: 763
Flags: W
HStem: -20 42<412 453> 667 42<413 456>
VStem: 22 107<331 364> 596 92<75 205> 641 31<516 551.075>
Fore
641 516 m 1xe8
 641 569 l 2xe8
 641 607 616 630 558 649 c 0
 520 661 476 667 424 667 c 0
 237 667 129 555 129 362 c 0
 129 154 255 22 453 22 c 0
 519 22 579 36 590 55 c 0
 594 62 596 74 596 98 c 2
 596 199 l 2
 596 223 587 232 562 234 c 2
 479 241 l 1
 479 271 l 1
 566 269 572 269 601 269 c 0
 632 269 635 269 724 271 c 1
 728 246 l 1
 699 236 l 2
 689 232 688 230 688 199 c 2
 688 31 l 1xf0
 552 -7 483 -20 412 -20 c 0
 296 -20 188 20 119 89 c 1
 56 150 22 240 22 341 c 0
 22 563 192 709 450 709 c 0
 530 709 581 700 692 668 c 1
 678 614 672 567 672 516 c 1
 641 516 l 1xe8
EndSplineSet
KernsSLIF: 65 -23 0 0 225 -10 0 0 257 -23 0 0 259 -23 0 0 256 -23 0 0 258 -23 0 0 262 -23 0 0 261 -23 0 0 84 -23 0 0 86 -17 0 0 87 -17 0 0 89 -18 0 0
EndChar
StartChar: H
Encoding: 72 72 41
Width: 832
Flags: W
HStem: 0 21G<142 194 637 689> 345 44<299 583>
VStem: 121 95<120 343 120 606> 616 95<120 343 390 606>
Fore
616 120 m 2
 616 343 l 1
 589 345 573 345 533 345 c 2
 299 345 l 2
 259 345 243 345 216 343 c 1
 216 120 l 2
 216 41 221 33 267 30 c 2
 315 27 l 1
 315 -3 l 1
 256 -1 220 0 168 0 c 0
 116 0 81 -1 22 -3 c 1
 22 27 l 1
 70 30 l 2
 116 33 121 41 121 120 c 2
 121 569 l 2
 121 648 116 656 70 659 c 2
 22 662 l 1
 22 692 l 1
 94 690 118 689 168 689 c 0
 220 689 242 689 315 692 c 1
 315 662 l 1
 267 659 l 2
 221 656 216 648 216 569 c 2
 216 391 l 1
 236 390 258 389 299 389 c 2
 533 389 l 2
 574 389 595 390 616 391 c 1
 616 569 l 2
 616 648 611 656 565 659 c 2
 517 662 l 1
 517 692 l 1
 589 690 613 689 663 689 c 0
 715 689 737 689 810 692 c 1
 810 662 l 1
 762 659 l 2
 716 656 711 648 711 569 c 2
 711 120 l 2
 711 41 716 33 762 30 c 2
 810 27 l 1
 810 -3 l 1
 751 -1 715 0 663 0 c 0
 611 0 576 -1 517 -3 c 1
 517 27 l 1
 565 30 l 2
 611 33 616 41 616 120 c 2
EndSplineSet
EndChar
StartChar: I
Encoding: 73 73 42
Width: 337
Flags: W
HStem: 0 21G<142 194>
VStem: 121 95<120 606>
Fore
216 569 m 2
 216 120 l 2
 216 41 221 33 267 30 c 2
 315 27 l 1
 315 -3 l 1
 256 -1 220 0 168 0 c 0
 116 0 81 -1 22 -3 c 1
 22 27 l 1
 70 30 l 2
 116 33 121 41 121 120 c 2
 121 569 l 2
 121 648 116 656 70 659 c 2
 22 662 l 1
 22 692 l 1
 94 690 118 689 168 689 c 0
 220 689 242 689 315 692 c 1
 315 662 l 1
 267 659 l 2
 221 656 216 648 216 569 c 2
EndSplineSet
EndChar
StartChar: J
Encoding: 74 74 43
Width: 333
Flags: W
VStem: 117 95<-17 606>
Fore
-10 -192 m 5
 -15 -116 l 5
 -4 -110 l 5
 19 -124 39 -130 63 -130 c 4
 103 -130 117 -101 117 -17 c 6
 117 569 l 2
 117 648 112 656 66 659 c 2
 18 662 l 1
 18 692 l 1
 90 690 114 689 164 689 c 0
 216 689 238 689 311 692 c 1
 311 662 l 1
 263 659 l 2
 217 656 212 648 212 569 c 2
 212 117 l 6
 212 -4 199 -54 150 -114 c 4
 111 -163 48 -200 14 -195 c 6
 7 -194 l 5
 -10 -192 l 5
EndSplineSet
KernsSLIF: 65 -47 0 0 225 -35 0 0 256 -47 0 0 262 -47 0 0
EndChar
StartChar: K
Encoding: 75 75 44
Width: 726
Flags: W
HStem: 0 21G<142 194 649 660.5>
VStem: 121 95<120 325 120 606> 523 169<661 692>
DStem: 226 332 306 382 574 -3 636 70
Fore
216 325 m 1
 216 120 l 2
 216 41 221 33 267 30 c 2
 315 27 l 1
 315 -3 l 1
 256 -1 220 0 168 0 c 0
 116 0 81 -1 22 -3 c 1
 22 27 l 1
 70 30 l 2
 116 33 121 41 121 120 c 2
 121 569 l 2
 121 648 116 656 70 659 c 2
 22 662 l 1
 22 692 l 1
 94 690 118 689 168 689 c 0
 220 689 242 689 315 692 c 1
 315 662 l 1
 267 659 l 2
 221 656 216 648 216 569 c 2
 216 355 l 1
 494 626 l 2
 510 642 523 659 523 665 c 2
 523 692 l 1
 581 690 598 689 612 689 c 0
 629 689 629 689 692 692 c 1
 692 662 l 1
 650 660 l 2
 624 659 599 646 572 622 c 2
 306 382 l 1
 636 70 l 2
 667 41 683 30 698 29 c 2
 719 27 l 1
 719 -3 l 1
 669 0 667 0 654 0 c 0
 644 0 644 0 574 -3 c 1
 226 332 l 1
 216 325 l 1
EndSplineSet
KernsSLIF: 67 -64 0 0 71 -63 0 0 79 -61 0 0 234 -61 0 0 287 -61 0 0 286 -61 0 0 83 3 0 0 84 -4 0 0 97 -4 0 0 322 -4 0 0 328 -4 0 0 101 -23 0 0 45 -77 0 0 111 -29 0 0 352 -29 0 0 351 -29 0 0 117 -37 0 0 362 -37 0 0 121 -89 0 0
EndChar
StartChar: L
Encoding: 76 76 45
Width: 611
Flags: W
HStem: -3 42<265 397> -1 40<211 301> 0 172<554 566>
VStem: 121 95<78.8983 606>
Fore
216 569 m 2x90
 216 47 l 1
 242 41 265 39 301 39 c 0x90
 420 39 507 46 520 57 c 0
 526 62 533 82 539 111 c 0
 540 112 541 119 542 122 c 1
 554 172 l 1
 586 172 l 1
 576 75 572 43 565 0 c 1x30
 429 -3 429 -3 397 -3 c 0x90
 369 -3 260 -2 211 -1 c 0x50
 189 0 173 0 164 0 c 0x30
 138 0 131 0 65 -3 c 1
 65 20 l 1
 96 36 l 2
 112 44 121 66 121 95 c 2
 121 569 l 2
 121 648 116 656 70 659 c 2
 22 662 l 1
 22 692 l 1
 94 690 118 689 168 689 c 0
 220 689 242 689 315 692 c 1
 315 662 l 1
 267 659 l 2
 221 656 216 648 216 569 c 2x90
EndSplineSet
KernsSLIF: 65 -6 0 0 225 6 0 0 257 -6 0 0 256 -6 0 0 262 -6 0 0 67 -19 0 0 264 -21 0 0 71 -19 0 0 79 -18 0 0 287 -18 0 0 289 -18 0 0 286 -18 0 0 288 -18 0 0 290 -18 0 0 83 -9 0 0 84 -78 0 0 85 -47 0 0 298 -47 0 0 86 -124 0 0 87 -83 0 0 89 -98 0 0 45 2 0 0 186 -128 0 0 39 -125 0 0 117 -35 0 0 362 -35 0 0 121 -62 0 0
EndChar
StartChar: M
Encoding: 77 77 46
Width: 946
Flags: W
HStem: -13 21G<436 456>
VStem: 111 46<120 578> 732 95<120 578>
DStem: 157 578 206 692 436 -13 470 136 732 692 688 492 470 136 510 114
Fore
732 120 m 2
 732 578 l 1
 714 544 702 521 688 492 c 2
 510 114 l 2
 503 100 491 72 475 33 c 0
 469 18 463 2 456 -13 c 1
 436 -13 l 1
 157 578 l 1
 157 120 l 2
 157 42 162 33 208 30 c 2
 252 27 l 1
 252 -3 l 1
 147 0 147 0 132 0 c 0
 115 0 115 0 16 -3 c 1
 16 27 l 1
 60 30 l 2
 106 33 111 42 111 120 c 2
 111 569 l 2
 111 647 106 656 60 659 c 2
 16 662 l 1
 16 692 l 1
 96 689 96 689 111 689 c 0
 126 689 126 689 206 692 c 1
 470 136 l 1
 732 692 l 1
 812 689 812 689 827 689 c 0
 844 689 844 689 920 692 c 1
 920 662 l 1
 878 659 l 2
 832 656 827 647 827 569 c 2
 827 120 l 2
 827 41 832 33 878 30 c 2
 926 27 l 1
 926 -3 l 1
 867 -1 831 0 775 0 c 0
 723 0 693 -1 647 -3 c 1
 647 27 l 1
 681 30 l 2
 728 34 732 41 732 120 c 2
EndSplineSet
EndChar
StartChar: N
Encoding: 78 78 47
Width: 831
Flags: W
HStem: -20 20G<124.5 140.5>
VStem: 112 46<120 583> 672 46<98 605>
DStem: 158 583 191 692 631 -4 672 98
Fore
137 689 m 1
 191 692 l 1
 672 98 l 1
 672 569 l 2
 672 647 667 656 621 659 c 2
 577 662 l 1
 577 692 l 1
 676 689 676 689 693 689 c 0
 708 689 708 689 813 692 c 1
 813 662 l 1
 769 659 l 2
 723 656 718 647 718 569 c 2
 718 17 l 2
 718 11 719 3 720 -8 c 0
 721 -15 721 -16 721 -20 c 1
 631 -4 l 1
 158 583 l 1
 158 120 l 2
 158 42 163 33 209 30 c 2
 253 27 l 1
 253 -3 l 1
 148 0 148 0 133 0 c 0
 116 0 116 0 17 -3 c 1
 17 27 l 1
 61 30 l 2
 107 33 112 42 112 120 c 2
 112 569 l 2
 112 647 107 656 61 659 c 2
 17 662 l 1
 17 692 l 1
 72 690 81 690 137 689 c 1
EndSplineSet
KernsSLIF: 65 -41 0 0 225 -29 0 0 257 -41 0 0 256 -41 0 0 262 -41 0 0 67 -29 0 0 264 -28 0 0 71 -29 0 0 79 -27 0 0 287 -27 0 0 286 -27 0 0 97 -32 0 0 323 -33 0 0 322 -33 0 0 241 -33 0 0 328 -33 0 0 44 -45 0 0 101 -24 0 0 335 -24 0 0 111 -28 0 0 352 -28 0 0 351 -28 0 0 249 -27 0 0 46 -32 0 0 117 -38 0 0 362 -38 0 0
EndChar
StartChar: O
Encoding: 79 79 48
Width: 786
Flags: W
HStem: -20 42<370 410> 667 42<369 412>
VStem: 22 107<341 378> 657 107<337 369>
Fore
402 709 m 0
 624 709 764 577 764 367 c 0
 764 147 594 -20 370 -20 c 0
 168 -20 22 131 22 341 c 0
 22 561 174 709 402 709 c 0
385 667 m 0
 221 667 129 563 129 378 c 0
 129 164 242 22 410 22 c 0
 565 22 657 139 657 337 c 0
 657 545 556 667 385 667 c 0
EndSplineSet
KernsSLIF: 65 -76 0 0 225 -63 0 0 257 -76 0 0 256 -76 0 0 262 -76 0 0 84 -17 0 0 86 -56 0 0 87 -44 0 0 88 -59 0 0 89 -52 0 0
EndChar
StartChar: P
Encoding: 80 80 49
Width: 604
Flags: W
HStem: 0 21G<142 194> 324 32<312 349> 654 35<205 314>
VStem: 121 95<120 590> 480 100<509 537>
Fore
216 642 m 1
 216 120 l 2
 216 41 221 33 267 30 c 2
 315 27 l 1
 315 -3 l 1
 256 -1 220 0 168 0 c 0
 116 0 81 -1 22 -3 c 1
 22 27 l 1
 70 30 l 2
 116 33 121 41 121 120 c 2
 121 569 l 2
 121 643 113 656 68 659 c 2
 23 662 l 1
 23 692 l 1
 183 689 183 689 205 689 c 0
 234 689 310 690 347 691 c 0
 360 692 370 692 375 692 c 0
 502 692 580 633 580 537 c 0
 580 417 475 324 338 324 c 0
 318 324 304 325 280 330 c 1
 270 366 l 1
 296 358 311 356 332 356 c 0
 419 356 480 419 480 509 c 0
 480 604 422 654 314 654 c 0
 280 654 251 650 216 642 c 1
EndSplineSet
KernsSLIF: 65 -124 0 0 225 -117 0 0 257 -124 0 0 256 -124 0 0 262 -124 0 0 74 -27 0 0 97 -41 0 0 323 -41 0 0 322 -33 0 0 241 -42 0 0 328 -41 0 0 44 -142 0 0 101 -51 0 0 335 -51 0 0 45 -50 0 0 111 -54 0 0 352 -54 0 0 351 -45 0 0 250 -51 0 0 249 -58 0 0 46 -128 0 0
EndChar
StartChar: Q
Encoding: 81 81 50
Width: 786
Flags: W
HStem: -19 42<386 412> 667 42<370 412>
VStem: 22 107<343 375> 657 107<335 371>
Fore
388 -19 m 1
 377 -19 l 2
 162 -19 22 124 22 343 c 0
 22 561 174 709 398 709 c 0
 622 709 764 578 764 371 c 0
 764 227 690 98 569 28 c 0
 517 -1 480 -12 401 -19 c 1
 443 -24 460 -29 522 -56 c 0
 602 -90 657 -105 705 -105 c 0
 714 -105 725 -104 764 -99 c 1
 764 -120 l 1
 680 -176 l 1
 640 -168 609 -161 574 -150 c 2
 426 -104 l 2
 395 -94 367 -89 348 -89 c 0
 338 -89 332 -91 320 -97 c 2
 261 -129 l 1
 263 -97 l 1
 319 -54 353 -31 372 -25 c 2
 388 -19 l 1
385 667 m 0
 220 667 129 563 129 375 c 0
 129 276 159 180 209 117 c 0
 259 55 327 23 412 23 c 0
 569 23 657 135 657 335 c 0
 657 545 557 667 385 667 c 0
EndSplineSet
EndChar
StartChar: R
Encoding: 82 82 51
Width: 668
Flags: W
HStem: 0 21G<142 194 591.5 601.5> 654 35<202 327>
VStem: 121 95<120 606> 476 100<521 542>
DStem: 304 298 381 349 488 51 608 53
Fore
216 642 m 1
 216 120 l 2
 216 41 221 33 267 30 c 2
 315 27 l 1
 315 -3 l 1
 256 -1 220 0 168 0 c 0
 116 0 81 -1 22 -3 c 1
 22 27 l 1
 70 30 l 2
 116 33 121 41 121 120 c 2
 121 569 l 2
 121 647 116 656 70 659 c 2
 29 662 l 1
 29 692 l 1
 169 689 169 689 202 689 c 0
 236 689 236 689 366 692 c 2
 382 692 l 2
 506 692 576 638 576 542 c 0
 576 484 548 434 496 397 c 0
 463 374 437 363 381 349 c 1
 608 53 l 2
 621 36 637 30 669 27 c 1
 669 -3 l 1
 606 0 606 0 597 0 c 0
 586 0 576 0 529 -3 c 1
 506 28 l 2
 500 35 494 43 488 51 c 2
 304 298 l 2
 295 310 292 314 278 330 c 0
 266 343 263 347 252 360 c 1
 258 372 l 1
 271 371 280 371 287 371 c 0
 403 371 476 429 476 521 c 0
 476 606 418 654 314 654 c 0
 280 654 250 650 216 642 c 1
EndSplineSet
KernsSLIF: 67 -41 0 0 264 -41 0 0 71 -41 0 0 79 -40 0 0 234 -40 0 0 287 -40 0 0 286 -40 0 0 84 -36 0 0 85 -55 0 0 298 -55 0 0 86 -53 0 0 87 -53 0 0 89 -49 0 0 241 3 0 0 101 -19 0 0 335 -19 0 0 45 -51 0 0 111 -25 0 0 352 -25 0 0 351 -25 0 0 250 -27 0 0 117 -33 0 0 363 -33 0 0 362 -33 0 0 121 -36 0 0
EndChar
StartChar: S
Encoding: 83 83 52
Width: 525
Flags: W
HStem: -20 44<203 240> 667 42<257 283>
VStem: 24 84<484 523> 419 84<179 230>
Fore
447 526 m 1
 415 526 l 1
 409 583 l 2
 406 612 395 627 362 644 c 0
 335 659 298 667 259 667 c 0
 171 667 108 607 108 523 c 0
 108 446 151 413 273 397 c 0
 385 382 427 369 462 336 c 0
 490 310 503 277 503 230 c 0
 503 85 377 -20 203 -20 c 0
 145 -20 87 -7 30 18 c 1
 36 63 38 85 38 131 c 0
 38 137 38 153 37 171 c 1
 69 171 l 1
 77 104 l 2
 82 63 160 24 240 24 c 0
 344 24 419 89 419 179 c 0
 419 217 407 246 381 267 c 1
 355 290 320 301 243 312 c 0
 146 325 100 341 66 372 c 0
 37 399 24 435 24 484 c 0
 24 615 132 709 281 709 c 0
 336 709 381 699 461 667 c 1
 451 613 447 579 447 526 c 1
EndSplineSet
KernsSLIF: 65 -42 0 0 225 -30 0 0 257 -42 0 0 256 -42 0 0 262 -42 0 0 84 -19 0 0 86 -14 0 0 87 -14 0 0 89 -14 0 0 116 -18 0 0
EndChar
StartChar: T
Encoding: 84 84 53
Width: 613
Flags: W
HStem: 0 21G<280 332> 643 48<18 255 221 515>
VStem: 259 95<120 590>
Fore
255 643 m 1
 100 643 l 2
 72 643 61 634 60 610 c 1
 56 531 l 1
 25 531 l 1
 25 596 23 635 18 692 c 1
 86 691 l 2
 157 690 211 689 221 689 c 2
 379 689 l 2
 394 689 423 689 462 690 c 0
 490 691 523 691 595 692 c 1
 590 635 588 596 588 531 c 1
 557 531 l 1
 553 610 l 1
 552 634 541 643 513 643 c 2
 358 643 l 1
 355 610 354 588 354 543 c 2
 354 120 l 2
 354 41 359 33 405 30 c 2
 453 27 l 1
 453 -3 l 1
 394 -1 358 0 306 0 c 0
 254 0 219 -1 160 -3 c 1
 160 27 l 1
 208 30 l 2
 254 33 259 41 259 120 c 2
 259 543 l 2
 259 586 258 609 255 643 c 1
EndSplineSet
KernsSLIF: 65 -65 0 0 225 -53 0 0 257 -65 0 0 259 -65 0 0 256 -65 0 0 258 -65 0 0 262 -65 0 0 261 -65 0 0 67 -24 0 0 71 -24 0 0 74 3 0 0 79 -22 0 0 234 -23 0 0 287 -22 0 0 289 -22 0 0 286 -22 0 0 288 -22 0 0 233 -33 0 0 290 -22 0 0 83 -4 0 0 86 9 0 0 87 9 0 0 89 8 0 0 97 -80 0 0 241 -77 0 0 99 -97 0 0 58 -94 0 0 44 -102 0 0 101 -94 0 0 103 -95 0 0 171 -126 0 0 172 -134 0 0 45 -77 0 0 105 -26 0 0 106 -11 0 0 111 -98 0 0 249 -63 0 0 46 -92 0 0 114 -63 0 0 115 -68 0 0 59 -101 0 0 117 -110 0 0 118 -105 0 0 119 -105 0 0 121 -108 0 0
EndChar
StartChar: U
Encoding: 85 85 54
Width: 778
Flags: W
HStem: -20 62<376 413>
VStem: 111 95<203 605> 618 46<247 605>
Fore
664 569 m 2
 664 280 l 2
 664 169 642 94 595 47 c 0
 550 1 481 -20 378 -20 c 0
 278 -20 207 1 167 42 c 0
 129 81 111 136 111 214 c 2
 111 569 l 2
 111 648 106 656 60 659 c 2
 12 662 l 1
 12 692 l 1
 84 690 108 689 158 689 c 0
 210 689 232 689 305 692 c 1
 305 662 l 1
 257 659 l 2
 211 656 206 648 206 569 c 2
 206 225 l 2
 206 97 266 42 405 42 c 0
 550 42 618 108 618 249 c 2
 618 569 l 2
 618 647 613 656 567 659 c 2
 523 662 l 1
 523 692 l 1
 622 689 622 689 639 689 c 0
 654 689 654 689 759 692 c 1
 759 662 l 1
 715 659 l 2
 669 656 664 647 664 569 c 2
EndSplineSet
KernsSLIF: 65 -80 0 0 225 -68 0 0 257 -80 0 0 259 -80 0 0 256 -80 0 0 262 -80 0 0 261 -80 0 0 44 -66 0 0 109 -39 0 0 110 -33 0 0 112 -35 0 0 46 -49 0 0 114 -41 0 0
EndChar
StartChar: V
Encoding: 86 86 55
Width: 722
Flags: W
HStem: -9 21G<334 384>
DStem: 88 618 188 628 276 156 385 121
Fore
274 662 m 1
 218 659 l 2
 198 658 186 651 186 639 c 0
 186 635 187 632 188 628 c 1
 385 121 l 1
 568 594 l 2
 574 609 577 623 577 633 c 0
 577 648 564 658 542 659 c 2
 490 662 l 1
 490 692 l 1
 506 691 523 691 528 691 c 0
 557 690 580 689 598 689 c 2
 706 692 l 1
 706 662 l 1
 676 659 l 2
 656 656 645 641 622 587 c 1
 448 166 l 2
 415 86 403 53 384 -9 c 1
 334 -9 l 1
 319 45 307 80 276 156 c 2
 88 618 l 1
 75 648 65 657 44 659 c 2
 8 662 l 1
 8 692 l 1
 118 689 118 689 141 689 c 0
 164 689 164 689 274 692 c 1
 274 662 l 1
EndSplineSet
KernsSLIF: 65 -142 0 0 225 -129 0 0 257 -142 0 0 259 -142 0 0 256 -142 0 0 258 -142 0 0 262 -142 0 0 261 -142 0 0 67 -70 0 0 71 -70 0 0 79 -68 0 0 287 -68 0 0 289 -68 0 0 286 -68 0 0 288 -68 0 0 233 -74 0 0 290 -68 0 0 83 -35 0 0 84 5 0 0 97 -94 0 0 241 -95 0 0 58 -93 0 0 44 -136 0 0 101 -89 0 0 103 -101 0 0 171 -115 0 0 172 -123 0 0 45 -66 0 0 105 -26 0 0 111 -92 0 0 249 -92 0 0 46 -121 0 0 114 -65 0 0 59 -108 0 0 117 -63 0 0 121 -56 0 0
EndChar
StartChar: W
Encoding: 87 87 56
Width: 1000
Flags: W
HStem: -9 21G<228 278 684 734> 680 20G<499 531>
DStem: 86 609 185 593 205 94 285 144 409 459 488 536 285 144 314 94 488 536 564 598 613 197 728 137 860 626 914 630 728 137 761 92
Fore
734 -9 m 1
 684 -9 l 1
 649 100 646 108 613 197 c 2
 488 536 l 1
 314 94 l 1
 295 47 287 23 278 -9 c 1
 228 -9 l 1
 205 94 l 1
 86 609 l 1
 77 645 65 656 36 659 c 2
 8 662 l 1
 8 692 l 1
 85 690 127 689 134 689 c 2
 260 692 l 1
 260 662 l 1
 218 659 l 2
 191 657 181 648 181 626 c 0
 181 616 182 605 185 593 c 1
 285 144 l 1
 409 459 l 1
 461 593 478 638 499 700 c 1
 531 700 l 1
 539 666 542 658 564 598 c 1
 728 137 l 1
 860 626 l 2
 861 629 861 632 861 635 c 0
 860 651 849 656 814 659 c 2
 774 662 l 1
 774 692 l 1
 869 689 869 689 879 689 c 2
 984 692 l 1
 984 662 l 1
 952 659 l 2
 930 657 920 648 914 630 c 1
 761 92 l 1
 753 65 745 35 742 25 c 0
 741 20 738 6 734 -9 c 1
EndSplineSet
KernsSLIF: 65 -113 0 0 225 -100 0 0 257 -113 0 0 259 -113 0 0 256 -113 0 0 258 -113 0 0 262 -113 0 0 261 -113 0 0 67 -55 0 0 71 -55 0 0 79 -54 0 0 287 -54 0 0 289 -54 0 0 286 -54 0 0 288 -54 0 0 233 -58 0 0 290 -54 0 0 83 -35 0 0 84 5 0 0 97 -75 0 0 241 -76 0 0 58 -82 0 0 44 -105 0 0 101 -66 0 0 103 -82 0 0 171 -93 0 0 172 -101 0 0 45 -44 0 0 105 -26 0 0 111 -70 0 0 249 -69 0 0 46 -90 0 0 114 -55 0 0 59 -97 0 0 117 -52 0 0 121 -47 0 0
EndChar
StartChar: X
Encoding: 88 88 57
Width: 667
Flags: W
HStem: 0 21G<62 70 571 579.5> 659 30<625.333 639>
DStem: 166 554 225 635 294 341 353 419 319 303 376 380 503 -3 552 100
Fore
648 27 m 1
 648 -3 l 1
 605 -1 582 0 577 0 c 0
 565 0 565 0 503 -3 c 1
 319 303 l 1
 294 268 284 254 274 239 c 2
 117 -3 l 1
 74 0 74 0 66 0 c 0
 58 0 58 0 14 -3 c 1
 14 27 l 1
 40 30 l 2
 62 33 74 44 99 78 c 0
 101 81 102 81 105 86 c 2
 294 341 l 1
 166 554 l 2
 133 609 98 642 74 644 c 2
 29 647 l 1
 27 673 l 1
 168 700 l 1
 187 690 202 673 225 635 c 2
 353 419 l 1
 538 689 l 1
 639 689 l 1
 639 659 l 1
 598 656 l 2
 583 654 571 642 530 588 c 1
 376 380 l 1
 552 100 l 1
 587 46 599 33 618 30 c 2
 648 27 l 1
EndSplineSet
KernsSLIF: 67 -59 0 0 79 -57 0 0 286 -57 0 0 81 -56 0 0 97 -10 0 0 101 -29 0 0 45 -53 0 0 111 -35 0 0 117 -43 0 0 121 -95 0 0
EndChar
StartChar: Y
Encoding: 89 89 58
Width: 667
Flags: W
HStem: 0 21G<320 372> 674 20G<574 654>
VStem: 299 95<120 270>
DStem: 166 518 220 602 290 302 363 341
Fore
9 680 m 1
 124 704 l 2
 127 705 129 705 129 705 c 2
 147 706 188 660 220 602 c 2
 363 341 l 1
 466 504 l 2
 505 566 536 620 574 694 c 1
 654 694 l 1
 654 679 l 1
 573 582 540 537 466 426 c 0
 408 338 394 304 394 249 c 2
 394 120 l 2
 394 41 399 33 445 30 c 2
 493 27 l 1
 493 -3 l 1
 434 -1 398 0 346 0 c 0
 294 0 259 -1 200 -3 c 1
 200 27 l 1
 248 30 l 2
 294 33 299 41 299 120 c 2
 299 262 l 2
 299 278 296 292 290 302 c 2
 166 518 l 2
 124 591 72 643 38 648 c 2
 9 651 l 1
 9 680 l 1
EndSplineSet
KernsSLIF: 65 -72 0 0 225 -60 0 0 257 -72 0 0 259 -72 0 0 256 -72 0 0 258 -72 0 0 262 -72 0 0 261 -72 0 0 67 -70 0 0 71 -70 0 0 79 -68 0 0 287 -68 0 0 289 -68 0 0 286 -68 0 0 288 -68 0 0 233 -74 0 0 290 -68 0 0 83 -37 0 0 84 6 0 0 97 -87 0 0 241 -84 0 0 58 -101 0 0 44 -109 0 0 101 -92 0 0 103 -102 0 0 171 -127 0 0 172 -135 0 0 45 -83 0 0 105 -27 0 0 111 -95 0 0 249 -70 0 0 112 -75 0 0 46 -99 0 0 59 -108 0 0 117 -79 0 0 118 -69 0 0
EndChar
StartChar: Z
Encoding: 90 90 59
Width: 667
Flags: W
HStem: -3 47<151 326.898 151 632> 0 44<151 355> 648 43<80 500>
DStem: 414 530 637 663 112 142 151 44
Fore
637 663 m 1xa0
 151 44 l 1
 424 44 l 2
 577 44 591 50 598 116 c 2
 604 173 l 1
 638 173 l 1
 633 118 632 83 632 -3 c 1xa0
 355 0 l 1
 327 0 l 1x60
 15 -3 l 1
 15 25 l 1
 79 101 98 123 112 142 c 2
 414 530 l 2
 428 548 442 565 455 583 c 0
 475 608 485 623 500 648 c 1
 272 648 l 2
 150 648 123 640 120 601 c 1
 114 530 l 1
 80 530 l 1
 82 567 83 585 83 611 c 0
 83 637 82 655 80 692 c 1
 245 691 l 1
 427 689 l 1
 477 689 l 1
 633 692 l 1
 637 663 l 1xa0
EndSplineSet
KernsSLIF: 118 -59 0 0 121 -60 0 0
EndChar
StartChar: bracketleft
Encoding: 91 91 60
Width: 333
Flags: W
HStem: -182 35<185 248> 689 35<185 246>
VStem: 87 86<-89 633>
Fore
88 -184 m 1
 79 -171 l 1
 85 -140 87 -112 87 -44 c 2
 87 -33 l 2
 87 -16 87 -15 88 1 c 1
 88 14 l 1
 88 528 l 1
 88 541 l 1
 87 551 87 563 87 578 c 0
 87 655 85 688 79 713 c 1
 88 726 l 1
 157 724 162 724 185 724 c 0
 209 724 212 724 282 726 c 1
 288 720 l 1
 288 694 l 1
 284 689 l 1
 246 689 l 2
 219 689 197 683 185 673 c 0
 176 664 173 649 173 616 c 0
 173 615 173 593 172 565 c 1
 172 528 l 1
 172 14 l 1
 172 -23 l 1
 173 -53 173 -74 173 -75 c 0
 173 -108 176 -122 185 -131 c 0
 197 -141 219 -147 246 -147 c 2
 284 -147 l 1
 288 -152 l 1
 288 -178 l 1
 282 -184 l 1
 214 -182 209 -182 185 -182 c 0
 161 -182 159 -182 88 -184 c 1
EndSplineSet
EndChar
StartChar: backslash
Encoding: 92 92 61
Width: 606
Flags: W
HStem: 0 21G<453 512>
DStem: 81 726 140 726 453 0 512 0
Fore
81 726 m 1
 140 726 l 1
 512 0 l 1
 453 0 l 1
 81 726 l 1
EndSplineSet
EndChar
StartChar: bracketright
Encoding: 93 93 62
Width: 333
Flags: W
HStem: -182 35<49 148> 689 35<85 148>
VStem: 160 86<-89 633>
Fore
245 726 m 1
 254 713 l 1
 248 689 246 656 246 579 c 0
 246 565 246 552 245 541 c 1
 245 528 l 1
 245 14 l 1
 245 1 l 1
 246 -12 246 -25 246 -39 c 0
 247 -116 248 -147 254 -171 c 1
 245 -184 l 1
 176 -182 171 -182 148 -182 c 0
 123 -182 121 -182 51 -184 c 1
 45 -178 l 1
 45 -152 l 1
 49 -147 l 1
 87 -147 l 2
 114 -147 135 -141 147 -131 c 0
 157 -122 160 -107 160 -73 c 0
 160 -70 160 -52 161 -23 c 1
 161 14 l 1
 161 528 l 1
 161 565 l 1
 160 593 160 613 160 616 c 0
 160 650 157 664 147 673 c 0
 135 683 114 689 87 689 c 2
 49 689 l 1
 45 694 l 1
 45 720 l 1
 51 726 l 1
 119 724 124 724 148 724 c 0
 171 724 174 724 245 726 c 1
EndSplineSet
EndChar
StartChar: asciicircum
Encoding: 94 94 63
Width: 606
Flags: W
DStem: 270 689 303 621 51 283 119 283 303 621 336 689 486 283 554 283
Fore
119 283 m 1
 51 283 l 1
 270 689 l 1
 336 689 l 1
 554 283 l 1
 486 283 l 1
 303 621 l 1
 119 283 l 1
EndSplineSet
EndChar
StartChar: underscore
Encoding: 95 95 64
Width: 500
Flags: W
HStem: -125 50<0 500>
Fore
500 -125 m 1
 0 -125 l 1
 0 -75 l 1
 500 -75 l 1
 500 -125 l 1
EndSplineSet
EndChar
StartChar: quoteleft
Encoding: 96 8216 65
Width: 278
Flags: W
Fore
174 685 m 1
 218 709 l 1
 233 699 l 1
 185 623 161 555 155 476 c 1
 104 461 94 458 58 446 c 1
 45 459 l 1
 79 545 117 612 174 685 c 1
EndSplineSet
KernsSLIF: 65 -128 1 0 225 -132 1 0 257 -128 1 0 256 -128 1 0 262 -128 1 0 84 -11 1 0 86 -6 1 0 87 -5 1 0 89 -6 1 0
EndChar
StartChar: a
Encoding: 97 97 66
Width: 500
Flags: W
HStem: -12 57<158 193> 416 53<188 246>
VStem: 32 86<111 127> 324 80<123 270>
Fore
324 82 m 1
 200 -4 l 2
 193 -9 176 -12 158 -12 c 0
 79 -12 32 33 32 111 c 0
 32 198 89 245 225 270 c 2
 324 288 l 1
 321 379 282 416 188 416 c 0
 142 416 132 409 111 362 c 1
 98 331 l 1
 72 338 l 1
 72 403 l 1
 125 435 l 2
 163 458 203 469 246 469 c 0
 362 469 404 416 404 270 c 2
 404 87 l 2
 404 38 408 30 432 29 c 2
 471 27 l 1
 471 -3 l 1
 427 -1 402 0 397 0 c 0
 384 0 384 0 319 -3 c 1
 324 82 l 1
324 124 m 1
 324 256 l 1
 248 245 193 231 168 216 c 0
 138 197 118 162 118 125 c 0
 118 82 153 45 193 45 c 0
 232 45 295 83 324 124 c 1
EndSplineSet
KernsSLIF: 106 -20 0 0 39 -33 0 0 118 -36 0 0 119 -36 0 0 121 -39 0 0
EndChar
StartChar: b
Encoding: 98 98 67
Width: 553
Flags: W
HStem: -12 51<243 276> 404 65<284 327>
VStem: 66 84<91 310 153 718> 421 87<229 270>
Fore
150 718 m 1
 150 369 l 1
 205 425 l 2
 231 451 280 469 327 469 c 0
 433 469 508 386 508 270 c 0
 508 197 473 114 429 82 c 2
 329 10 l 2
 308 -5 282 -12 243 -12 c 0
 190 -12 154 -2 114 24 c 1
 74 -12 l 1
 58 -6 l 1
 65 64 66 91 66 153 c 2
 66 620 l 2
 66 650 59 661 41 661 c 2
 -15 661 l 1
 -15 689 l 1
 64 701 97 709 141 726 c 1
 150 718 l 1
150 308 m 2
 150 93 l 2
 150 71 224 39 276 39 c 0
 361 39 421 117 421 229 c 0
 421 336 368 404 284 404 c 0
 243 404 204 387 176 358 c 0
 160 340 150 322 150 308 c 2
EndSplineSet
KernsSLIF: 118 -28 0 0 119 -28 0 0 121 -31 0 0
EndChar
StartChar: c
Encoding: 99 99 68
Width: 444
Flags: W
HStem: -20 52<255 298> 417 52<254 297>
VStem: 26 88<210 250>
Fore
399 311 m 1
 371 311 l 1
 364 372 l 1
 346 397 298 417 254 417 c 0
 164 417 114 357 114 250 c 0
 114 118 187 32 298 32 c 0
 334 32 366 41 403 61 c 1
 413 46 l 1
 392 14 l 2
 382 -1 307 -20 255 -20 c 0
 121 -20 26 75 26 210 c 0
 26 298 63 368 133 412 c 0
 193 450 249 469 297 469 c 0
 338 469 373 458 413 434 c 1
 404 398 399 357 399 311 c 1
EndSplineSet
KernsSLIF: 104 10 0 0 107 3 0 0
EndChar
StartChar: d
Encoding: 100 100 69
Width: 611
Flags: W
HStem: -12 57<256 275> 422 47<266 293>
VStem: 35 87<216 249> 412 84<179 718>
Fore
412 437 m 1
 412 620 l 2
 412 650 405 661 387 661 c 2
 331 661 l 1
 331 689 l 1
 410 701 443 709 487 726 c 1
 496 718 l 1
 496 102 l 2
 496 39 499 32 533 30 c 2
 579 27 l 1
 579 -3 l 1
 558 -2 538 -2 531 -1 c 0
 510 0 496 0 488 0 c 0
 476 0 460 -1 411 -3 c 1
 416 89 l 1
 305 -4 l 2
 300 -8 277 -12 257 -12 c 0
 192 -12 145 1 111 30 c 0
 62 70 35 136 35 216 c 0
 35 301 72 374 129 404 c 2
 217 450 l 2
 242 463 266 469 293 469 c 0
 328 469 356 461 412 437 c 1
412 221 m 2
 412 350 l 2
 412 358 400 371 379 385 c 0
 344 409 304 422 266 422 c 0
 176 422 122 358 122 249 c 0
 122 130 185 45 273 45 c 0
 320 45 369 76 397 123 c 0
 410 146 412 156 412 221 c 2
EndSplineSet
EndChar
StartChar: e
Encoding: 101 101 70
Width: 479
Flags: W
HStem: -20 53<250 294> 230 34<201 299> 436 33<245 266>
VStem: 26 95<219 270>
Fore
437 70 m 1
 417 36 l 2
 413 30 392 17 365 6 c 0
 324 -12 287 -20 250 -20 c 0
 175 -20 108 11 68 64 c 0
 41 102 26 156 26 219 c 0
 26 323 59 385 141 432 c 0
 182 456 225 469 262 469 c 0
 374 469 448 394 448 279 c 0
 448 267 447 258 446 244 c 1
 377 233 334 230 265 230 c 2
 119 230 l 1
 121 172 128 144 147 111 c 0
 175 62 229 33 294 33 c 0
 337 33 360 42 424 80 c 1
 437 70 l 1
359 267 m 1
 356 334 349 363 327 396 c 0
 309 423 283 436 250 436 c 0
 202 436 159 409 138 365 c 0
 125 339 121 317 121 270 c 1
 175 265 201 264 247 264 c 0
 283 264 307 265 359 267 c 1
EndSplineSet
KernsSLIF: 39 -6 0 0 116 -3 0 0 118 -12 0 0 119 -12 0 0 120 -8 0 0 121 -15 0 0
EndChar
StartChar: f
Encoding: 102 102 71
Width: 333
Flags: W
HStem: 0 21G<135.5 160.5> 662 66<260 295>
VStem: 106 84<102 385 434 519>
Fore
341 717 m 1
 341 640 l 1
 329 634 l 1
 305 655 287 662 260 662 c 0
 203 662 190 634 190 519 c 2
 190 434 l 1
 321 438 l 1
 314 385 l 1
 190 385 l 1
 190 102 l 2
 190 39 193 32 227 30 c 2
 273 27 l 1
 273 -3 l 1
 173 0 173 0 148 0 c 0
 123 0 123 0 23 -3 c 1
 23 27 l 1
 69 30 l 2
 103 32 106 39 106 102 c 2
 106 385 l 1
 37 381 l 1
 37 403 l 1
 106 434 l 1
 106 476 l 2
 106 542 119 587 148 620 c 2
 206 686 l 2
 228 711 263 728 295 728 c 0
 308 728 320 725 341 717 c 1
EndSplineSet
KernsSLIF: 97 -11 0 0 323 -11 0 0 322 -11 0 0 241 -10 0 0 328 -11 0 0 101 -15 0 0 335 -15 0 0 102 5 0 0 105 14 0 0 106 28 0 0 108 24 0 0 111 -18 0 0 352 -18 0 0 351 -18 0 0 250 -15 0 0 249 -8 0 0 39 -4 0 0 116 12 0 0
EndChar
StartChar: g
Encoding: 103 103 72
Width: 556
Flags: W
HStem: -283 31<234 273> -14 70<232 321> 150 34<234 251> 435 34<240 276>
VStem: 32 76<-140 -122> 55 84<289 313> 354 84<294 324> 439 79<-102 -66>
Fore
519 378 m 1xf7
 427 378 l 1
 435 357 438 344 438 324 c 0
 438 271 416 231 371 198 c 0
 330 169 277 150 234 150 c 0
 226 150 220 151 210 152 c 1
 206 148 204 146 198 141 c 0
 172 119 164 108 164 95 c 0
 164 68 188 56 240 56 c 2
 400 56 l 2
 470 56 518 6 518 -66 c 0
 518 -188 399 -283 248 -283 c 0
 121 -283 32 -220 32 -129 c 0xfb
 32 -98 46 -61 60 -53 c 2
 147 -6 l 1
 99 8 81 24 81 52 c 0
 81 67 86 80 96 95 c 1
 175 156 l 1
 101 164 55 215 55 289 c 0
 55 350 84 399 140 431 c 0
 181 455 232 469 276 469 c 0
 325 469 361 457 398 427 c 1
 540 431 l 1
 544 419 l 1
 519 378 l 1xf7
240 435 m 0
 176 435 139 390 139 313 c 0xf7
 139 236 184 184 251 184 c 0
 312 184 354 229 354 294 c 0
 354 379 308 435 240 435 c 0
287 -14 m 0
 218 -14 190 -16 174 -24 c 0
 134 -41 108 -82 108 -127 c 0xfb
 108 -201 168 -252 255 -252 c 0
 360 -252 439 -188 439 -102 c 0
 439 -37 400 -14 287 -14 c 0
EndSplineSet
KernsSLIF: 97 -13 0 0 322 -13 0 0 241 -14 0 0 328 -13 0 0 101 -19 0 0 335 -19 0 0 108 -5 0 0 352 -23 0 0 351 -23 0 0 114 14 0 0
EndChar
StartChar: h
Encoding: 104 104 73
Width: 582
Flags: W
HStem: 0 21G<115.5 144.5 480.5 496> 408 61<299 327>
VStem: 88 84<102 318 102 718> 410 84<-3 297>
Fore
7 661 m 1
 7 689 l 1
 86 701 119 709 163 726 c 1
 172 718 l 1
 172 378 l 1
 248 444 l 2
 269 462 290 469 327 469 c 0
 439 469 494 412 494 295 c 2
 494 102 l 2
 494 38 497 32 531 30 c 2
 572 27 l 1
 572 -3 l 1
 503 0 503 0 489 0 c 0
 472 0 471 0 410 -3 c 1
 410 281 l 2
 410 358 366 408 299 408 c 0
 238 408 172 359 172 314 c 2
 172 102 l 2
 172 39 175 32 209 30 c 2
 254 27 l 1
 254 -3 l 1
 186 -1 159 0 130 0 c 0
 101 0 74 -1 6 -3 c 1
 6 27 l 1
 51 30 l 2
 85 32 88 39 88 102 c 2
 88 620 l 2
 88 650 81 661 63 661 c 2
 7 661 l 1
EndSplineSet
KernsSLIF: 39 -33 0 0 121 -37 0 0
EndChar
StartChar: i
Encoding: 105 105 74
Width: 291
Flags: W
HStem: 0 21G<133.5 158.5> 400 28<23 31.8333> 576 111<132 150>
VStem: 104 84<102 350>
Fore
188 465 m 1
 188 102 l 2
 188 39 191 32 225 30 c 2
 271 27 l 1
 271 -3 l 1
 171 0 171 0 146 0 c 0
 121 0 121 0 21 -3 c 1
 21 27 l 1
 67 30 l 2
 101 32 104 39 104 102 c 2
 104 327 l 2
 104 393 100 400 60 400 c 2
 23 400 l 1
 23 428 l 1
 76 434 128 448 179 469 c 1
 188 465 l 1
142 687 m 0
 170 687 197 659 197 631 c 0
 197 602 170 576 141 576 c 0
 112 576 86 602 86 631 c 0
 86 661 112 687 142 687 c 0
EndSplineSet
KernsSLIF: 84 -30 0 0 106 -15 0 0
EndChar
StartChar: j
Encoding: 106 106 75
Width: 234
Flags: W
HStem: 400 28<-6 2.83333> 577 111<103 121>
VStem: 75 84<-44 358>
Fore
159 465 m 1
 159 -19 l 6
 159 -98 141 -162 106 -208 c 4
 68 -258 30 -279 -28 -283 c 5
 -40 -245 l 5
 -32 -246 -16 -248 -10 -248 c 4
 11 -248 34 -233 46 -210 c 4
 65 -177 75 -106 75 -7 c 6
 75 327 l 2
 75 393 71 400 31 400 c 2
 -6 400 l 1
 -6 428 l 1
 47 434 99 448 150 469 c 1
 159 465 l 1
112 688 m 0
 141 688 167 662 167 633 c 0
 167 603 141 577 111 577 c 0
 83 577 56 604 56 633 c 0
 56 661 83 688 112 688 c 0
EndSplineSet
EndChar
StartChar: k
Encoding: 107 107 76
Width: 556
Flags: W
HStem: 0 21G<134 161> 429 30<477 511 491.755 510.969>
VStem: 104 84<102 240 102 718>
DStem: 188 240 338 213 453 -12 464 88
Fore
23 661 m 1
 23 689 l 1
 102 701 135 709 179 726 c 1
 188 718 l 1
 188 261 l 1
 261 320 l 2
 300 351 347 395 411 459 c 1
 511 459 l 1
 511 429 l 1
 477 430 450 418 403 382 c 2
 274 281 l 1
 291 261 302 248 338 213 c 2
 464 88 l 2
 496 57 525 40 549 40 c 1
 549 17 l 1
 453 -12 l 1
 188 240 l 1
 188 102 l 2
 188 39 191 32 225 30 c 2
 269 27 l 1
 269 -3 l 1
 180 0 175 0 147 0 c 0
 121 0 121 0 21 -3 c 1
 21 27 l 1
 67 30 l 2
 101 32 104 39 104 102 c 2
 104 620 l 2
 104 650 97 661 79 661 c 2
 23 661 l 1
EndSplineSet
KernsSLIF: 97 4 0 0 323 4 0 0 322 4 0 0 241 7 0 0 328 4 0 0 44 -21 0 0 101 -12 0 0 335 -12 0 0 103 -12 0 0 45 -67 0 0 111 -19 0 0 352 -19 0 0 351 -19 0 0 46 -10 0 0 115 12 0 0
EndChar
StartChar: l
Encoding: 108 108 77
Width: 291
Flags: W
HStem: 0 21G<133.5 158.5>
VStem: 104 84<102 622>
Fore
23 661 m 1
 23 689 l 1
 102 701 135 709 179 726 c 1
 188 718 l 1
 188 102 l 2
 188 39 191 32 225 30 c 2
 271 27 l 1
 271 -3 l 1
 171 0 171 0 146 0 c 0
 121 0 121 0 21 -3 c 1
 21 27 l 1
 67 30 l 2
 101 32 104 39 104 102 c 2
 104 620 l 2
 104 650 97 661 79 661 c 2
 23 661 l 1
EndSplineSet
KernsSLIF: 118 -22 0 0 121 -25 0 0
EndChar
StartChar: m
Encoding: 109 109 78
Width: 883
Flags: W
HStem: 0 21G<129 157 429.5 454.5 771.5 786.5> 400 28<18 26.8333> 408 61<309 335 610 635>
VStem: 99 84<102 318> 400 84<102 302> 701 84<-3 302>
CounterMasks: 1 00
Fore
18 400 m 1xdc
 18 428 l 1xdc
 71 434 123 448 174 469 c 1
 183 465 l 1
 183 380 l 1
 252 444 l 2
 270 460 298 469 335 469 c 0
 404 469 445 442 477 376 c 1
 553 444 l 2
 571 460 600 469 635 469 c 0
 727 469 785 407 785 308 c 2
 785 102 l 2
 785 39 788 32 822 30 c 2
 869 27 l 1
 869 -3 l 1
 793 0 793 0 780 0 c 0
 763 0 762 0 701 -3 c 1
 701 281 l 2
 701 357 664 408 610 408 c 0
 550 408 484 359 484 314 c 2
 484 102 l 2
 484 39 487 32 521 30 c 2
 567 27 l 1
 567 -3 l 1
 467 0 467 0 442 0 c 0
 417 0 417 0 317 -3 c 1
 317 27 l 1
 363 30 l 2
 397 32 400 39 400 102 c 2
 400 281 l 2
 400 357 363 408 309 408 c 0xbc
 249 408 183 359 183 314 c 2
 183 102 l 2
 183 39 186 32 220 30 c 2
 262 27 l 1
 262 -3 l 1
 197 -1 171 0 143 0 c 0
 115 0 112 0 16 -3 c 1
 16 27 l 1
 62 30 l 2
 96 32 99 39 99 102 c 2
 99 327 l 2
 99 393 95 400 55 400 c 2
 18 400 l 1xdc
EndSplineSet
KernsSLIF: 112 -20 0 0 118 -39 0 0 119 -39 0 0 121 -42 0 0
EndChar
StartChar: n
Encoding: 110 110 79
Width: 582
Flags: W
HStem: 0 21G<115.5 144.5 480.5 496> 400 28<7 15.8333> 408 61<299 327>
VStem: 88 84<102 318> 410 84<-3 297>
Fore
410 -3 m 1xb8
 410 281 l 2
 410 358 366 408 299 408 c 0xb8
 238 408 172 359 172 314 c 2
 172 102 l 2
 172 39 175 32 209 30 c 2
 254 27 l 1
 254 -3 l 1
 186 -1 159 0 130 0 c 0
 101 0 74 -1 6 -3 c 1
 6 27 l 1
 51 30 l 2
 85 32 88 39 88 102 c 2
 88 327 l 2
 88 393 84 400 44 400 c 2
 7 400 l 1
 7 428 l 1xd8
 60 434 112 448 163 469 c 1
 172 465 l 1
 172 378 l 1
 248 444 l 2
 269 462 290 469 327 469 c 0
 439 469 494 412 494 295 c 2
 494 102 l 2
 494 38 497 32 531 30 c 2
 572 27 l 1
 572 -3 l 1
 503 0 503 0 489 0 c 0
 472 0 471 0 410 -3 c 1xb8
EndSplineSet
KernsSLIF: 84 -58 0 0 112 -18 0 0 39 -30 0 0 118 -34 0 0 119 -34 0 0 121 -37 0 0
EndChar
StartChar: o
Encoding: 111 111 80
Width: 546
Flags: W
HStem: -20 33<250 289> 436 33<255 279>
VStem: 32 93<217 251> 421 93<200 237>
Fore
279 469 m 0
 416 469 514 372 514 237 c 0
 514 87 404 -20 250 -20 c 0
 121 -20 32 76 32 217 c 0
 32 366 133 469 279 469 c 0
261 436 m 0
 173 436 125 371 125 251 c 0
 125 109 191 13 289 13 c 0
 370 13 421 85 421 200 c 0
 421 336 353 436 261 436 c 0
EndSplineSet
KernsSLIF: 84 -99 0 0 39 -18 0 0 116 -13 0 0 118 -27 0 0 119 -27 0 0 120 -31 0 0 121 -30 0 0
EndChar
StartChar: p
Encoding: 112 112 81
Width: 601
Flags: W
HStem: -12 51<282 310> 400 28<10 18.8333> 404 65<313 346>
VStem: 91 84<-176 13 -176 312> 467 87<234 271>
Fore
10 400 m 1xd8
 10 428 l 1xd8
 63 434 115 448 166 469 c 1
 175 465 l 1
 175 369 l 1
 257 444 l 2
 273 459 309 469 346 469 c 0xb8
 462 469 554 382 554 271 c 0
 554 207 507 104 467 78 c 2
 353 4 l 2
 337 -6 311 -12 282 -12 c 0
 237 -12 205 -5 175 13 c 1
 175 -176 l 2
 175 -239 178 -246 212 -248 c 2
 258 -251 l 1
 258 -281 l 1
 158 -278 158 -278 133 -278 c 0
 108 -278 108 -278 8 -281 c 1
 8 -251 l 1
 54 -248 l 2
 88 -246 91 -239 91 -176 c 2
 91 327 l 2
 91 393 87 400 47 400 c 2
 10 400 l 1xd8
175 306 m 2
 175 98 l 1
 214 57 255 39 310 39 c 0
 400 39 467 122 467 234 c 0
 467 338 407 404 313 404 c 0xb8
 263 404 222 385 193 348 c 0
 180 331 175 320 175 306 c 2
EndSplineSet
KernsSLIF: 116 -19 0 0 121 -40 0 0
EndChar
StartChar: q
Encoding: 113 113 82
Width: 560
Flags: W
HStem: -12 57<238 271> 422 47<274 297>
VStem: 35 87<204 248> 393 84<-176 65 118 344>
Fore
393 66 m 1
 289 0 l 2
 276 -8 259 -12 238 -12 c 0
 114 -12 35 73 35 204 c 0
 35 291 68 357 132 398 c 2
 216 452 l 2
 231 461 266 469 295 469 c 0
 338 469 381 459 432 436 c 1
 481 467 l 1
 500 456 l 1
 483 418 477 380 477 318 c 2
 477 -176 l 2
 477 -239 480 -246 514 -248 c 2
 560 -251 l 1
 560 -281 l 1
 489 -279 461 -278 437 -278 c 0
 414 -278 414 -278 298 -281 c 1
 298 -251 l 1
 356 -248 l 2
 389 -246 393 -239 393 -176 c 2
 393 66 l 1
393 120 m 2
 393 381 l 1
 358 410 323 422 274 422 c 0
 178 422 122 358 122 248 c 0
 122 127 183 45 271 45 c 0
 295 45 318 52 342 65 c 0
 369 80 393 106 393 120 c 2
EndSplineSet
KernsSLIF: 99 -10 0 0 117 -10 0 0
EndChar
StartChar: r
Encoding: 114 114 83
Width: 395
Flags: W
HStem: 0 21G<131.5 154> 384 85<277 327> 400 28<23 31.8333>
VStem: 104 84<102 286 327 465>
Fore
23 400 m 1xb0
 23 428 l 1xb0
 76 434 128 448 179 469 c 1xd0
 188 465 l 1
 188 362 l 1
 244 428 l 2xb0
 265 453 297 469 327 469 c 0
 345 469 363 465 374 458 c 1
 365 338 l 1
 344 338 l 1
 328 370 307 384 277 384 c 0xd0
 228 384 188 334 188 274 c 2
 188 102 l 2
 188 36 190 33 235 30 c 2
 287 27 l 1
 287 -3 l 1
 164 0 164 0 144 0 c 0
 119 0 93 -1 21 -3 c 1
 21 27 l 1
 67 30 l 2
 101 32 104 39 104 102 c 2
 104 327 l 2
 104 393 100 400 60 400 c 2
 23 400 l 1xb0
EndSplineSet
KernsSLIF: 97 -16 0 0 323 -16 0 0 325 -16 0 0 322 -16 0 0 241 -15 0 0 324 -16 0 0 328 -16 0 0 99 -10 0 0 332 -8 0 0 58 -18 0 0 44 -71 0 0 100 -14 0 0 101 -5 0 0 335 -5 0 0 337 -5 0 0 336 -5 0 0 102 1 0 0 103 -12 0 0 104 -22 0 0 45 -30 0 0 105 9 0 0 106 23 0 0 107 -30 0 0 108 -30 0 0 109 11 0 0 110 17 0 0 111 -9 0 0 352 -9 0 0 354 -9 0 0 351 -9 0 0 250 -8 0 0 353 -9 0 0 249 -12 0 0 112 15 0 0 46 -62 0 0 113 -17 0 0 39 9 0 0 114 9 0 0 115 -1 0 0 59 -32 0 0 116 8 0 0 117 11 0 0 118 18 0 0 119 18 0 0 120 11 0 0 121 15 0 0 122 -12 0 0
EndChar
StartChar: s
Encoding: 115 115 84
Width: 424
Flags: W
HStem: -20 37<167 196> 436 33<197 224>
VStem: 37 70<324 358> 41 30<91 143> 317 74<109 148> 321 28<331 365>
Fore
41 143 m 1xd8
 71 143 l 1
 71 102 l 2
 71 52 123 17 196 17 c 0
 267 17 317 55 317 109 c 0xd8
 317 147 298 168 253 178 c 0
 185 193 132 209 105 221 c 0
 59 242 37 276 37 324 c 0
 37 414 108 469 224 469 c 0
 265 469 301 462 354 444 c 1
 351 413 350 389 349 331 c 1
 321 331 l 1
 321 354 l 2
 321 401 270 436 203 436 c 0
 142 436 107 408 107 358 c 0xe4
 107 312 134 292 216 276 c 0
 304 259 337 247 363 222 c 1
 382 202 391 179 391 148 c 0
 391 50 298 -20 167 -20 c 0
 121 -20 82 -13 30 4 c 1
 38 44 41 74 41 143 c 1xd8
EndSplineSet
KernsSLIF: 39 -16 0 0 116 -15 0 0
EndChar
StartChar: t
Encoding: 116 116 85
Width: 326
Flags: W
HStem: -12 63<208 237>
VStem: 98 84<94 382 433 506>
Fore
98 382 m 1
 22 378 l 1
 22 399 l 1
 100 434 l 1
 100 504 l 2
 100 534 99 553 96 583 c 1
 127 593 157 606 181 621 c 1
 193 610 l 1
 185 546 182 510 182 468 c 2
 182 430 l 1
 319 436 l 1
 310 382 l 1
 182 382 l 1
 182 120 l 2
 182 71 198 51 237 51 c 0
 256 51 271 56 296 70 c 1
 309 53 l 1
 261 0 l 2
 255 -7 231 -12 208 -12 c 0
 131 -12 98 20 98 94 c 2
 98 382 l 1
EndSplineSet
KernsSLIF: 83 8 0 0 97 3 0 0 323 3 0 0 322 3 0 0 241 5 0 0 328 3 0 0 58 -10 0 0 101 -9 0 0 335 -9 0 0 104 13 0 0 111 -13 0 0 352 -13 0 0 351 -13 0 0 39 -3 0 0 59 -24 0 0
EndChar
StartChar: u
Encoding: 117 117 86
Width: 603
Flags: W
HStem: -12 61<240 283> 400 28<18 26.8333 338 346.833>
VStem: 99 84<147 357> 419 84<67 102 157 465>
Fore
503 465 m 1
 503 102 l 2
 503 38 506 32 540 30 c 2
 581 27 l 1
 581 -3 l 1
 512 0 512 0 498 0 c 0
 483 0 482 0 415 -3 c 1
 418 44 419 60 419 89 c 1
 352 27 l 2
 325 2 285 -12 240 -12 c 0
 183 -12 145 3 123 33 c 0
 105 58 99 89 99 159 c 2
 99 327 l 2
 99 393 95 400 55 400 c 2
 18 400 l 1
 18 428 l 1
 71 434 123 448 174 469 c 1
 183 465 l 1
 183 170 l 2
 183 126 190 95 204 79 c 0
 220 60 248 49 283 49 c 0
 322 49 354 63 382 91 c 0
 405 114 419 142 419 164 c 2
 419 327 l 2
 419 393 415 400 375 400 c 2
 338 400 l 1
 338 428 l 1
 391 434 443 448 494 469 c 1
 503 465 l 1
EndSplineSet
KernsSLIF: 39 -22 0 0
EndChar
StartChar: v
Encoding: 118 118 87
Width: 565
Flags: W
HStem: -7 21G<243 293>
DStem: 71 396 174 372 243 -7 293 84
Fore
539 431 m 1
 508 429 l 2
 488 427 474 409 452 362 c 1
 334 102 l 1
 333 102 320 68 309 38 c 0
 309 36 299 10 293 -7 c 1
 243 -7 l 1
 71 396 l 2
 60 421 55 427 40 429 c 2
 6 431 l 1
 6 459 l 1
 55 457 103 456 122 456 c 0
 141 456 141 456 239 459 c 1
 239 431 l 1
 190 429 l 2
 174 428 165 421 165 410 c 0
 165 399 168 386 174 372 c 2
 293 84 l 1
 331 167 343 195 355 224 c 1
 397 330 l 2
 409 360 416 387 416 403 c 0
 416 419 408 428 392 429 c 2
 351 431 l 1
 351 459 l 1
 411 457 429 456 445 456 c 0
 461 456 479 457 539 459 c 1
 539 431 l 1
EndSplineSet
KernsSLIF: 97 -32 0 0 323 -32 0 0 325 -32 0 0 322 -32 0 0 241 -36 0 0 324 -32 0 0 328 -32 0 0 327 -32 0 0 99 -52 0 0 58 -20 0 0 44 -111 0 0 101 -42 0 0 335 -42 0 0 337 -42 0 0 336 -42 0 0 103 -41 0 0 45 -35 0 0 108 -33 0 0 111 -40 0 0 352 -40 0 0 351 -40 0 0 353 -40 0 0 249 -45 0 0 46 -97 0 0 115 -17 0 0 59 -35 0 0
EndChar
StartChar: w
Encoding: 119 119 88
Width: 834
Flags: W
HStem: -7 21G<202 249 535 581>
DStem: 100 329 170 380 202 -7 254 104 399 335 465 388 535 -7 580 98 413 469 399 335 254 104 379 293 413 469 347 223 254 104 249 -7
Fore
413 469 m 1
 436 469 l 1
 444 442 451 422 465 388 c 1
 580 98 l 1
 612 180 620 200 628 222 c 2
 678 362 l 2
 683 375 685 387 685 398 c 0
 685 416 671 428 646 429 c 2
 612 431 l 1
 612 459 l 1
 694 456 694 456 710 456 c 0
 726 456 726 456 808 459 c 1
 808 431 l 1
 782 429 l 2
 760 426 748 409 718 342 c 1
 650 186 l 1
 646 180 624 118 604 59 c 2
 581 -7 l 1
 535 -7 l 1
 399 335 l 1
 379 293 l 2
 363 259 352 235 347 223 c 2
 249 -7 l 1
 202 -7 l 1
 100 329 l 1
 75 407 62 427 34 429 c 2
 6 431 l 1
 6 459 l 1
 105 456 105 456 125 456 c 0
 145 456 145 456 244 459 c 1
 244 431 l 1
 204 429 l 2
 179 428 166 420 166 405 c 0
 166 397 167 389 170 380 c 2
 254 104 l 1
 413 469 l 1
EndSplineSet
KernsSLIF: 97 -32 0 0 323 -32 0 0 325 -32 0 0 322 -32 0 0 241 -36 0 0 324 -32 0 0 328 -32 0 0 327 -32 0 0 99 -49 0 0 58 -20 0 0 44 -103 0 0 101 -42 0 0 335 -42 0 0 337 -42 0 0 336 -42 0 0 103 -41 0 0 45 -31 0 0 108 -33 0 0 111 -40 0 0 352 -40 0 0 351 -40 0 0 353 -40 0 0 249 -45 0 0 46 -89 0 0 115 -17 0 0 59 -35 0 0
EndChar
StartChar: x
Encoding: 120 120 89
Width: 516
Flags: W
HStem: 0 27<20 106> 431 28<396 478>
DStem: 96 392 196 400 216 218 272 284 216 218 240 192 67 42 166 94
Fore
288 254 m 1
 436 54 l 2
 447 39 459 31 471 30 c 2
 496 27 l 1
 496 -3 l 1
 444 0 444 0 434 0 c 0
 425 0 425 0 373 -3 c 1
 365 4 357 14 348 28 c 2
 347 30 l 1
 240 192 l 1
 166 94 l 1
 159 86 143 61 127 33 c 1
 106 0 l 1
 20 0 l 1
 20 27 l 1
 37 27 l 2
 47 27 60 33 67 42 c 2
 216 218 l 1
 96 392 l 2
 86 406 64 420 46 421 c 2
 25 423 l 1
 20 449 l 1
 136 469 l 1
 170 435 181 422 196 400 c 2
 272 284 l 1
 396 459 l 1
 478 459 l 1
 478 431 l 1
 464 431 l 2
 447 431 436 427 430 420 c 2
 288 254 l 1
EndSplineSet
KernsSLIF: 97 -5 0 0 99 -27 0 0 101 -24 0 0 335 -24 0 0 111 -30 0 0 113 -28 0 0
EndChar
StartChar: y
Encoding: 121 121 90
Width: 556
Flags: W
HStem: -283 67<81 115>
DStem: 82 380 182 364 191 118 246 196
Fore
297 86 m 1
 416 378 l 2
 420 388 422 397 422 404 c 0
 422 418 408 427 380 429 c 2
 354 431 l 1
 354 459 l 1
 433 456 433 456 449 456 c 0
 465 456 465 456 544 459 c 1
 544 431 l 1
 516 429 l 2
 491 426 472 399 432 308 c 1
 229 -160 l 2
 191 -247 148 -283 81 -283 c 0
 62 -283 46 -278 27 -268 c 1
 51 -193 l 1
 64 -193 l 1
 81 -208 99 -216 115 -216 c 0
 153 -216 192 -169 224 -85 c 2
 247 -24 l 1
 229 26 219 50 191 118 c 2
 82 380 l 2
 67 415 55 426 30 429 c 2
 12 431 l 1
 12 459 l 1
 109 456 109 456 128 456 c 0
 147 456 147 456 244 459 c 1
 244 431 l 1
 206 429 l 2
 183 428 172 420 172 406 c 0
 172 396 176 381 182 364 c 1
 246 196 l 1
 264 147 275 124 297 86 c 1
EndSplineSet
KernsSLIF: 97 -25 0 0 323 -25 0 0 325 -25 0 0 322 -25 0 0 241 -29 0 0 324 -25 0 0 328 -25 0 0 327 -25 0 0 99 -45 0 0 58 -13 0 0 44 -104 0 0 101 -35 0 0 335 -35 0 0 337 -35 0 0 336 -35 0 0 103 -34 0 0 45 -28 0 0 108 -26 0 0 111 -33 0 0 352 -33 0 0 351 -33 0 0 353 -33 0 0 249 -38 0 0 46 -90 0 0 115 -10 0 0 59 -28 0 0
EndChar
StartChar: z
Encoding: 122 122 91
Width: 500
Flags: W
HStem: -3 38<141 451> 0 35<141 176> 424 35<154.139 197.937 198 341>
DStem: 276 334 455 432 106 122 141 35 436 139 466 139 418 60 460 92
Fore
455 432 m 1xa0
 141 35 l 1
 276 35 l 2
 372 35 414 42 418 60 c 2
 436 139 l 1
 466 139 l 1
 460 92 l 1
 453 44 451 20 451 -3 c 1xa0
 175 0 l 2x60
 132 0 126 0 22 -3 c 1
 16 17 l 1
 106 122 l 1
 276 334 l 2
 303 368 320 391 341 424 c 1
 198 424 l 2
 124 424 106 419 102 398 c 1
 90 330 l 1
 60 330 l 1
 66 399 67 411 69 462 c 1
 317 459 l 2
 355 459 385 460 455 462 c 1
 455 432 l 1xa0
EndSplineSet
EndChar
StartChar: braceleft
Encoding: 123 123 92
Width: 333
Flags: W
VStem: 134 72<-48 162 384 598>
Fore
206 595 m 2
 206 409 l 2
 206 321 188 293 122 273 c 1
 190 252 206 225 206 128 c 2
 206 -45 l 2
 206 -124 228 -158 289 -175 c 1
 224 -174 194 -167 172 -148 c 0
 146 -125 134 -86 134 -17 c 2
 134 151 l 2
 134 231 120 253 58 273 c 1
 117 293 134 320 134 392 c 2
 134 578 l 2
 134 639 147 677 175 700 c 0
 198 718 228 725 289 726 c 1
 226 705 206 674 206 595 c 2
EndSplineSet
EndChar
StartChar: bar
Encoding: 124 124 93
Width: 606
Flags: W
HStem: 0 21G<275 331>
VStem: 275 56<0 726>
Fore
275 0 m 1
 275 726 l 1
 331 726 l 1
 331 0 l 1
 275 0 l 1
EndSplineSet
EndChar
StartChar: braceright
Encoding: 125 125 94
Width: 333
Flags: W
VStem: 127 72<-48 162 384 598>
Fore
199 151 m 2
 199 -17 l 2
 199 -87 187 -128 158 -150 c 1
 137 -168 107 -174 44 -175 c 1
 105 -158 127 -124 127 -45 c 2
 127 128 l 2
 127 225 143 252 211 273 c 1
 145 293 127 321 127 409 c 2
 127 595 l 2
 127 673 107 705 44 726 c 1
 107 725 137 717 161 698 c 1
 187 675 199 637 199 578 c 2
 199 392 l 2
 199 320 216 293 275 273 c 1
 213 253 199 231 199 151 c 2
EndSplineSet
EndChar
StartChar: asciitilde
Encoding: 126 126 95
Width: 606
Flags: W
HStem: 201 56<403.316 419> 272 57<178 196>
Fore
521 341 m 1
 555 314 l 1
 512 236 468 201 417 201 c 0
 391 201 363 210 287 242 c 0
 224 269 215 272 191 272 c 0
 151 272 125 250 85 182 c 1
 51 209 l 1
 100 296 139 329 190 329 c 0
 220 329 247 321 318 290 c 0
 379 263 397 257 416 257 c 0
 453 257 490 286 521 341 c 1
EndSplineSet
EndChar
StartChar: exclamdown
Encoding: 161 161 96
Width: 278
Flags: W
HStem: 353 116<128 147>
VStem: 117 38<221 264>
Fore
115 -225 m 1
 81 -225 l 1
 81 -200 l 2
 81 -176 83 -153 88 -105 c 0
 91 -79 92 -68 93 -57 c 2
 117 221 l 1
 117 246 l 1
 145 269 l 1
 155 264 l 1
 155 251 155 249 157 224 c 1
 183 -81 l 1
 185 -109 187 -137 190 -187 c 1
 115 -225 l 1
138 469 m 0
 169 469 197 441 197 410 c 0
 197 380 169 353 137 353 c 0
 108 353 81 381 81 411 c 0
 81 441 108 469 138 469 c 0
EndSplineSet
EndChar
StartChar: cent
Encoding: 162 162 97
Width: 500
Flags: W
HStem: -14 50<283 326> 424 46<270 325>
VStem: 61 89<222 251>
DStem: 184 3 221 -9 152 -101 193 -101 309 419 347 411 208 84 241 58 352 562 392 562 325 470 365 470
Fore
347 411 m 1
 241 58 l 1
 271 42 294 36 326 36 c 0
 360 36 390 44 439 64 c 1
 448 53 l 1
 428 20 l 1
 377 -4 336 -14 283 -14 c 0
 261 -14 246 -13 221 -9 c 1
 193 -101 l 1
 152 -101 l 1
 184 3 l 1
 142 25 122 42 100 74 c 0
 75 111 61 163 61 222 c 0
 61 317 95 382 163 416 c 2
 243 456 l 2
 261 465 287 470 325 470 c 1
 352 562 l 1
 392 562 l 1
 365 470 l 1
 391 469 418 460 445 444 c 1
 437 395 434 360 434 314 c 1
 406 314 l 1
 397 380 l 1
 384 394 372 401 347 411 c 1
208 84 m 1
 309 419 l 1
 284 423 277 424 270 424 c 0
 194 424 150 360 150 251 c 0
 150 217 155 185 164 156 c 0
 174 124 183 110 208 84 c 1
EndSplineSet
EndChar
StartChar: sterling
Encoding: 163 163 98
Width: 500
Flags: W
HStem: -10 79<385 420> 647 47<338 380>
VStem: 108 84<355 468> 436 32<532 566>
Fore
374 360 m 1
 370 312 l 1
 274 315 257 316 189 317 c 1
 184 230 157 158 95 69 c 1
 132 74 172 76 228 76 c 0
 243 76 359 71 385 70 c 0
 395 69 402 69 408 69 c 0
 427 69 433 77 437 106 c 2
 444 158 l 1
 470 158 l 1
 470 10 l 1
 449 -7 441 -10 420 -10 c 0
 360 -10 297 -3 241 9 c 0
 185 22 144 28 79 32 c 1
 34 -13 l 1
 12 -13 l 1
 12 36 l 1
 21 45 35 55 50 63 c 0
 65 70 67 72 74 86 c 0
 94 126 108 207 108 286 c 2
 108 316 l 1
 12 313 l 1
 20 358 l 1
 63 357 69 357 108 355 c 1
 108 461 l 2
 108 526 141 581 207 629 c 0
 270 674 323 694 380 694 c 0
 421 694 444 688 478 668 c 1
 471 633 468 598 468 566 c 0
 468 558 468 547 469 532 c 1
 436 532 l 1
 435 590 429 611 409 627 c 0
 392 640 367 647 338 647 c 0
 278 647 241 624 216 573 c 0
 200 539 192 494 192 443 c 2
 192 354 l 1
 374 360 l 1
EndSplineSet
EndChar
StartChar: fraction
Encoding: 164 8260 99
Width: 167
Flags: W
HStem: 0 21G<-166 -114>
DStem: 285 689 337 689 -166 0 -114 0
Fore
-114 0 m 1
 -166 0 l 1
 285 689 l 1
 337 689 l 1
 -114 0 l 1
EndSplineSet
EndChar
StartChar: yen
Encoding: 165 165 100
Width: 500
Flags: W
HStem: 0 21G<232 279> 207 39<71 227 300 456> 343 39<71 200 334 456> 674 20G<426 496>
VStem: 227 73<120 206 246 278>
DStem: 349 504 366 450 279 341 334 382
Fore
334 382 m 1
 456 382 l 1
 456 343 l 1
 317 343 l 1
 304 314 300 297 300 278 c 2
 300 246 l 1
 456 246 l 1
 456 207 l 1
 300 207 l 1
 300 120 l 2
 300 42 304 33 344 30 c 2
 385 27 l 1
 385 -3 l 1
 334 -1 303 0 255 0 c 0
 209 0 183 -1 142 -3 c 1
 142 27 l 1
 183 30 l 2
 223 33 227 42 227 120 c 2
 227 207 l 1
 71 207 l 1
 71 246 l 1
 227 246 l 1
 227 262 l 2
 227 276 226 281 221 293 c 2
 200 343 l 1
 71 343 l 1
 71 382 l 1
 182 382 l 1
 107 542 l 2
 65 633 47 652 5 650 c 1
 5 679 l 1
 97 700 l 2
 100 701 103 701 107 701 c 0
 133 701 146 684 167 625 c 0
 172 609 174 605 175 602 c 2
 279 341 l 1
 349 504 l 2
 387 593 391 602 426 694 c 1
 496 694 l 1
 496 679 l 1
 453 619 410 543 366 450 c 2
 334 382 l 1
EndSplineSet
EndChar
StartChar: florin
Encoding: 166 402 101
Width: 500
Flags: W
HStem: -262 76<0 72>
DStem: 225 364 311 364 145 -52 239 16
Fore
311 364 m 1
 239 16 l 2
 201 -167 120 -261 0 -262 c 1
 8 -227 11 -205 15 -173 c 1
 26 -166 l 1
 40 -180 54 -186 72 -186 c 0
 109 -186 125 -156 145 -52 c 2
 225 364 l 1
 171 361 153 360 117 359 c 1
 127 412 l 1
 234 408 l 1
 276 602 355 701 473 706 c 1
 465 677 462 655 459 614 c 1
 449 606 l 1
 446 608 445 608 441 612 c 0
 426 625 415 630 400 630 c 0
 370 630 357 613 347 558 c 2
 320 408 l 1
 425 412 l 1
 420 383 418 373 416 358 c 1
 382 361 356 363 311 364 c 1
EndSplineSet
EndChar
StartChar: section
Encoding: 167 167 102
Width: 500
Flags: W
HStem: -219 52<201 231> -38 20G<56 88> 657 52<246 283>
VStem: 26 66<243 282> 51 58<485 537> 384 63<-47 7> 399 66<213 253>
Fore
403 521 m 1xe8
 372 521 l 1
 367 608 l 1
 325 644 293 657 246 657 c 0
 166 657 109 607 109 537 c 0
 109 506 121 484 150 465 c 1
 173 448 196 439 287 410 c 0
 420 367 465 327 465 253 c 0xea
 465 200 442 158 387 111 c 1
 429 88 447 57 447 7 c 0
 447 -107 326 -219 201 -219 c 0
 149 -219 96 -204 44 -175 c 1
 51 -111 54 -74 56 -18 c 1
 88 -18 l 1
 93 -108 l 1
 134 -152 169 -167 231 -167 c 0
 324 -167 384 -120 384 -47 c 0
 384 -12 369 14 338 36 c 0
 314 53 288 63 205 90 c 0
 124 116 94 131 62 159 c 0
 40 178 26 210 26 243 c 0xf4
 26 296 53 341 109 382 c 1
 70 411 51 446 51 485 c 0
 51 606 158 709 283 709 c 0
 332 709 371 698 416 673 c 1
 408 616 405 578 403 521 c 1xe8
135 369 m 1
 104 341 92 316 92 282 c 0xf2
 92 229 141 195 281 153 c 0
 329 138 340 134 365 123 c 1
 390 162 399 186 399 213 c 0
 399 244 383 271 353 290 c 0
 324 308 294 319 225 339 c 0
 173 354 163 358 135 369 c 1
EndSplineSet
EndChar
StartChar: currency
Encoding: 168 164 103
Width: 500
Flags: W
HStem: 102 59<250 256> 465 59<237 255>
VStem: 37 59<303 321> 404 59<313 321>
DStem: 30 484 77 531 79 435 125 483 79 190 123 144 30 141 75 96 377 144 421 190 425 96 470 141 423 531 470 484 375 483 421 435
Fore
77 531 m 1
 125 483 l 1
 162 511 202 524 250 524 c 0
 298 524 337 511 375 483 c 1
 423 531 l 1
 470 484 l 1
 421 435 l 1
 451 401 463 365 463 313 c 0
 463 263 451 228 421 190 c 1
 470 141 l 1
 425 96 l 1
 377 144 l 1
 340 114 303 102 250 102 c 0
 197 102 160 114 123 144 c 1
 75 96 l 1
 30 141 l 1
 79 190 l 1
 49 228 37 263 37 313 c 0
 37 365 49 401 79 435 c 1
 30 484 l 1
 77 531 l 1
253 465 m 0
 166 465 96 397 96 314 c 0
 96 229 165 161 250 161 c 0
 335 161 404 229 404 313 c 0
 404 395 334 465 253 465 c 0
EndSplineSet
EndChar
StartChar: quotesingle
Encoding: 169 39 104
Width: 208
Flags: W
HStem: 689 20G<93.5 114.5>
Fore
114 469 m 1
 94 469 l 1
 61 665 l 1
 61 670 l 2
 61 689 83 709 104 709 c 0
 125 709 147 689 147 671 c 0
 147 669 147 667 146 665 c 1
 114 469 l 1
EndSplineSet
EndChar
StartChar: quotedblleft
Encoding: 170 8220 105
Width: 500
Flags: W
Fore
180 685 m 1
 224 709 l 1
 239 699 l 1
 191 623 167 555 161 476 c 1
 110 461 100 458 64 446 c 1
 51 459 l 1
 85 545 123 612 180 685 c 1
390 685 m 1
 434 709 l 1
 449 699 l 1
 401 623 377 555 371 476 c 1
 320 461 310 458 274 446 c 1
 261 459 l 1
 295 545 333 612 390 685 c 1
EndSplineSet
KernsSLIF: 65 -131 1 0 225 -135 1 0 257 -131 1 0 256 -131 1 0 262 -131 1 0 84 -14 1 0 86 -9 1 0 87 -8 1 0 89 -9 1 0
EndChar
StartChar: guillemotleft
Encoding: 171 171 106
Width: 500
Flags: W
Fore
130 248 m 1
 249 86 l 1
 226 71 l 1
 50 242 l 1
 50 254 l 1
 226 428 l 1
 249 415 l 1
 130 248 l 1
331 248 m 1
 450 86 l 1
 427 71 l 1
 251 242 l 1
 251 254 l 1
 427 428 l 1
 450 415 l 1
 331 248 l 1
EndSplineSet
EndChar
StartChar: guilsinglleft
Encoding: 172 8249 107
Width: 331
Flags: W
Fore
146 248 m 1
 265 86 l 1
 242 71 l 1
 66 242 l 1
 66 254 l 1
 242 428 l 1
 265 415 l 1
 146 248 l 1
EndSplineSet
EndChar
StartChar: guilsinglright
Encoding: 173 8250 108
Width: 331
Flags: W
Fore
66 86 m 1
 185 248 l 1
 66 415 l 1
 89 428 l 1
 265 254 l 1
 265 242 l 1
 89 71 l 1
 66 86 l 1
EndSplineSet
KernsSLIF: 65 -94 1 0 225 -87 1 0 257 -94 1 0 256 -94 1 0 262 -94 1 0 84 -134 1 0 86 -123 1 0 87 -89 1 0 89 -147 1 0
EndChar
StartChar: fi
Encoding: 174 64257 109
Width: 605
Flags: W
HStem: 0 21G<136 161 449.5 474.5> 398 28<339 347.429> 576 111<460 472> 662 66<260 295>
VStem: 106 84<102 385 434 519> 420 84<102 350>
Fore
341 717 m 1xdc
 341 640 l 1
 329 634 l 1
 305 655 287 662 260 662 c 0
 203 662 190 634 190 519 c 2
 190 434 l 1
 311 438 l 1
 304 385 l 1
 190 385 l 1
 190 102 l 2
 190 39 193 32 227 30 c 2
 279 27 l 1
 279 -3 l 1
 201 -1 173 0 149 0 c 0
 123 0 123 0 23 -3 c 1
 23 27 l 1
 69 30 l 2
 103 32 106 39 106 102 c 2
 106 385 l 1
 37 381 l 1
 37 403 l 1
 106 434 l 1
 106 476 l 2
 106 542 119 587 148 620 c 2
 206 686 l 2
 228 711 263 728 295 728 c 0
 308 728 320 725 341 717 c 1xdc
504 462 m 1
 504 102 l 2
 504 39 507 32 541 30 c 2
 587 27 l 1
 587 -3 l 1
 487 0 487 0 462 0 c 0
 437 0 437 0 337 -3 c 1
 337 27 l 1
 383 30 l 2
 417 32 420 39 420 102 c 2
 420 325 l 2
 420 391 416 398 376 398 c 2
 339 398 l 1
 339 426 l 1
 398 433 451 447 495 469 c 1
 504 462 l 1
467 687 m 0xec
 495 687 522 659 522 631 c 0
 522 602 495 576 466 576 c 0
 437 576 411 602 411 631 c 0
 411 661 437 687 467 687 c 0xec
EndSplineSet
LCarets: 0 65535 '    ' 1 0 
Ligature: 0 0 'liga' f i
EndChar
StartChar: fl
Encoding: 175 64258 110
Width: 608
Flags: W
HStem: 0 21G<136 161 452.5 477.5> 662 66<259 294>
VStem: 106 84<102 385 434 519> 423 84<102 622>
Fore
356 661 m 1
 356 640 l 1
 334 634 l 1
 304 655 285 662 259 662 c 0
 203 662 190 634 190 519 c 2
 190 434 l 1
 321 438 l 1
 314 385 l 1
 190 385 l 1
 190 102 l 2
 190 39 193 32 227 30 c 2
 279 27 l 1
 279 -3 l 1
 201 -1 173 0 149 0 c 0
 123 0 123 0 23 -3 c 1
 23 27 l 1
 69 30 l 2
 103 32 106 39 106 102 c 2
 106 385 l 1
 37 381 l 1
 37 403 l 1
 106 434 l 1
 106 476 l 2
 106 542 119 587 148 620 c 2
 206 686 l 2
 228 711 263 728 294 728 c 0
 304 728 313 726 334 722 c 0
 344 720 345 719 356 717 c 1
 356 689 l 1
 423 703 456 711 498 726 c 1
 507 716 l 1
 507 102 l 2
 507 39 510 32 544 30 c 2
 590 27 l 1
 590 -3 l 1
 490 0 490 0 465 0 c 0
 440 0 440 0 340 -3 c 1
 340 27 l 1
 386 30 l 2
 420 32 423 39 423 102 c 2
 423 606 l 2
 423 642 414 661 398 661 c 2
 356 661 l 1
EndSplineSet
LCarets: 0 65535 '    ' 1 0 
Ligature: 0 0 'liga' f l
EndChar
StartChar: endash
Encoding: 177 8211 111
Width: 500
Flags: W
HStem: 219 58<0 500>
Fore
500 219 m 1
 0 219 l 1
 0 277 l 1
 500 277 l 1
 500 219 l 1
EndSplineSet
EndChar
StartChar: dagger
Encoding: 178 8224 112
Width: 500
Flags: W
HStem: -1 21G<245.5 255> 397 63<153 213 287 346> 671 20G<246.5 254>
VStem: 213 74<136.105 396 460 540>
DStem: 461 467 461 467 346 460 466 462
Fore
39 467 m 1
 58 467 l 2
 64 467 78 466 98 463 c 0
 117 461 135 460 154 460 c 2
 213 460 l 1
 213 512 l 2
 213 544 211 572 204 648 c 1
 202 667 l 1
 200 689 l 1
 205 694 l 1
 236 691 243 691 250 691 c 0
 258 691 264 691 295 694 c 1
 300 689 l 1
 298 667 l 1
 297 655 l 1
 290 593 287 545 287 512 c 2
 287 460 l 1
 346 460 l 1
 461 467 l 1
 466 462 l 1
 464 447 463 440 463 428 c 0
 463 417 464 410 466 395 c 1
 461 391 l 1
 442 391 l 2
 436 391 421 392 397 394 c 0
 381 396 360 397 346 397 c 2
 287 397 l 1
 287 319 l 2
 287 166 289 95 294 26 c 1
 296 0 l 1
 291 -5 l 1
 268 -2 260 -1 250 -1 c 0
 241 -1 233 -2 209 -5 c 1
 204 0 l 1
 206 26 l 2
 211 93 213 170 213 319 c 2
 213 397 l 1
 154 397 l 1
 39 390 l 1
 34 395 l 1
 36 410 37 417 37 428 c 0
 37 439 36 446 34 462 c 1
 39 467 l 1
EndSplineSet
EndChar
StartChar: daggerdbl
Encoding: 179 8225 113
Width: 500
Flags: W
HStem: -38 63<138 213 287 387> 420 63<138 213 287 387> 671 20G<246.5 254>
VStem: 213 74<-85 -39 25 89.7487 420 420 483 552> 213 85<-225 -85>
Fore
34 485 m 1xf0
 39 490 l 1
 63 488 72 487 86 486 c 0
 114 484 123 483 138 483 c 2
 213 483 l 1
 213 530 l 2xf0
 213 553 209 601 202 670 c 2
 200 689 l 1
 205 694 l 1
 236 691 243 691 250 691 c 0
 258 691 264 691 295 694 c 1
 300 689 l 1
 298 670 l 1xe8
 296 653 l 1
 290 597 287 561 287 530 c 2
 287 483 l 1
 362 483 l 2
 377 483 386 483 414 486 c 0
 429 487 437 488 461 490 c 1
 466 485 l 1
 464 471 463 464 463 453 c 0
 463 442 464 434 466 418 c 1
 461 413 l 1
 440 415 431 415 414 417 c 0
 388 419 376 420 362 420 c 2
 287 420 l 1
 287 377 289 307 292 272 c 0
 294 245 295 227 295 223 c 0
 295 219 294 201 292 173 c 0
 289 139 287 68 287 25 c 1
 362 25 l 2
 377 25 386 25 414 28 c 0
 429 29 437 30 461 32 c 1
 466 27 l 1
 464 13 463 6 463 -5 c 0
 463 -16 464 -24 466 -40 c 1
 461 -45 l 1
 438 -43 428 -42 414 -41 c 0
 386 -39 377 -38 362 -38 c 2
 287 -38 l 1
 287 -85 l 2xf0
 287 -116 290 -152 296 -208 c 0
 297 -217 298 -224 298 -225 c 1xe8
 300 -244 l 1
 295 -249 l 1
 264 -246 257 -246 250 -246 c 0
 242 -246 236 -246 205 -249 c 1
 200 -244 l 1
 202 -225 l 2
 210 -147 213 -111 213 -85 c 2xf0
 213 -38 l 1xe8
 138 -38 l 2
 123 -38 115 -38 86 -41 c 0
 72 -42 62 -43 39 -45 c 1
 34 -40 l 1
 36 -23 37 -15 37 -5 c 0
 37 5 36 12 34 27 c 1
 39 32 l 1
 63 30 72 29 86 28 c 0
 114 26 123 25 138 25 c 2
 213 25 l 1
 213 70 211 142 208 173 c 0
 206 200 205 218 205 223 c 0
 205 227 206 245 208 272 c 0
 211 304 213 375 213 420 c 1
 138 420 l 2
 123 420 114 419 86 417 c 0
 68 415 60 415 39 413 c 1
 34 418 l 1
 36 435 37 442 37 453 c 0
 37 463 36 470 34 485 c 1xf0
EndSplineSet
EndChar
StartChar: periodcentered
Encoding: 180 183 114
Width: 250
Flags: W
Fore
124 319 m 0
 155 319 183 291 183 260 c 0
 183 230 155 203 123 203 c 0
 94 203 67 231 67 261 c 0
 67 291 94 319 124 319 c 0
EndSplineSet
EndChar
StartChar: paragraph
Encoding: 182 182 115
Width: 628
Flags: W
HStem: -150 30<353 421> -147 27<353 388> 675 20G<164.5 222.5>
VStem: 39 111<524 544> 280 73<-55 655> 421 73<-120 603>
Fore
589 -120 m 1x7c
 589 -150 l 1xbc
 486 -148 439 -147 387 -147 c 0x7c
 335 -147 288 -148 185 -150 c 1xbc
 185 -120 l 1
 227 -117 l 2
 272 -114 280 -101 280 -27 c 2
 280 345 l 1
 207 350 163 365 114 402 c 0
 65 439 39 487 39 542 c 0
 39 632 112 695 217 695 c 0
 228 695 249 694 276 693 c 0
 309 691 375 689 421 689 c 0
 476 689 518 690 589 694 c 1
 589 664 l 1
 557 661 l 2
 505 656 494 641 494 574 c 2
 494 -27 l 2
 494 -101 502 -114 547 -117 c 2
 589 -120 l 1x7c
280 382 m 1
 280 655 l 1
 274 656 268 656 265 656 c 0
 199 656 150 601 150 526 c 0
 150 452 196 401 280 382 c 1
421 655 m 1
 353 655 l 1
 353 -120 l 1
 421 -120 l 1
 421 655 l 1
EndSplineSet
EndChar
StartChar: bullet
Encoding: 183 8226 116
Width: 606
Flags: W
Fore
303 516 m 0
 397 516 475 438 475 344 c 0
 475 249 397 172 302 172 c 0
 208 172 131 251 131 347 c 0
 131 438 210 516 303 516 c 0
EndSplineSet
EndChar
StartChar: quotesinglbase
Encoding: 184 8218 117
Width: 278
Flags: W
Fore
197 110 m 1
 210 97 l 1
 176 11 138 -56 81 -129 c 1
 37 -153 l 1
 22 -143 l 1
 70 -66 94 1 100 80 c 1
 151 95 161 98 197 110 c 1
EndSplineSet
EndChar
StartChar: quotedblbase
Encoding: 185 8222 118
Width: 500
Flags: W
Fore
226 110 m 1
 239 97 l 1
 205 11 167 -56 110 -129 c 1
 66 -153 l 1
 51 -143 l 1
 99 -66 123 1 129 80 c 1
 180 95 190 98 226 110 c 1
436 110 m 1
 449 97 l 1
 415 11 377 -56 320 -129 c 1
 276 -153 l 1
 261 -143 l 1
 309 -66 333 1 339 80 c 1
 390 95 400 98 436 110 c 1
EndSplineSet
KernsSLIF: 65 -17 1 0 225 -4 1 0 84 -88 1 0 86 -112 1 0 87 -67 1 0 89 -108 1 0
EndChar
StartChar: quotedblright
Encoding: 186 8221 119
Width: 500
Flags: W
Fore
110 470 m 1
 66 446 l 1
 51 456 l 1
 99 533 123 599 129 679 c 1
 180 694 190 697 226 709 c 1
 239 696 l 1
 205 610 167 543 110 470 c 1
320 470 m 1
 276 446 l 1
 261 456 l 1
 309 533 333 599 339 679 c 1
 390 694 400 697 436 709 c 1
 449 696 l 1
 415 610 377 543 320 470 c 1
EndSplineSet
KernsSLIF: 65 -130 1 0 225 -134 1 0 257 -130 1 0 256 -130 1 0 262 -130 1 0 84 -13 1 0 86 -8 1 0 87 -7 1 0 89 -9 1 0
EndChar
StartChar: guillemotright
Encoding: 187 187 120
Width: 500
Flags: W
Fore
251 86 m 1
 370 248 l 1
 251 415 l 1
 274 428 l 1
 450 254 l 1
 450 242 l 1
 274 71 l 1
 251 86 l 1
50 86 m 1
 169 248 l 1
 50 415 l 1
 73 428 l 1
 249 254 l 1
 249 242 l 1
 73 71 l 1
 50 86 l 1
EndSplineSet
KernsSLIF: 65 -86 1 0 225 -79 1 0 257 -86 1 0 256 -86 1 0 262 -86 1 0 84 -126 1 0 86 -115 1 0 87 -81 1 0 89 -139 1 0
EndChar
StartChar: ellipsis
Encoding: 188 8230 121
Width: 1000
Flags: W
HStem: -5 21G<150.5 181 483.5 514 816.5 847>
VStem: 109 116<53 60> 442 116<53 60> 775 116<53 60>
CounterMasks: 1 00
Fore
499 111 m 0
 530 111 558 83 558 53 c 0
 558 22 530 -5 498 -5 c 0
 469 -5 442 23 442 53 c 0
 442 83 469 111 499 111 c 0
166 111 m 0
 197 111 225 83 225 53 c 0
 225 22 197 -5 165 -5 c 0
 136 -5 109 23 109 53 c 0
 109 83 136 111 166 111 c 0
832 111 m 0
 863 111 891 83 891 53 c 0
 891 22 863 -5 831 -5 c 0
 802 -5 775 23 775 53 c 0
 775 83 802 111 832 111 c 0
EndSplineSet
Ligature: 0 1 'liga' period period period
EndChar
StartChar: perthousand
Encoding: 189 8240 122
Width: 1144
Flags: W
HStem: 0 23<553 566 874 889> 286 23<553 572 874 892> 380 23<250 268> 666 23<255 268>
VStem: 123 64<508.081 543> 336 64<523 557> 421 64<139 163> 634 64<146 173> 744 64<139 163> 957 64<146 173>
DStem: 589 709 629 709 198 -20 238 -20
Fore
266 689 m 0
 342 689 400 625 400 541 c 0
 400 449 338 380 257 380 c 0
 179 380 123 442 123 528 c 0
 123 622 183 689 266 689 c 0
264 666 m 0
 215 666 187 616 187 529 c 0
 187 448 212 403 258 403 c 0
 306 403 336 455 336 537 c 0
 336 618 309 666 264 666 c 0
564 309 m 0
 640 309 698 245 698 161 c 0
 698 69 636 0 555 0 c 0
 477 0 421 62 421 148 c 0
 421 242 481 309 564 309 c 0
562 286 m 0
 513 286 485 236 485 149 c 0
 485 68 510 23 556 23 c 0
 604 23 634 75 634 157 c 0
 634 238 607 286 562 286 c 0
887 309 m 0
 963 309 1021 245 1021 161 c 0
 1021 69 959 0 878 0 c 0
 800 0 744 62 744 148 c 0
 744 242 804 309 887 309 c 0
885 286 m 0
 836 286 808 236 808 149 c 0
 808 68 833 23 879 23 c 0
 927 23 957 75 957 157 c 0
 957 238 930 286 885 286 c 0
238 -20 m 1
 198 -20 l 1
 589 709 l 1
 629 709 l 1
 238 -20 l 1
EndSplineSet
EndChar
StartChar: questiondown
Encoding: 191 191 123
Width: 444
Flags: W
HStem: -231 66<224 259> 353 116<234 250>
VStem: 43 93<-77 -56> 184 116<408 413> 247 43<207 222>
DStem: 366 -75 395 -83 346 -123 357 -196
Fore
395 -83 m 1xe8
 357 -196 l 1
 304 -222 269 -231 224 -231 c 0
 121 -231 43 -164 43 -77 c 0
 43 -20 67 18 153 96 c 0
 234 169 247 187 247 220 c 0
 247 236 241 248 225 268 c 1
 246 282 l 1
 276 263 290 238 290 209 c 0
 290 175 273 147 213 81 c 0
 154 16 136 -16 136 -56 c 0
 136 -120 187 -165 259 -165 c 0
 303 -165 335 -150 346 -123 c 2
 366 -75 l 1
 395 -83 l 1xe8
241 469 m 0
 272 469 300 441 300 410 c 0
 300 380 272 353 240 353 c 0
 211 353 184 381 184 411 c 0xf0
 184 441 211 469 241 469 c 0
EndSplineSet
EndChar
StartChar: grave
Encoding: 193 96 124
Width: 333
Flags: W
Fore
215 506 m 1
 71 596 l 2
 38 617 31 625 31 643 c 0
 31 662 45 677 62 677 c 0
 76 677 96 665 117 644 c 2
 255 506 l 1
 215 506 l 1
EndSplineSet
EndChar
StartChar: acute
Encoding: 194 180 125
Width: 333
Flags: W
Fore
78 506 m 1
 216 644 l 2
 238 666 256 677 271 677 c 0
 288 677 302 662 302 643 c 0
 302 625 295 617 262 596 c 2
 118 506 l 1
 78 506 l 1
EndSplineSet
Ligature: 0 1 'liga' space acutecomb
EndChar
StartChar: circumflex
Encoding: 195 710 126
Width: 333
Flags: W
Fore
136 677 m 1
 198 677 l 1
 323 510 l 1
 288 510 l 1
 167 613 l 1
 46 510 l 1
 11 510 l 1
 136 677 l 1
EndSplineSet
EndChar
StartChar: tilde
Encoding: 196 732 127
Width: 333
Flags: W
Fore
303 640 m 1
 332 640 l 1
 328 582 280 535 223 535 c 0
 201 535 185 540 155 554 c 0
 118 573 98 580 84 580 c 0
 60 580 44 566 31 535 c 1
 2 535 l 1
 16 600 53 635 108 635 c 0
 132 635 144 631 197 605 c 0
 221 594 232 590 244 590 c 0
 272 590 288 603 303 640 c 1
EndSplineSet
Ligature: 0 1 'liga' space tildecomb
EndChar
StartChar: macron
Encoding: 197 175 128
Width: 333
Flags: W
HStem: 538 53<11 323>
Fore
323 538 m 1
 11 538 l 1
 11 591 l 1
 323 591 l 1
 323 538 l 1
EndSplineSet
Ligature: 0 1 'liga' space uni0304
EndChar
StartChar: breve
Encoding: 198 728 129
Width: 333
Flags: W
HStem: 506 60<167 171>
Fore
26 664 m 1
 56 664 l 1
 59 607 105 566 167 566 c 0
 229 566 275 607 278 664 c 1
 308 664 l 1
 306 620 300 598 284 571 c 0
 260 529 218 506 167 506 c 0
 113 506 70 531 46 577 c 0
 33 603 28 623 26 664 c 1
EndSplineSet
Ligature: 0 1 'liga' space uni0306
EndChar
StartChar: dotaccent
Encoding: 199 729 130
Width: 250
Flags: W
Fore
126 637 m 0
 155 637 175 616 175 587 c 0
 175 557 155 537 125 537 c 0
 95 537 75 557 75 587 c 0
 75 617 95 637 126 637 c 0
EndSplineSet
Ligature: 0 1 'liga' space uni0307
EndChar
StartChar: dieresis
Encoding: 200 168 131
Width: 333
Flags: W
VStem: 17 100<587 589> 216 100<587 589>
Fore
68 637 m 0
 97 637 117 616 117 587 c 0
 117 557 97 537 67 537 c 0
 37 537 17 557 17 587 c 0
 17 617 37 637 68 637 c 0
267 637 m 0
 296 637 316 616 316 587 c 0
 316 557 296 537 266 537 c 0
 236 537 216 557 216 587 c 0
 216 617 236 637 267 637 c 0
EndSplineSet
Ligature: 0 1 'liga' space uni0308
EndChar
StartChar: ring
Encoding: 202 730 132
Width: 333
Flags: W
HStem: 512 36<167 180> 676 36<162 180>
VStem: 67 38<613 625> 229 38<612 625>
Fore
169 712 m 0
 222 712 267 667 267 612 c 0
 267 556 222 512 167 512 c 0
 111 512 67 556 67 613 c 0
 67 668 112 712 169 712 c 0
168 676 m 0
 130 676 105 651 105 613 c 0
 105 573 129 548 167 548 c 0
 204 548 229 574 229 612 c 0
 229 650 204 676 168 676 c 0
EndSplineSet
Ligature: 0 1 'liga' space uni030A
EndChar
StartChar: cedilla
Encoding: 203 184 133
Width: 333
Flags: W
HStem: -225 36<159 189> -107 36<189 219> -30 20G<183 217>
VStem: 229 75<-148 -139>
DStem: 183 -10 217 -10 141 -108 192 -75
Fore
141 -108 m 1
 183 -10 l 1
 217 -10 l 1
 192 -75 l 1
 202 -72 209 -71 219 -71 c 0
 271 -71 304 -98 304 -141 c 0
 304 -193 256 -225 180 -225 c 0
 153 -225 139 -222 96 -209 c 1
 110 -178 l 1
 143 -187 157 -189 175 -189 c 0
 210 -189 229 -174 229 -146 c 0
 229 -123 213 -107 189 -107 c 0
 176 -107 167 -109 148 -114 c 1
 141 -108 l 1
EndSplineSet
Ligature: 0 1 'liga' space uni0327
EndChar
StartChar: hungarumlaut
Encoding: 205 733 134
Width: 380
Flags: W
Fore
3 506 m 1
 131 654 l 2
 148 674 170 687 186 687 c 0
 203 687 217 672 217 654 c 0
 217 638 207 625 178 604 c 2
 43 506 l 1
 3 506 l 1
163 506 m 1
 291 654 l 2
 308 674 330 687 346 687 c 0
 363 687 377 672 377 654 c 0
 377 638 367 625 338 604 c 2
 203 506 l 1
 163 506 l 1
EndSplineSet
Ligature: 0 1 'liga' space uni030B
EndChar
StartChar: ogonek
Encoding: 206 731 135
Width: 313
Flags: W
HStem: -145 41<133 155> -20 20G<118 155>
VStem: 68 47<-81 -64>
Fore
229 -68 m 1
 245 -89 l 1
 199 -129 168 -145 133 -145 c 0
 97 -145 68 -117 68 -81 c 0
 68 -50 86 -22 118 0 c 1
 155 0 l 1
 127 -23 115 -43 115 -64 c 0
 115 -85 134 -104 155 -104 c 0
 178 -104 202 -92 229 -68 c 1
EndSplineSet
Ligature: 0 1 'liga' space uni0328
EndChar
StartChar: caron
Encoding: 207 711 136
Width: 333
Flags: W
Fore
167 574 m 1
 289 677 l 1
 323 677 l 1
 198 510 l 1
 136 510 l 1
 11 677 l 1
 46 677 l 1
 167 574 l 1
EndSplineSet
EndChar
StartChar: emdash
Encoding: 208 8212 137
Width: 1000
Flags: W
HStem: 219 58<0 1000>
Fore
1000 219 m 1
 0 219 l 1
 0 277 l 1
 1000 277 l 1
 1000 219 l 1
EndSplineSet
EndChar
StartChar: AE
Encoding: 225 198 138
Width: 944
Flags: W
HStem: -1 40<610 711> 0 164<873 893> 245 38<242 386> 330 42<597 711> 650 39<543 713.755>
VStem: 462 90<92 327 283 642> 462 352<283 372> 841 35<537 580.794>
DStem: 365 599 450 655 76 87 242 283 365 599 218 242 76 87 154 128
Fore
-10 27 m 1x7d
 24 32 l 2
 38 34 56 53 76 87 c 1
 365 599 l 2
 377 620 384 638 384 646 c 0
 384 653 371 656 330 659 c 2
 286 662 l 1
 286 692 l 1
 543 689 l 2
 560 689 577 689 729 692 c 2
 769 692 l 2
 814 692 842 691 892 689 c 1
 881 645 876 597 876 537 c 1
 841 537 l 1
 841 602 l 2
 841 625 838 630 814 636 c 0x7b
 782 645 726 650 669 650 c 0
 600 650 583 649 552 642 c 1
 552 375 l 1x7d
 586 373 620 372 662 372 c 0
 728 372 756 375 774 383 c 1
 778 391 781 400 782 409 c 1
 787 461 l 1
 817 461 l 1
 814 361 814 361 814 345 c 0x7b
 814 327 814 327 817 234 c 1
 787 234 l 1
 782 293 l 1
 774 318 l 1
 756 327 729 330 655 330 c 0
 610 330 580 329 552 327 c 1
 552 47 l 1
 581 41 599 39 651 39 c 0xbd
 741 39 814 44 835 51 c 0
 849 56 862 87 868 130 c 0
 869 134 871 148 873 164 c 1
 908 164 l 1
 898 112 892 58 892 0 c 1x7d
 755 -3 755 -3 724 -3 c 0
 710 -3 669 -2 612 -1 c 2xbd
 477 0 l 1
 408 -3 l 1
 408 20 l 1
 436 36 l 2
 455 47 462 68 462 120 c 2
 462 242 l 1
 383 244 356 245 339 245 c 0
 323 245 323 245 218 242 c 1
 154 128 l 2
 131 86 126 75 126 59 c 0
 126 43 144 33 179 30 c 2
 215 27 l 1
 215 -3 l 1
 138 0 137 0 117 0 c 0
 104 0 104 0 -10 -3 c 1
 -10 27 l 1x7d
450 655 m 1
 242 283 l 1
 462 283 l 1x3d
 462 655 l 1
 450 655 l 1
EndSplineSet
EndChar
StartChar: ordfeminine
Encoding: 227 170 139
Width: 333
Flags: W
HStem: 422 34<101 130> 426 18<299 310> 677 32<126 161>
VStem: 24 56<493 505> 214 52<501 614.907>
DStem: 214 477 217 427 211 426 211 426
Fore
214 477 m 1x78
 133 425 l 1
 119 423 111 422 101 422 c 0xb8
 54 422 24 449 24 493 c 0
 24 546 63 576 150 590 c 2
 214 600 l 1
 213 654 187 677 126 677 c 0
 98 677 92 674 82 656 c 2
 79 651 l 1
 76 645 l 1
 67 626 l 1
 50 630 l 1
 50 669 l 1
 85 689 l 2
 108 702 134 709 161 709 c 0
 205 709 236 696 253 670 c 0
 264 655 266 642 266 590 c 2
 266 488 l 2
 266 450 269 444 290 444 c 2
 310 444 l 1
 310 426 l 1
 299 427 288 427 285 428 c 0
 273 429 264 429 261 429 c 2
 234 428 l 2
 225 427 219 427 217 427 c 2
 211 426 l 1
 214 477 l 1x78
214 502 m 1
 214 581 l 1
 115 569 80 548 80 503 c 0
 80 476 102 456 130 456 c 0
 148 456 180 469 193 482 c 2
 214 502 l 1
EndSplineSet
EndChar
StartChar: Lslash
Encoding: 232 321 140
Width: 611
Flags: W
HStem: -3 42<265 397> -1 40<211 301> 0 172<554 566>
VStem: 121 95<78.8983 288 329 346 330 606>
DStem: 121 330 121 288 6 260 22 228 354 472 370 440 216 388 216 346
Fore
216 346 m 1x90
 216 47 l 1
 242 41 265 39 301 39 c 0x90
 420 39 507 46 520 57 c 0
 526 62 533 82 539 111 c 0
 540 112 541 119 542 122 c 1
 554 172 l 1
 586 172 l 1
 576 75 572 43 565 0 c 1x30
 429 -3 429 -3 397 -3 c 0x90
 369 -3 260 -2 211 -1 c 0x50
 189 0 173 0 164 0 c 0x30
 138 0 131 0 65 -3 c 1
 65 20 l 1
 96 36 l 2
 112 44 121 66 121 95 c 2
 121 288 l 1
 22 228 l 1
 6 260 l 1
 121 330 l 1
 121 569 l 2
 121 648 116 656 70 659 c 2
 22 662 l 1
 22 692 l 1
 94 690 118 689 168 689 c 0
 220 689 242 689 315 692 c 1
 315 662 l 1
 267 659 l 2
 221 656 216 648 216 569 c 2
 216 388 l 1
 354 472 l 1
 370 440 l 1
 216 346 l 1x90
EndSplineSet
EndChar
StartChar: Oslash
Encoding: 233 216 141
Width: 833
Flags: W
HStem: -20 42<395 431> 667 42<393 426>
VStem: 45 107<338 375> 680 107<340 377>
DStem: 124 99 154 67 30 11 63 -18 616 570 641 531 196 167 219 131 765 709 797 679 679 626 709 596
Fore
154 67 m 1
 63 -18 l 1
 30 11 l 1
 124 99 l 1
 95 137 85 154 73 186 c 0
 55 232 45 288 45 342 c 0
 45 563 196 709 424 709 c 0
 488 709 553 696 604 673 c 0
 628 662 645 652 679 626 c 1
 765 709 l 1
 797 679 l 1
 709 596 l 1
 764 526 787 461 787 370 c 0
 787 148 618 -20 395 -20 c 0
 336 -20 277 -7 229 16 c 0
 205 27 188 39 154 67 c 1
641 531 m 1
 219 131 l 1
 278 54 340 22 431 22 c 0
 589 22 680 138 680 340 c 0
 680 420 670 469 641 531 c 1
196 167 m 1
 616 570 l 1
 577 614 554 631 507 648 c 0
 473 661 439 667 403 667 c 0
 243 667 152 561 152 375 c 0
 152 292 164 233 196 167 c 1
EndSplineSet
KernsSLIF: 65 -88 0 0
EndChar
StartChar: OE
Encoding: 234 338 142
Width: 998
Flags: W
HStem: -20 44<373 407> -2 41<677 775> 0 164<927 947> 330 42<661 759> 650 39<588 759> 665 44<373 407>
VStem: 22 100<338 370> 519 95<107 327 139 642> 519 349<139 372> 895 35<537 580.794>
Fore
927 164 m 1x3340
 962 164 l 1
 952 112 946 58 946 0 c 1x3340
 853 -2 814 -3 786 -3 c 2
 735 -3 l 2
 709 -2 692 -2 679 -2 c 0x5340
 623 -2 559 -6 509 -11 c 0
 454 -18 424 -20 386 -20 c 0
 170 -20 22 126 22 340 c 0
 22 560 175 709 399 709 c 0x9740
 424 709 512 700 543 694 c 0
 563 690 571 689 588 689 c 0
 594 689 594 689 825 692 c 0
 868 692 901 691 946 689 c 1
 935 645 930 597 930 537 c 1
 895 537 l 1
 895 602 l 2
 895 625 892 630 868 636 c 0x1ac0
 837 644 779 650 727 650 c 0
 662 650 645 649 614 642 c 1
 614 375 l 1x1b40
 653 373 675 372 717 372 c 0
 781 372 811 375 828 383 c 1
 832 391 835 400 836 409 c 1
 841 461 l 1
 871 461 l 1
 868 361 868 361 868 345 c 0x1ac0
 868 327 868 327 871 234 c 1
 841 234 l 1
 836 293 l 1
 828 318 l 1
 810 327 783 330 711 330 c 0
 668 330 640 329 614 327 c 1
 614 47 l 1
 643 41 662 39 711 39 c 0x5b40
 795 39 869 44 888 51 c 0
 903 56 916 86 922 130 c 0
 923 135 925 149 927 164 c 1x3340
519 139 m 2
 519 538 l 2
 519 576 518 594 514 621 c 1
 480 651 438 665 381 665 c 0
 218 665 122 555 122 370 c 0
 122 167 231 24 385 24 c 0x9740
 431 24 489 38 514 56 c 1
 518 83 519 101 519 139 c 2
EndSplineSet
EndChar
StartChar: ordmasculine
Encoding: 235 186 143
Width: 333
Flags: W
HStem: 416 20<157 175> 689 20<153 173>
VStem: 10 60<556 579> 263 60<550 569>
Fore
173 709 m 0
 261 709 323 650 323 567 c 0
 323 483 250 416 157 416 c 0
 69 416 10 473 10 558 c 0
 10 647 76 709 173 709 c 0
159 689 m 0
 102 689 70 650 70 579 c 0
 70 495 112 436 173 436 c 0
 227 436 263 482 263 551 c 0
 263 629 218 689 159 689 c 0
EndSplineSet
EndChar
StartChar: ae
Encoding: 241 230 144
Width: 758
Flags: W
HStem: -20 53<536 579> 230 34<477 591> 416 53<211 238> 436 33<525 551>
VStem: 30 86<107 124> 649 83<267 285>
Fore
69 399 m 1xec
 167 452 l 2
 189 464 210 469 238 469 c 0xec
 303 469 345 448 384 398 c 1
 449 452 488 469 545 469 c 0xdc
 615 469 676 436 708 382 c 0
 723 356 732 318 732 278 c 0
 732 266 731 258 730 244 c 1
 661 233 618 230 549 230 c 2
 403 230 l 1
 405 172 412 144 430 111 c 0
 459 61 513 33 579 33 c 0
 623 33 650 43 710 80 c 1
 724 70 l 1
 704 36 l 2
 700 30 680 18 654 7 c 0
 613 -11 573 -20 536 -20 c 0
 480 -20 425 -1 388 33 c 1
 371 47 361 60 344 89 c 1
 221 -7 l 2
 211 -15 190 -20 166 -20 c 0
 83 -20 30 30 30 107 c 0
 30 151 44 184 71 205 c 0
 101 227 184 250 268 259 c 2
 324 265 l 1
 321 323 315 347 297 374 c 0
 278 400 246 416 211 416 c 0
 177 416 132 403 120 389 c 0
 113 381 102 357 95 331 c 1
 69 337 l 1
 69 399 l 1xec
324 117 m 1
 324 233 l 1
 243 224 233 222 190 210 c 0
 157 200 143 193 134 181 c 0
 123 165 116 144 116 122 c 0
 116 74 147 45 200 45 c 0
 247 45 280 64 324 117 c 1
649 267 m 1
 649 319 643 345 626 377 c 0
 604 418 577 436 539 436 c 0xdc
 498 436 458 416 435 385 c 0
 415 357 407 327 405 270 c 1
 459 265 485 264 532 264 c 0
 568 264 594 265 649 267 c 1
EndSplineSet
KernsSLIF: 118 -10 0 0 119 -10 0 0 121 -13 0 0
EndChar
StartChar: dotlessi
Encoding: 245 305 145
Width: 287
Flags: W
HStem: 0 21G<133.5 158.5> 400 28<23 31.8333>
VStem: 104 84<102 350>
Fore
188 465 m 1
 188 102 l 2
 188 39 191 32 225 30 c 2
 271 27 l 1
 271 -3 l 1
 171 0 171 0 146 0 c 0
 121 0 121 0 21 -3 c 1
 21 27 l 1
 67 30 l 2
 101 32 104 39 104 102 c 2
 104 327 l 2
 104 393 100 400 60 400 c 2
 23 400 l 1
 23 428 l 1
 76 434 128 448 179 469 c 1
 188 465 l 1
EndSplineSet
EndChar
StartChar: lslash
Encoding: 248 322 146
Width: 291
Flags: W
HStem: 0 21G<133.5 158.5>
VStem: 104 84<102 348 389 400 390 718>
DStem: 104 390 104 348 -14 318 2 286 291 504 306 472 188 441 188 400
Fore
104 390 m 1
 104 620 l 2
 104 650 97 661 79 661 c 2
 23 661 l 1
 23 689 l 1
 102 701 135 709 179 726 c 1
 188 718 l 1
 188 441 l 1
 291 504 l 1
 306 472 l 1
 188 400 l 1
 188 102 l 2
 188 39 191 32 225 30 c 2
 271 27 l 1
 271 -3 l 1
 171 0 171 0 146 0 c 0
 121 0 121 0 21 -3 c 1
 21 27 l 1
 67 30 l 2
 101 32 104 39 104 102 c 2
 104 348 l 1
 2 286 l 1
 -14 318 l 1
 104 390 l 1
EndSplineSet
EndChar
StartChar: oslash
Encoding: 249 248 147
Width: 556
Flags: W
HStem: -20 33<258 293> 436 33<263 288>
VStem: 37 93<216 256> 426 93<197 238>
DStem: 83 64 106 37 16 0 44 -23 388 362 404 327 150 130 166 95 503 474 530 449 441 414 467 388
Fore
16 0 m 1
 83 64 l 1
 50 115 37 157 37 216 c 0
 37 364 141 469 288 469 c 0
 349 469 391 454 441 414 c 1
 503 474 l 1
 530 449 l 1
 467 388 l 1
 505 337 519 296 519 238 c 0
 519 89 409 -20 258 -20 c 0
 195 -20 154 -5 106 37 c 1
 44 -23 l 1
 16 0 l 1
404 327 m 1
 166 95 l 1
 200 38 239 13 293 13 c 0
 373 13 426 86 426 197 c 0
 426 240 419 279 404 327 c 1
150 130 m 1
 388 362 l 1
 355 412 316 436 265 436 c 0
 179 436 130 370 130 256 c 0
 130 211 136 175 150 130 c 1
EndSplineSet
EndChar
StartChar: oe
Encoding: 250 339 148
Width: 827
Flags: W
HStem: -20 33<258 281> 230 34<543 657> 436 33<251 272 591 619>
VStem: 32 93<228 260> 717 83<267 285>
Fore
792 70 m 1
 772 36 l 2
 768 30 747 17 722 7 c 0
 681 -11 642 -20 607 -20 c 0
 539 -20 493 4 435 67 c 1
 374 3 327 -20 258 -20 c 0
 126 -20 32 84 32 230 c 0
 32 373 128 469 272 469 c 0
 343 469 388 449 445 393 c 1
 510 451 549 469 611 469 c 0
 726 469 800 395 800 279 c 0
 800 267 799 258 798 244 c 1
 729 233 686 230 617 230 c 2
 471 230 l 1
 473 172 480 144 499 111 c 0
 527 61 581 33 647 33 c 0
 691 33 718 43 778 80 c 1
 792 70 l 1
253 436 m 0
 168 436 125 377 125 260 c 0
 125 114 188 13 279 13 c 0
 358 13 403 82 403 203 c 0
 403 347 346 436 253 436 c 0
717 267 m 1
 717 319 711 345 694 377 c 0
 672 418 645 436 608 436 c 0
 566 436 526 416 503 385 c 0
 483 356 475 327 473 270 c 1
 527 265 553 264 600 264 c 0
 636 264 662 265 717 267 c 1
EndSplineSet
EndChar
StartChar: germandbls
Encoding: 251 223 149
Width: 556
Flags: W
HStem: -9 43<345 373> 414 47<381 429> 686 45<309 345>
VStem: 96 84<86 385 433 504> 268 60<327 371> 440 56<543 587> 454 65<110 163>
Fore
96 385 m 1xfa
 27 385 l 1
 27 399 l 1
 96 434 l 1
 96 500 l 2
 96 539 108 571 142 618 c 0
 192 686 272 731 345 731 c 0
 434 731 496 672 496 587 c 0xfc
 496 530 483 471 452 391 c 1
 422 408 405 414 381 414 c 0
 349 414 328 397 328 371 c 0
 328 343 351 321 414 289 c 0
 488 252 519 215 519 163 c 0
 519 122 503 78 482 62 c 2
 424 18 l 2
 401 0 373 -9 345 -9 c 0
 313 -9 284 -3 252 11 c 1
 252 -3 l 1
 155 0 148 0 137 0 c 2
 23 -3 l 1
 23 27 l 1
 59 30 l 2
 93 33 96 39 96 102 c 2
 96 385 l 1xfa
287 383 m 2
 326 426 l 2
 346 448 383 461 429 461 c 1
 430 465 430 465 431 470 c 0
 437 501 440 524 440 543 c 0xfc
 440 631 390 686 309 686 c 0
 216 686 180 625 180 466 c 2
 180 107 l 2
 180 48 192 27 226 27 c 2
 254 27 l 1
 275 112 l 1
 302 112 l 1
 302 66 l 1
 329 42 346 34 373 34 c 0
 419 34 454 66 454 110 c 0xfa
 454 157 429 186 361 222 c 0
 286 261 268 282 268 327 c 0
 268 350 274 369 287 383 c 2
EndSplineSet
EndChar
StartChar: Adieresis
Encoding: 256 196 150
Width: 778
Flags: W
HStem: 0 21G<116 130.5 621 638.5> 229 40<240 511> 680 20G<376 408> 768 100<282 293 478 496>
VStem: 240 100<818 820> 439 100<818 820>
DStem: 284 484 367 567 106 79 240 269 284 484 223 229 106 79 195 162 367 567 408 700 493 269 650 132
Fore
408 700 m 1
 650 132 l 1
 685 51 696 34 722 30 c 2
 756 27 l 1
 756 -3 l 1
 648 0 648 0 629 0 c 0
 613 0 613 0 490 -3 c 1
 490 27 l 1
 537 30 l 2
 562 32 578 39 578 50 c 0
 578 59 574 72 557 114 c 2
 511 229 l 1
 223 229 l 1
 195 162 l 2
 174 112 160 69 160 56 c 0
 160 40 173 33 208 30 c 2
 245 27 l 1
 245 -3 l 1
 137 0 137 0 124 0 c 0
 108 0 108 0 15 -3 c 1
 15 27 l 1
 52 30 l 2
 74 32 94 50 106 79 c 1
 284 484 l 1
 337 605 l 1
 376 700 l 1
 408 700 l 1
240 269 m 1
 493 269 l 1
 367 567 l 1
 240 269 l 1
291 868 m 0
 320 868 340 847 340 818 c 0
 340 788 320 768 290 768 c 0
 260 768 240 788 240 818 c 0
 240 848 260 868 291 868 c 0
490 868 m 0
 519 868 539 847 539 818 c 0
 539 788 519 768 489 768 c 0
 459 768 439 788 439 818 c 0
 439 848 459 868 490 868 c 0
EndSplineSet
KernsSLIF: 67 -72 0 0 71 -70 0 0 79 -69 0 0 81 -67 0 0 84 -69 0 0 85 -74 0 0 86 -140 0 0 87 -98 0 0 89 -89 0 0 97 -11 0 0 98 -13 0 0 99 -33 0 0 44 -33 0 0 100 -34 0 0 103 -26 0 0 171 -84 0 0 172 -92 0 0 45 -37 0 0 111 -36 0 0 46 -24 0 0 113 -34 0 0 186 -123 0 0 39 -120 0 0 116 -38 0 0 117 -45 0 0 118 -87 0 0 119 -78 0 0 121 -88 0 0
Ligature: 0 0 'liga' A uni0308
EndChar
StartChar: Aacute
Encoding: 257 193 151
Width: 778
Flags: W
HStem: 0 21G<116 130.5 621 638.5> 229 40<240 511> 680 20G<376 408>
DStem: 284 484 367 567 106 79 240 269 284 484 223 229 106 79 195 162 367 567 408 700 493 269 650 132
Fore
408 700 m 1
 650 132 l 1
 685 51 696 34 722 30 c 2
 756 27 l 1
 756 -3 l 1
 648 0 648 0 629 0 c 0
 613 0 613 0 490 -3 c 1
 490 27 l 1
 537 30 l 2
 562 32 578 39 578 50 c 0
 578 59 574 72 557 114 c 2
 511 229 l 1
 223 229 l 1
 195 162 l 2
 174 112 160 69 160 56 c 0
 160 40 173 33 208 30 c 2
 245 27 l 1
 245 -3 l 1
 137 0 137 0 124 0 c 0
 108 0 108 0 15 -3 c 1
 15 27 l 1
 52 30 l 2
 74 32 94 50 106 79 c 1
 284 484 l 1
 337 605 l 1
 376 700 l 1
 408 700 l 1
240 269 m 1
 493 269 l 1
 367 567 l 1
 240 269 l 1
307 737 m 1
 445 875 l 2
 467 897 485 908 500 908 c 0
 517 908 531 893 531 874 c 0
 531 856 524 848 491 827 c 2
 347 737 l 1
 307 737 l 1
EndSplineSet
KernsSLIF: 67 -72 0 0 71 -70 0 0 79 -69 0 0 81 -67 0 0 84 -69 0 0 85 -74 0 0 86 -140 0 0 87 -98 0 0 89 -89 0 0 97 -11 0 0 98 -13 0 0 99 -33 0 0 44 -33 0 0 100 -34 0 0 101 -30 0 0 103 -26 0 0 171 -84 0 0 172 -92 0 0 45 -37 0 0 111 -36 0 0 46 -24 0 0 113 -34 0 0 39 -120 0 0 116 -38 0 0 117 -45 0 0 118 -87 0 0 119 -78 0 0 121 -88 0 0
Ligature: 0 0 'liga' A acutecomb
EndChar
StartChar: Agrave
Encoding: 258 192 152
Width: 778
Flags: W
HStem: 0 21G<116 130.5 621 638.5> 229 40<240 511> 680 20G<376 408>
DStem: 284 484 367 567 106 79 240 269 284 484 223 229 106 79 195 162 367 567 408 700 493 269 650 132
Fore
408 700 m 1
 650 132 l 1
 685 51 696 34 722 30 c 2
 756 27 l 1
 756 -3 l 1
 648 0 648 0 629 0 c 0
 613 0 613 0 490 -3 c 1
 490 27 l 1
 537 30 l 2
 562 32 578 39 578 50 c 0
 578 59 574 72 557 114 c 2
 511 229 l 1
 223 229 l 1
 195 162 l 2
 174 112 160 69 160 56 c 0
 160 40 173 33 208 30 c 2
 245 27 l 1
 245 -3 l 1
 137 0 137 0 124 0 c 0
 108 0 108 0 15 -3 c 1
 15 27 l 1
 52 30 l 2
 74 32 94 50 106 79 c 1
 284 484 l 1
 337 605 l 1
 376 700 l 1
 408 700 l 1
240 269 m 1
 493 269 l 1
 367 567 l 1
 240 269 l 1
430 737 m 1
 286 827 l 2
 253 848 246 856 246 874 c 0
 246 893 260 908 277 908 c 0
 291 908 311 896 332 875 c 2
 470 737 l 1
 430 737 l 1
EndSplineSet
KernsSLIF: 67 -72 0 0 71 -70 0 0 79 -69 0 0 81 -67 0 0 84 -69 0 0 85 -74 0 0 86 -140 0 0 87 -98 0 0 89 -89 0 0 44 -33 0 0 46 -24 0 0
Ligature: 0 0 'liga' A gravecomb
EndChar
StartChar: Acircumflex
Encoding: 259 194 153
Width: 778
Flags: W
HStem: 0 21G<116 130.5 621 638.5> 229 40<240 511> 680 20G<376 408>
DStem: 284 484 367 567 106 79 240 269 284 484 223 229 106 79 195 162 367 567 408 700 493 269 650 132
Fore
408 700 m 1
 650 132 l 1
 685 51 696 34 722 30 c 2
 756 27 l 1
 756 -3 l 1
 648 0 648 0 629 0 c 0
 613 0 613 0 490 -3 c 1
 490 27 l 1
 537 30 l 2
 562 32 578 39 578 50 c 0
 578 59 574 72 557 114 c 2
 511 229 l 1
 223 229 l 1
 195 162 l 2
 174 112 160 69 160 56 c 0
 160 40 173 33 208 30 c 2
 245 27 l 1
 245 -3 l 1
 137 0 137 0 124 0 c 0
 108 0 108 0 15 -3 c 1
 15 27 l 1
 52 30 l 2
 74 32 94 50 106 79 c 1
 284 484 l 1
 337 605 l 1
 376 700 l 1
 408 700 l 1
240 269 m 1
 493 269 l 1
 367 567 l 1
 240 269 l 1
359 908 m 1
 421 908 l 1
 546 741 l 1
 511 741 l 1
 390 844 l 1
 269 741 l 1
 234 741 l 1
 359 908 l 1
EndSplineSet
KernsSLIF: 67 -72 0 0 71 -70 0 0 79 -69 0 0 81 -67 0 0 84 -69 0 0 85 -74 0 0 86 -140 0 0 87 -98 0 0 89 -89 0 0 44 -33 0 0 46 -24 0 0
Ligature: 0 0 'liga' A uni0302
EndChar
StartChar: Abreve
Encoding: 260 258 154
Width: 778
Flags: W
HStem: 0 21G<116 130.5 621 638.5> 229 40<240 511> 680 20G<376 408> 737 60<390 400>
DStem: 284 484 367 567 106 79 240 269 284 484 223 229 106 79 195 162 367 567 408 700 493 269 650 132
Fore
408 700 m 1
 650 132 l 1
 685 51 696 34 722 30 c 2
 756 27 l 1
 756 -3 l 1
 648 0 648 0 629 0 c 0
 613 0 613 0 490 -3 c 1
 490 27 l 1
 537 30 l 2
 562 32 578 39 578 50 c 0
 578 59 574 72 557 114 c 2
 511 229 l 1
 223 229 l 1
 195 162 l 2
 174 112 160 69 160 56 c 0
 160 40 173 33 208 30 c 2
 245 27 l 1
 245 -3 l 1
 137 0 137 0 124 0 c 0
 108 0 108 0 15 -3 c 1
 15 27 l 1
 52 30 l 2
 74 32 94 50 106 79 c 1
 284 484 l 1
 337 605 l 1
 376 700 l 1
 408 700 l 1
240 269 m 1
 493 269 l 1
 367 567 l 1
 240 269 l 1
249 895 m 1
 279 895 l 1
 282 838 328 797 390 797 c 0
 452 797 498 838 501 895 c 1
 531 895 l 1
 529 851 523 829 507 802 c 0
 483 760 441 737 390 737 c 0
 336 737 293 762 269 808 c 0
 256 834 251 854 249 895 c 1
EndSplineSet
Ligature: 0 0 'liga' A uni0306
EndChar
StartChar: Atilde
Encoding: 261 195 155
Width: 778
Flags: W
HStem: 0 21G<116 130.5 621 638.5> 229 40<240 511> 680 20G<376 408> 766 55<446 467> 811 55<307 331>
DStem: 284 484 367 567 106 79 240 269 284 484 223 229 106 79 195 162 367 567 408 700 493 269 650 132
Fore
408 700 m 1xe0
 650 132 l 1
 685 51 696 34 722 30 c 2
 756 27 l 1
 756 -3 l 1
 648 0 648 0 629 0 c 0
 613 0 613 0 490 -3 c 1
 490 27 l 1
 537 30 l 2
 562 32 578 39 578 50 c 0
 578 59 574 72 557 114 c 2
 511 229 l 1
 223 229 l 1
 195 162 l 2
 174 112 160 69 160 56 c 0
 160 40 173 33 208 30 c 2
 245 27 l 1
 245 -3 l 1
 137 0 137 0 124 0 c 0
 108 0 108 0 15 -3 c 1
 15 27 l 1
 52 30 l 2
 74 32 94 50 106 79 c 1
 284 484 l 1
 337 605 l 1
 376 700 l 1
 408 700 l 1xe0
240 269 m 1
 493 269 l 1
 367 567 l 1
 240 269 l 1
526 871 m 1
 555 871 l 1
 551 813 503 766 446 766 c 0xf0
 424 766 408 771 378 785 c 0
 341 804 321 811 307 811 c 0xe8
 283 811 267 797 254 766 c 1
 225 766 l 1xf0
 239 831 276 866 331 866 c 0xe8
 355 866 367 862 420 836 c 0
 444 825 455 821 467 821 c 0xf0
 495 821 511 834 526 871 c 1
EndSplineSet
KernsSLIF: 67 -72 0 0 71 -70 0 0 79 -69 0 0 81 -67 0 0 84 -69 0 0 85 -74 0 0 86 -140 0 0 87 -98 0 0 89 -89 0 0 44 -33 0 0 46 -24 0 0
Ligature: 0 0 'liga' A tildecomb
EndChar
StartChar: Aring
Encoding: 262 197 156
Width: 778
Flags: W
HStem: 0 21G<116 130.5 621 638.5> 229 40<240 511> 680 20G<376 408> 743 36<390 400> 907 36<382 400>
VStem: 290 38<830.266 847> 452 38<830.207 846>
DStem: 284 484 367 567 106 79 240 269 284 484 223 229 106 79 195 162 367 567 408 700 493 269 650 132
Fore
408 700 m 1
 650 132 l 1
 685 51 696 34 722 30 c 2
 756 27 l 1
 756 -3 l 1
 648 0 648 0 629 0 c 0
 613 0 613 0 490 -3 c 1
 490 27 l 1
 537 30 l 2
 562 32 578 39 578 50 c 0
 578 59 574 72 557 114 c 2
 511 229 l 1
 223 229 l 1
 195 162 l 2
 174 112 160 69 160 56 c 0
 160 40 173 33 208 30 c 2
 245 27 l 1
 245 -3 l 1
 137 0 137 0 124 0 c 0
 108 0 108 0 15 -3 c 1
 15 27 l 1
 52 30 l 2
 74 32 94 50 106 79 c 1
 284 484 l 1
 337 605 l 1
 376 700 l 1
 408 700 l 1
240 269 m 1
 493 269 l 1
 367 567 l 1
 240 269 l 1
392 943 m 0
 445 943 490 898 490 843 c 0
 490 787 445 743 390 743 c 0
 334 743 290 787 290 844 c 0
 290 899 335 943 392 943 c 0
391 907 m 0
 353 907 328 882 328 844 c 0
 328 804 352 779 390 779 c 0
 427 779 452 805 452 843 c 0
 452 881 427 907 391 907 c 0
EndSplineSet
KernsSLIF: 67 -72 0 0 71 -70 0 0 79 -69 0 0 81 -67 0 0 84 -69 0 0 85 -74 0 0 86 -140 0 0 87 -98 0 0 89 -89 0 0 97 -11 0 0 98 -13 0 0 99 -33 0 0 44 -33 0 0 100 -34 0 0 101 -30 0 0 103 -26 0 0 171 -84 0 0 172 -92 0 0 45 -37 0 0 111 -36 0 0 46 -24 0 0 113 -34 0 0 186 -123 0 0 39 -120 0 0 116 -38 0 0 117 -45 0 0 118 -87 0 0 119 -78 0 0 121 -88 0 0
Ligature: 0 0 'liga' A uni030A
EndChar
StartChar: Aogonek
Encoding: 263 260 157
Width: 778
Flags: W
HStem: -145 41<666 688> -20 20G<116 130.5 627 651> 229 40<240 511> 680 20G<376 408>
VStem: 601 47<-81 -63>
DStem: 284 484 367 567 106 79 240 269 284 484 223 229 106 79 195 162 367 567 408 700 493 269 650 132
Fore
756 27 m 1
 756 -3 l 1
 748 -2 736 -2 733 -2 c 0
 684 -2 648 -28 648 -63 c 0
 648 -85 666 -104 688 -104 c 0
 711 -104 735 -92 762 -68 c 1
 778 -89 l 1
 732 -129 701 -145 666 -145 c 0
 630 -145 601 -117 601 -81 c 0
 601 -50 618 -23 651 0 c 1
 627 0 l 2
 613 0 613 0 490 -3 c 1
 490 27 l 1
 537 30 l 2
 562 32 578 39 578 50 c 0
 578 59 574 72 557 114 c 2
 511 229 l 1
 223 229 l 1
 195 162 l 2
 174 112 160 69 160 56 c 0
 160 40 173 33 208 30 c 2
 245 27 l 1
 245 -3 l 1
 137 0 137 0 124 0 c 0
 108 0 108 0 15 -3 c 1
 15 27 l 1
 52 30 l 2
 74 32 94 50 106 79 c 1
 284 484 l 1
 337 605 l 1
 376 700 l 1
 408 700 l 1
 650 132 l 1
 685 51 696 34 722 30 c 2
 756 27 l 1
240 269 m 1
 493 269 l 1
 367 567 l 1
 240 269 l 1
EndSplineSet
Ligature: 0 0 'liga' A uni0328
EndChar
StartChar: Ccedilla
Encoding: 264 199 158
Width: 709
Flags: W
HStem: -225 36<357 377> -107 36<377 407> -20 54<416 454> 667 42<400 439>
VStem: 22 107<334 368> 417 75<-148 -139> 614 31<516 544.7>
DStem: 368 -18 401 -20 329 -108 380 -75
Fore
401 -20 m 1
 380 -75 l 1
 390 -72 397 -71 407 -71 c 0
 459 -71 492 -98 492 -141 c 0
 492 -193 444 -225 368 -225 c 0
 341 -225 327 -222 284 -209 c 1
 298 -178 l 1
 331 -187 345 -189 363 -189 c 0
 398 -189 417 -174 417 -146 c 0
 417 -123 401 -107 377 -107 c 0
 364 -107 355 -109 336 -114 c 1
 329 -108 l 1
 368 -18 l 1
 150 6 22 140 22 342 c 0
 22 476 82 582 196 649 c 0
 263 688 346 709 433 709 c 0
 506 709 579 696 664 668 c 1
 650 602 646 566 645 516 c 1
 614 516 l 1
 614 588 l 2
 614 627 513 667 415 667 c 0
 243 667 129 545 129 361 c 0
 129 164 259 34 454 34 c 0
 530 34 599 54 661 94 c 1
 670 84 l 1
 642 34 l 1
 573 -2 498 -20 416 -20 c 2
 401 -20 l 1
EndSplineSet
KernsSLIF: 65 -22 0 0
Ligature: 0 0 'liga' C uni0327
EndChar
StartChar: Cacute
Encoding: 265 262 159
Width: 709
Flags: W
HStem: -20 54<415 454> 667 42<405 439>
VStem: 22 107<331 365> 614 31<516 544.7>
Fore
670 84 m 1
 642 34 l 1
 573 -2 498 -20 415 -20 c 0
 180 -20 22 126 22 342 c 0
 22 477 82 582 196 649 c 0
 263 688 346 709 433 709 c 0
 506 709 579 696 664 668 c 1
 650 602 646 566 645 516 c 1
 614 516 l 1
 614 588 l 2
 614 627 513 667 415 667 c 0
 243 667 129 545 129 361 c 0
 129 164 259 34 454 34 c 0
 530 34 599 54 661 94 c 1
 670 84 l 1
326 737 m 1
 464 875 l 2
 486 897 504 908 519 908 c 0
 536 908 550 893 550 874 c 0
 550 856 543 848 510 827 c 2
 366 737 l 1
 326 737 l 1
EndSplineSet
Ligature: 0 0 'liga' C acutecomb
EndChar
StartChar: Ccaron
Encoding: 266 268 160
Width: 709
Flags: W
HStem: -20 54<415 454> 667 42<405 439>
VStem: 22 107<331 365> 614 31<516 544.7>
Fore
670 84 m 1
 642 34 l 1
 573 -2 498 -20 415 -20 c 0
 180 -20 22 126 22 342 c 0
 22 477 82 582 196 649 c 0
 263 688 346 709 433 709 c 0
 506 709 579 696 664 668 c 1
 650 602 646 566 645 516 c 1
 614 516 l 1
 614 588 l 2
 614 627 513 667 415 667 c 0
 243 667 129 545 129 361 c 0
 129 164 259 34 454 34 c 0
 530 34 599 54 661 94 c 1
 670 84 l 1
415 805 m 1
 537 908 l 1
 571 908 l 1
 446 741 l 1
 384 741 l 1
 259 908 l 1
 294 908 l 1
 415 805 l 1
EndSplineSet
Ligature: 0 0 'liga' C uni030C
EndChar
StartChar: Dcaron
Encoding: 267 270 161
Width: 774
Flags: W
HStem: -3 44<262.094 343> 652 37<228 343>
VStem: 113 95<78.8983 606> 644 107<357 387>
Fore
57 20 m 1
 88 36 l 2
 104 44 113 66 113 95 c 2
 113 569 l 2
 113 647 108 656 62 659 c 2
 22 662 l 1
 22 692 l 1
 136 690 191 689 228 689 c 0
 271 689 314 690 364 691 c 0
 382 692 395 692 402 692 c 0
 613 692 751 571 751 385 c 0
 751 278 707 170 635 99 c 0
 565 30 469 -3 341 -3 c 0
 327 -3 327 -3 248 -1 c 0
 230 0 214 0 196 0 c 0
 173 0 173 0 57 -3 c 1
 57 20 l 1
208 644 m 1
 208 49 l 1
 234 43 265 41 311 41 c 0
 424 41 484 58 544 107 c 0
 610 161 644 247 644 359 c 0
 644 459 621 531 573 579 c 0
 555 597 536 611 514 620 c 0
 472 639 392 652 319 652 c 0
 269 652 234 649 208 644 c 1
388 805 m 1
 510 908 l 1
 544 908 l 1
 419 741 l 1
 357 741 l 1
 232 908 l 1
 267 908 l 1
 388 805 l 1
EndSplineSet
Ligature: 0 0 'liga' D uni030C
EndChar
StartChar: Edieresis
Encoding: 268 203 162
Width: 611
Flags: W
HStem: -3 42<277 389> 0 164<537 557> 330 42<261 375> 650 39<200 375> 768 100<197 217 403 408>
VStem: 121 95<92 327 120 642> 156 100<818 820> 355 100<818 820> 505 35<537 580.794>
Fore
22 662 m 1xbd80
 22 692 l 1
 121 690 166 689 200 689 c 0
 227 689 270 690 333 691 c 0
 374 692 407 692 432 692 c 0
 476 692 507 691 556 689 c 1
 545 645 540 597 540 537 c 1
 505 537 l 1
 505 602 l 2
 505 625 502 630 478 636 c 0
 446 645 390 650 333 650 c 0
 264 650 247 649 216 642 c 1
 216 375 l 1
 250 373 284 372 326 372 c 0
 392 372 420 375 438 383 c 1
 442 391 445 400 446 409 c 1
 451 461 l 1
 481 461 l 1
 478 361 478 361 478 345 c 0
 478 327 478 327 481 234 c 1
 451 234 l 1
 446 293 l 1
 438 318 l 1
 420 327 393 330 319 330 c 0
 274 330 244 329 216 327 c 1
 216 47 l 1
 245 41 263 39 315 39 c 0xbd80
 405 39 478 44 499 51 c 0
 513 56 526 87 532 130 c 0
 533 134 535 148 537 164 c 1
 572 164 l 1
 562 112 556 58 556 0 c 1x7d80
 420 -3 420 -3 389 -3 c 0xbd80
 367 -3 367 -3 228 -1 c 0
 190 0 162 0 157 0 c 0x7d80
 129 0 100 -1 34 -3 c 1
 34 27 l 1
 70 30 l 2
 117 34 121 41 121 120 c 2
 121 569 l 2
 121 648 116 656 70 659 c 2
 22 662 l 1xbd80
207 868 m 0
 236 868 256 847 256 818 c 0
 256 788 236 768 206 768 c 0
 176 768 156 788 156 818 c 0x3b80
 156 848 176 868 207 868 c 0
406 868 m 0
 435 868 455 847 455 818 c 0
 455 788 435 768 405 768 c 0
 375 768 355 788 355 818 c 0
 355 848 375 868 406 868 c 0
EndSplineSet
Ligature: 0 0 'liga' E uni0308
EndChar
StartChar: Eacute
Encoding: 269 201 163
Width: 611
Flags: W
HStem: -3 42<277 389> 0 164<537 557> 330 42<261 375> 650 39<200 375>
VStem: 121 95<92 327 120 642> 505 35<537 580.794>
Fore
22 662 m 1xbc
 22 692 l 1
 121 690 166 689 200 689 c 0
 227 689 270 690 333 691 c 0
 374 692 407 692 432 692 c 0
 476 692 507 691 556 689 c 1
 545 645 540 597 540 537 c 1
 505 537 l 1
 505 602 l 2
 505 625 502 630 478 636 c 0
 446 645 390 650 333 650 c 0
 264 650 247 649 216 642 c 1
 216 375 l 1
 250 373 284 372 326 372 c 0
 392 372 420 375 438 383 c 1
 442 391 445 400 446 409 c 1
 451 461 l 1
 481 461 l 1
 478 361 478 361 478 345 c 0
 478 327 478 327 481 234 c 1
 451 234 l 1
 446 293 l 1
 438 318 l 1
 420 327 393 330 319 330 c 0
 274 330 244 329 216 327 c 1
 216 47 l 1
 245 41 263 39 315 39 c 0xbc
 405 39 478 44 499 51 c 0
 513 56 526 87 532 130 c 0
 533 134 535 148 537 164 c 1
 572 164 l 1
 562 112 556 58 556 0 c 1x7c
 420 -3 420 -3 389 -3 c 0xbc
 367 -3 367 -3 228 -1 c 0
 190 0 162 0 157 0 c 0x7c
 129 0 100 -1 34 -3 c 1
 34 27 l 1
 70 30 l 2
 117 34 121 41 121 120 c 2
 121 569 l 2
 121 648 116 656 70 659 c 2
 22 662 l 1xbc
224 737 m 1
 362 875 l 2
 384 897 402 908 417 908 c 0
 434 908 448 893 448 874 c 0
 448 856 441 848 408 827 c 2
 264 737 l 1
 224 737 l 1
EndSplineSet
Ligature: 0 0 'liga' E acutecomb
EndChar
StartChar: Egrave
Encoding: 270 200 164
Width: 611
Flags: W
HStem: -3 42<277 389> 0 164<537 557> 330 42<261 375> 650 39<200 375>
VStem: 121 95<92 327 120 642> 505 35<537 580.794>
Fore
22 662 m 1xbc
 22 692 l 1
 121 690 166 689 200 689 c 0
 227 689 270 690 333 691 c 0
 374 692 407 692 432 692 c 0
 476 692 507 691 556 689 c 1
 545 645 540 597 540 537 c 1
 505 537 l 1
 505 602 l 2
 505 625 502 630 478 636 c 0
 446 645 390 650 333 650 c 0
 264 650 247 649 216 642 c 1
 216 375 l 1
 250 373 284 372 326 372 c 0
 392 372 420 375 438 383 c 1
 442 391 445 400 446 409 c 1
 451 461 l 1
 481 461 l 1
 478 361 478 361 478 345 c 0
 478 327 478 327 481 234 c 1
 451 234 l 1
 446 293 l 1
 438 318 l 1
 420 327 393 330 319 330 c 0
 274 330 244 329 216 327 c 1
 216 47 l 1
 245 41 263 39 315 39 c 0xbc
 405 39 478 44 499 51 c 0
 513 56 526 87 532 130 c 0
 533 134 535 148 537 164 c 1
 572 164 l 1
 562 112 556 58 556 0 c 1x7c
 420 -3 420 -3 389 -3 c 0xbc
 367 -3 367 -3 228 -1 c 0
 190 0 162 0 157 0 c 0x7c
 129 0 100 -1 34 -3 c 1
 34 27 l 1
 70 30 l 2
 117 34 121 41 121 120 c 2
 121 569 l 2
 121 648 116 656 70 659 c 2
 22 662 l 1xbc
346 737 m 1
 202 827 l 2
 169 848 162 856 162 874 c 0
 162 893 176 908 193 908 c 0
 207 908 227 896 248 875 c 2
 386 737 l 1
 346 737 l 1
EndSplineSet
Ligature: 0 0 'liga' E gravecomb
EndChar
StartChar: Ecircumflex
Encoding: 271 202 165
Width: 611
Flags: W
HStem: -3 42<274 389> 0 164<537 557> 330 42<261 375> 650 39<200 375>
VStem: 121 95<92 327 120 642> 505 35<537 580.794>
Fore
22 662 m 1xbc
 22 692 l 1
 121 690 166 689 200 689 c 0
 227 689 270 690 333 691 c 0
 374 692 407 692 432 692 c 0
 476 692 507 691 556 689 c 1
 545 645 540 597 540 537 c 1
 505 537 l 1
 505 602 l 2
 505 625 502 630 478 636 c 0
 446 645 390 650 333 650 c 0
 264 650 247 649 216 642 c 1
 216 375 l 1
 250 373 284 372 326 372 c 0
 392 372 420 375 438 383 c 1
 442 391 445 400 446 409 c 1
 451 461 l 1
 481 461 l 1
 478 361 478 361 478 345 c 0
 478 327 478 327 481 234 c 1
 451 234 l 1
 446 293 l 1
 438 318 l 1
 420 327 393 330 319 330 c 0
 274 330 244 329 216 327 c 1
 216 47 l 1
 245 41 263 39 315 39 c 0xbc
 405 39 478 44 499 51 c 0
 513 56 526 87 532 130 c 0
 533 134 535 148 537 164 c 1
 572 164 l 1
 562 112 556 58 556 0 c 1x7c
 420 -3 420 -3 389 -3 c 0xbc
 367 -3 367 -3 228 -1 c 0
 190 0 162 0 157 0 c 0x7c
 129 0 100 -1 34 -3 c 1
 34 27 l 1
 70 30 l 2
 117 34 121 41 121 120 c 2
 121 569 l 2
 121 648 116 656 70 659 c 2
 22 662 l 1xbc
276 908 m 1
 338 908 l 1
 463 741 l 1
 428 741 l 1
 307 844 l 1
 186 741 l 1
 151 741 l 1
 276 908 l 1
EndSplineSet
Ligature: 0 0 'liga' E uni0302
EndChar
StartChar: Ecaron
Encoding: 272 282 166
Width: 611
Flags: W
HStem: -3 42<273 389> 0 164<537 557> 330 42<261 375> 650 39<200 375>
VStem: 121 95<92 327 120 642> 505 35<537 580.794>
Fore
22 662 m 1xbc
 22 692 l 1
 121 690 166 689 200 689 c 0
 227 689 270 690 333 691 c 0
 374 692 407 692 432 692 c 0
 476 692 507 691 556 689 c 1
 545 645 540 597 540 537 c 1
 505 537 l 1
 505 602 l 2
 505 625 502 630 478 636 c 0
 446 645 390 650 333 650 c 0
 264 650 247 649 216 642 c 1
 216 375 l 1
 250 373 284 372 326 372 c 0
 392 372 420 375 438 383 c 1
 442 391 445 400 446 409 c 1
 451 461 l 1
 481 461 l 1
 478 361 478 361 478 345 c 0
 478 327 478 327 481 234 c 1
 451 234 l 1
 446 293 l 1
 438 318 l 1
 420 327 393 330 319 330 c 0
 274 330 244 329 216 327 c 1
 216 47 l 1
 245 41 263 39 315 39 c 0xbc
 405 39 478 44 499 51 c 0
 513 56 526 87 532 130 c 0
 533 134 535 148 537 164 c 1
 572 164 l 1
 562 112 556 58 556 0 c 1x7c
 420 -3 420 -3 389 -3 c 0xbc
 367 -3 367 -3 228 -1 c 0
 190 0 162 0 157 0 c 0x7c
 129 0 100 -1 34 -3 c 1
 34 27 l 1
 70 30 l 2
 117 34 121 41 121 120 c 2
 121 569 l 2
 121 648 116 656 70 659 c 2
 22 662 l 1xbc
306 805 m 1
 428 908 l 1
 462 908 l 1
 337 741 l 1
 275 741 l 1
 150 908 l 1
 185 908 l 1
 306 805 l 1
EndSplineSet
Ligature: 0 0 'liga' E uni030C
EndChar
StartChar: Edotaccent
Encoding: 273 278 167
Width: 611
Flags: W
HStem: -3 42<277 389> 0 164<537 557> 330 42<261 375> 650 39<200 375> 768 100<303 317>
VStem: 121 95<92 327 120 642> 255 100<818 820> 505 35<537 580.794>
Fore
22 662 m 1xbf
 22 692 l 1
 121 690 166 689 200 689 c 0
 227 689 270 690 333 691 c 0
 374 692 407 692 432 692 c 0
 476 692 507 691 556 689 c 1
 545 645 540 597 540 537 c 1
 505 537 l 1
 505 602 l 2
 505 625 502 630 478 636 c 0
 446 645 390 650 333 650 c 0
 264 650 247 649 216 642 c 1
 216 375 l 1
 250 373 284 372 326 372 c 0
 392 372 420 375 438 383 c 1
 442 391 445 400 446 409 c 1
 451 461 l 1
 481 461 l 1
 478 361 478 361 478 345 c 0
 478 327 478 327 481 234 c 1
 451 234 l 1
 446 293 l 1
 438 318 l 1
 420 327 393 330 319 330 c 0
 274 330 244 329 216 327 c 1
 216 47 l 1
 245 41 263 39 315 39 c 0xbf
 405 39 478 44 499 51 c 0
 513 56 526 87 532 130 c 0
 533 134 535 148 537 164 c 1
 572 164 l 1
 562 112 556 58 556 0 c 1x7f
 420 -3 420 -3 389 -3 c 0xbf
 367 -3 367 -3 228 -1 c 0
 190 0 162 0 157 0 c 0x7f
 129 0 100 -1 34 -3 c 1
 34 27 l 1
 70 30 l 2
 117 34 121 41 121 120 c 2
 121 569 l 2
 121 648 116 656 70 659 c 2
 22 662 l 1xbf
306 868 m 0
 335 868 355 847 355 818 c 0
 355 788 335 768 305 768 c 0
 275 768 255 788 255 818 c 0
 255 848 275 868 306 868 c 0
EndSplineSet
Ligature: 0 0 'liga' E uni0307
EndChar
StartChar: Eogonek
Encoding: 274 280 168
Width: 611
Flags: W
HStem: -145 41<499 521> -3 42<277 390> 330 42<261 375> 650 39<200 375>
VStem: 121 95<78 327 120 642> 434 47<-81 -64> 505 35<537 580.794>
Fore
537 164 m 1
 572 164 l 1
 562 112 556 58 556 0 c 1
 511 -2 481 -27 481 -64 c 0
 481 -85 500 -104 521 -104 c 0
 544 -104 568 -92 595 -68 c 1
 611 -89 l 1
 565 -129 534 -145 499 -145 c 0
 463 -145 434 -117 434 -81 c 0
 434 -51 450 -23 481 -2 c 1
 470 -2 l 1
 459 -2 l 2
 435 -3 416 -3 390 -3 c 0
 367 -3 281 -2 228 -1 c 0
 194 0 171 0 157 0 c 0
 129 0 99 -1 34 -3 c 1
 34 27 l 1
 70 30 l 2
 117 34 121 41 121 120 c 2
 121 569 l 2
 121 648 116 656 70 659 c 2
 22 662 l 1
 22 692 l 1
 121 690 166 689 200 689 c 0
 227 689 270 690 333 691 c 0
 374 692 407 692 432 692 c 0
 476 692 507 691 556 689 c 1
 545 645 540 597 540 537 c 1
 505 537 l 1
 505 602 l 2
 505 625 502 630 478 636 c 0
 446 645 390 650 333 650 c 0
 264 650 247 649 216 642 c 1
 216 375 l 1
 250 373 284 372 326 372 c 0
 392 372 420 375 438 383 c 1
 442 391 445 400 446 409 c 1
 451 461 l 1
 481 461 l 1
 478 361 478 361 478 345 c 0
 478 327 478 327 481 234 c 1
 451 234 l 1
 446 293 l 1
 438 318 l 1
 420 327 393 330 319 330 c 0
 274 330 244 329 216 327 c 1
 216 47 l 1
 245 41 263 39 315 39 c 0
 405 39 478 44 499 51 c 0
 513 56 526 87 532 130 c 0
 533 134 535 148 537 164 c 1
EndSplineSet
Ligature: 0 0 'liga' E uni0328
EndChar
StartChar: Gbreve
Encoding: 275 286 169
Width: 763
Flags: W
HStem: -20 42<412 453> 667 42<413 456> 737 60<422 439>
VStem: 22 107<331 364> 596 92<75 205> 641 31<516 551.075>
Fore
641 516 m 1xf4
 641 569 l 2xf4
 641 607 616 630 558 649 c 0
 520 661 476 667 424 667 c 0
 237 667 129 555 129 362 c 0
 129 154 255 22 453 22 c 0
 519 22 579 36 590 55 c 0
 594 62 596 74 596 98 c 2
 596 199 l 2
 596 223 587 232 562 234 c 2
 479 241 l 1
 479 271 l 1
 566 269 572 269 601 269 c 0
 632 269 635 269 724 271 c 1
 728 246 l 1
 699 236 l 2
 689 232 688 230 688 199 c 2
 688 31 l 1xf8
 552 -7 483 -20 412 -20 c 0
 296 -20 188 20 119 89 c 1
 56 150 22 240 22 341 c 0
 22 563 192 709 450 709 c 0
 530 709 581 700 692 668 c 1
 678 614 672 567 672 516 c 1
 641 516 l 1xf4
281 895 m 1
 311 895 l 1
 314 838 360 797 422 797 c 0
 484 797 530 838 533 895 c 1
 563 895 l 1
 561 851 555 829 539 802 c 0
 515 760 473 737 422 737 c 0
 368 737 325 762 301 808 c 0
 288 834 283 854 281 895 c 1
EndSplineSet
Ligature: 0 0 'liga' G uni0306
EndChar
StartChar: Idieresis
Encoding: 276 207 170
Width: 337
Flags: W
HStem: 0 21G<142 194> 768 100<66 72 258 276>
VStem: 19 100<818 820> 121 95<120 606> 218 100<818 820>
CounterMasks: 1 00
Fore
216 569 m 2
 216 120 l 2
 216 41 221 33 267 30 c 2
 315 27 l 1
 315 -3 l 1
 256 -1 220 0 168 0 c 0
 116 0 81 -1 22 -3 c 1
 22 27 l 1
 70 30 l 2
 116 33 121 41 121 120 c 2
 121 569 l 2
 121 648 116 656 70 659 c 2
 22 662 l 1
 22 692 l 1
 94 690 118 689 168 689 c 0
 220 689 242 689 315 692 c 1
 315 662 l 1
 267 659 l 2
 221 656 216 648 216 569 c 2
70 868 m 0
 99 868 119 847 119 818 c 0
 119 788 99 768 69 768 c 0
 39 768 19 788 19 818 c 0
 19 848 39 868 70 868 c 0
269 868 m 0
 298 868 318 847 318 818 c 0
 318 788 298 768 268 768 c 0
 238 768 218 788 218 818 c 0
 218 848 238 868 269 868 c 0
EndSplineSet
Ligature: 0 0 'liga' I uni0308
EndChar
StartChar: Iacute
Encoding: 277 205 171
Width: 337
Flags: W
HStem: 0 21G<142 194>
VStem: 121 95<120 606>
Fore
216 569 m 2
 216 120 l 2
 216 41 221 33 267 30 c 2
 315 27 l 1
 315 -3 l 1
 256 -1 220 0 168 0 c 0
 116 0 81 -1 22 -3 c 1
 22 27 l 1
 70 30 l 2
 116 33 121 41 121 120 c 2
 121 569 l 2
 121 648 116 656 70 659 c 2
 22 662 l 1
 22 692 l 1
 94 690 118 689 168 689 c 0
 220 689 242 689 315 692 c 1
 315 662 l 1
 267 659 l 2
 221 656 216 648 216 569 c 2
80 737 m 1
 218 875 l 2
 240 897 258 908 273 908 c 0
 290 908 304 893 304 874 c 0
 304 856 297 848 264 827 c 2
 120 737 l 1
 80 737 l 1
EndSplineSet
Ligature: 0 0 'liga' I acutecomb
EndChar
StartChar: Igrave
Encoding: 278 204 172
Width: 337
Flags: W
HStem: 0 21G<142 194>
VStem: 121 95<120 606>
Fore
216 569 m 2
 216 120 l 2
 216 41 221 33 267 30 c 2
 315 27 l 1
 315 -3 l 1
 256 -1 220 0 168 0 c 0
 116 0 81 -1 22 -3 c 1
 22 27 l 1
 70 30 l 2
 116 33 121 41 121 120 c 2
 121 569 l 2
 121 648 116 656 70 659 c 2
 22 662 l 1
 22 692 l 1
 94 690 118 689 168 689 c 0
 220 689 242 689 315 692 c 1
 315 662 l 1
 267 659 l 2
 221 656 216 648 216 569 c 2
209 737 m 1
 65 827 l 2
 32 848 25 856 25 874 c 0
 25 893 39 908 56 908 c 0
 70 908 90 896 111 875 c 2
 249 737 l 1
 209 737 l 1
EndSplineSet
Ligature: 0 0 'liga' I gravecomb
EndChar
StartChar: Icircumflex
Encoding: 279 206 173
Width: 337
Flags: W
HStem: 0 21G<142 194>
VStem: 121 95<120 606>
Fore
216 569 m 2
 216 120 l 2
 216 41 221 33 267 30 c 2
 315 27 l 1
 315 -3 l 1
 256 -1 220 0 168 0 c 0
 116 0 81 -1 22 -3 c 1
 22 27 l 1
 70 30 l 2
 116 33 121 41 121 120 c 2
 121 569 l 2
 121 648 116 656 70 659 c 2
 22 662 l 1
 22 692 l 1
 94 690 118 689 168 689 c 0
 220 689 242 689 315 692 c 1
 315 662 l 1
 267 659 l 2
 221 656 216 648 216 569 c 2
138 908 m 1
 200 908 l 1
 325 741 l 1
 290 741 l 1
 169 844 l 1
 48 741 l 1
 13 741 l 1
 138 908 l 1
EndSplineSet
Ligature: 0 0 'liga' I uni0302
EndChar
StartChar: Idotaccent
Encoding: 280 304 174
Width: 337
Flags: W
HStem: 0 21G<142 194> 768 100<165 171>
VStem: 118 100<818 820>
Fore
216 569 m 2
 216 120 l 2
 216 41 221 33 267 30 c 2
 315 27 l 1
 315 -3 l 1
 256 -1 220 0 168 0 c 0
 116 0 81 -1 22 -3 c 1
 22 27 l 1
 70 30 l 2
 116 33 121 41 121 120 c 2
 121 569 l 2
 121 648 116 656 70 659 c 2
 22 662 l 1
 22 692 l 1
 94 690 118 689 168 689 c 0
 220 689 242 689 315 692 c 1
 315 662 l 1
 267 659 l 2
 221 656 216 648 216 569 c 2
169 868 m 0
 198 868 218 847 218 818 c 0
 218 788 198 768 168 768 c 0
 138 768 118 788 118 818 c 0
 118 848 138 868 169 868 c 0
EndSplineSet
Ligature: 0 0 'liga' I uni0307
EndChar
StartChar: Lacute
Encoding: 281 313 175
Width: 611
Flags: W
HStem: -3 42<265 397> -1 40<211 301> 0 172<554 566>
VStem: 121 95<78.8983 606>
Fore
216 569 m 2x90
 216 47 l 1
 242 41 265 39 301 39 c 0x90
 420 39 507 46 520 57 c 0
 526 62 533 82 539 111 c 0
 540 112 541 119 542 122 c 1
 554 172 l 1
 586 172 l 1
 576 75 572 43 565 0 c 1x30
 429 -3 429 -3 397 -3 c 0x90
 369 -3 260 -2 211 -1 c 0x50
 189 0 173 0 164 0 c 0x30
 138 0 131 0 65 -3 c 1
 65 20 l 1
 96 36 l 2
 112 44 121 66 121 95 c 2
 121 569 l 2
 121 648 116 656 70 659 c 2
 22 662 l 1
 22 692 l 1
 94 690 118 689 168 689 c 0
 220 689 242 689 315 692 c 1
 315 662 l 1
 267 659 l 2
 221 656 216 648 216 569 c 2x90
177 737 m 1
 315 875 l 2
 337 897 355 908 370 908 c 0
 387 908 401 893 401 874 c 0
 401 856 394 848 361 827 c 2
 217 737 l 1
 177 737 l 1
EndSplineSet
Ligature: 0 0 'liga' L acutecomb
EndChar
StartChar: Lcaron
Encoding: 282 317 176
Width: 611
Flags: W
HStem: -3 42<265 397> -1 40<211 301> 0 172<554 566>
VStem: 121 95<78.8983 606>
Fore
216 569 m 2x90
 216 47 l 1
 242 41 265 39 301 39 c 0x90
 420 39 507 46 520 57 c 0
 526 62 533 82 539 111 c 0
 540 112 541 119 542 122 c 1
 554 172 l 1
 586 172 l 1
 576 75 572 43 565 0 c 1x30
 429 -3 429 -3 397 -3 c 0x90
 369 -3 260 -2 211 -1 c 0x50
 189 0 173 0 164 0 c 0x30
 138 0 131 0 65 -3 c 1
 65 20 l 1
 96 36 l 2
 112 44 121 66 121 95 c 2
 121 569 l 2
 121 648 116 656 70 659 c 2
 22 662 l 1
 22 692 l 1
 94 690 118 689 168 689 c 0
 220 689 242 689 315 692 c 1
 315 662 l 1
 267 659 l 2
 221 656 216 648 216 569 c 2x90
414 481 m 1
 375 459 l 1
 361 468 l 1
 404 537 425 597 431 669 c 1
 478 683 486 685 519 696 c 1
 530 684 l 1
 500 606 466 547 414 481 c 1
EndSplineSet
Ligature: 0 0 'liga' L uni030C
EndChar
StartChar: Nacute
Encoding: 283 323 177
Width: 831
Flags: W
HStem: -20 20G<124.5 140.5>
VStem: 112 46<120 583> 672 46<98 605>
DStem: 158 583 191 692 631 -4 672 98
Fore
137 689 m 1
 191 692 l 1
 672 98 l 1
 672 569 l 2
 672 647 667 656 621 659 c 2
 577 662 l 1
 577 692 l 1
 676 689 676 689 693 689 c 0
 708 689 708 689 813 692 c 1
 813 662 l 1
 769 659 l 2
 723 656 718 647 718 569 c 2
 718 17 l 2
 718 11 719 3 720 -8 c 0
 721 -15 721 -16 721 -20 c 1
 631 -4 l 1
 158 583 l 1
 158 120 l 2
 158 42 163 33 209 30 c 2
 253 27 l 1
 253 -3 l 1
 148 0 148 0 133 0 c 0
 116 0 116 0 17 -3 c 1
 17 27 l 1
 61 30 l 2
 107 33 112 42 112 120 c 2
 112 569 l 2
 112 647 107 656 61 659 c 2
 17 662 l 1
 17 692 l 1
 72 690 81 690 137 689 c 1
327 737 m 1
 465 875 l 2
 487 897 505 908 520 908 c 0
 537 908 551 893 551 874 c 0
 551 856 544 848 511 827 c 2
 367 737 l 1
 327 737 l 1
EndSplineSet
Ligature: 0 0 'liga' N acutecomb
EndChar
StartChar: Ncaron
Encoding: 284 327 178
Width: 831
Flags: W
HStem: -20 20G<124.5 140.5>
VStem: 112 46<120 583> 672 46<98 605>
DStem: 158 583 191 692 631 -4 672 98
Fore
137 689 m 1
 191 692 l 1
 672 98 l 1
 672 569 l 2
 672 647 667 656 621 659 c 2
 577 662 l 1
 577 692 l 1
 676 689 676 689 693 689 c 0
 708 689 708 689 813 692 c 1
 813 662 l 1
 769 659 l 2
 723 656 718 647 718 569 c 2
 718 17 l 2
 718 11 719 3 720 -8 c 0
 721 -15 721 -16 721 -20 c 1
 631 -4 l 1
 158 583 l 1
 158 120 l 2
 158 42 163 33 209 30 c 2
 253 27 l 1
 253 -3 l 1
 148 0 148 0 133 0 c 0
 116 0 116 0 17 -3 c 1
 17 27 l 1
 61 30 l 2
 107 33 112 42 112 120 c 2
 112 569 l 2
 112 647 107 656 61 659 c 2
 17 662 l 1
 17 692 l 1
 72 690 81 690 137 689 c 1
416 805 m 1
 538 908 l 1
 572 908 l 1
 447 741 l 1
 385 741 l 1
 260 908 l 1
 295 908 l 1
 416 805 l 1
EndSplineSet
Ligature: 0 0 'liga' N uni030C
EndChar
StartChar: Ntilde
Encoding: 285 209 179
Width: 831
Flags: W
HStem: -20 20G<124.5 140.5> 766 55<473 494> 811 55<334 358>
VStem: 112 46<120 583> 672 46<98 605>
DStem: 158 583 191 692 631 -4 672 98
Fore
137 689 m 1x98
 191 692 l 1
 672 98 l 1
 672 569 l 2
 672 647 667 656 621 659 c 2
 577 662 l 1
 577 692 l 1
 676 689 676 689 693 689 c 0
 708 689 708 689 813 692 c 1
 813 662 l 1
 769 659 l 2
 723 656 718 647 718 569 c 2
 718 17 l 2
 718 11 719 3 720 -8 c 0
 721 -15 721 -16 721 -20 c 1
 631 -4 l 1
 158 583 l 1
 158 120 l 2
 158 42 163 33 209 30 c 2
 253 27 l 1
 253 -3 l 1
 148 0 148 0 133 0 c 0
 116 0 116 0 17 -3 c 1
 17 27 l 1
 61 30 l 2
 107 33 112 42 112 120 c 2
 112 569 l 2
 112 647 107 656 61 659 c 2
 17 662 l 1
 17 692 l 1
 72 690 81 690 137 689 c 1x98
553 871 m 1
 582 871 l 1
 578 813 530 766 473 766 c 0xd8
 451 766 435 771 405 785 c 0
 368 804 348 811 334 811 c 0xb8
 310 811 294 797 281 766 c 1
 252 766 l 1xd8
 266 831 303 866 358 866 c 0xb8
 382 866 394 862 447 836 c 0
 471 825 482 821 494 821 c 0xd8
 522 821 538 834 553 871 c 1
EndSplineSet
Ligature: 0 0 'liga' N tildecomb
EndChar
StartChar: Odieresis
Encoding: 286 214 180
Width: 786
Flags: W
HStem: -20 42<370 410> 667 42<369 412> 768 100<292 297 485 503>
VStem: 22 107<341 378> 244 100<818 829> 443 100<818 829> 657 107<337 369>
Fore
402 709 m 0
 624 709 764 577 764 367 c 0
 764 147 594 -20 370 -20 c 0
 168 -20 22 131 22 341 c 0
 22 561 174 709 402 709 c 0
385 667 m 0
 221 667 129 563 129 378 c 0
 129 164 242 22 410 22 c 0
 565 22 657 139 657 337 c 0
 657 545 556 667 385 667 c 0
295 868 m 0
 324 868 344 847 344 818 c 0
 344 788 324 768 294 768 c 0
 264 768 244 788 244 818 c 0
 244 848 264 868 295 868 c 0
494 868 m 0
 523 868 543 847 543 818 c 0
 543 788 523 768 493 768 c 0
 463 768 443 788 443 818 c 0
 443 848 463 868 494 868 c 0
EndSplineSet
KernsSLIF: 65 -76 0 0 84 -17 0 0 86 -56 0 0 87 -44 0 0 88 -59 0 0 89 -52 0 0
Ligature: 0 0 'liga' O uni0308
EndChar
StartChar: Oacute
Encoding: 287 211 181
Width: 786
Flags: W
HStem: -20 42<370 410> 667 42<369 412>
VStem: 22 107<341 378> 657 107<337 369>
Fore
402 709 m 0
 624 709 764 577 764 367 c 0
 764 147 594 -20 370 -20 c 0
 168 -20 22 131 22 341 c 0
 22 561 174 709 402 709 c 0
385 667 m 0
 221 667 129 563 129 378 c 0
 129 164 242 22 410 22 c 0
 565 22 657 139 657 337 c 0
 657 545 556 667 385 667 c 0
311 737 m 1
 449 875 l 2
 471 897 489 908 504 908 c 0
 521 908 535 893 535 874 c 0
 535 856 528 848 495 827 c 2
 351 737 l 1
 311 737 l 1
EndSplineSet
KernsSLIF: 65 -76 0 0 84 -17 0 0 86 -56 0 0 87 -44 0 0 89 -52 0 0
Ligature: 0 0 'liga' O acutecomb
EndChar
StartChar: Ograve
Encoding: 288 210 182
Width: 786
Flags: W
HStem: -20 42<370 410> 667 42<369 412>
VStem: 22 107<341 378> 657 107<337 369>
Fore
402 709 m 0
 624 709 764 577 764 367 c 0
 764 147 594 -20 370 -20 c 0
 168 -20 22 131 22 341 c 0
 22 561 174 709 402 709 c 0
385 667 m 0
 221 667 129 563 129 378 c 0
 129 164 242 22 410 22 c 0
 565 22 657 139 657 337 c 0
 657 545 556 667 385 667 c 0
434 737 m 1
 290 827 l 2
 257 848 250 856 250 874 c 0
 250 893 264 908 281 908 c 0
 295 908 315 896 336 875 c 2
 474 737 l 1
 434 737 l 1
EndSplineSet
KernsSLIF: 84 -17 0 0 86 -56 0 0 89 -52 0 0
Ligature: 0 0 'liga' O gravecomb
EndChar
StartChar: Ocircumflex
Encoding: 289 212 183
Width: 786
Flags: W
HStem: -20 42<370 410> 667 42<369 412>
VStem: 22 107<341 378> 657 107<337 369>
Fore
402 709 m 0
 624 709 764 577 764 367 c 0
 764 147 594 -20 370 -20 c 0
 168 -20 22 131 22 341 c 0
 22 561 174 709 402 709 c 0
385 667 m 0
 221 667 129 563 129 378 c 0
 129 164 242 22 410 22 c 0
 565 22 657 139 657 337 c 0
 657 545 556 667 385 667 c 0
363 908 m 1
 425 908 l 1
 550 741 l 1
 515 741 l 1
 394 844 l 1
 273 741 l 1
 238 741 l 1
 363 908 l 1
EndSplineSet
KernsSLIF: 84 -17 0 0 86 -56 0 0 89 -52 0 0
Ligature: 0 0 'liga' O uni0302
EndChar
StartChar: Otilde
Encoding: 290 213 184
Width: 786
Flags: W
HStem: -20 42<370 410> 667 42<369 412> 766 55<450 471> 811 55<311 335>
VStem: 22 107<341 378> 657 107<337 369>
Fore
402 709 m 0xcc
 624 709 764 577 764 367 c 0
 764 147 594 -20 370 -20 c 0
 168 -20 22 131 22 341 c 0
 22 561 174 709 402 709 c 0xcc
385 667 m 0
 221 667 129 563 129 378 c 0
 129 164 242 22 410 22 c 0
 565 22 657 139 657 337 c 0
 657 545 556 667 385 667 c 0
530 871 m 1
 559 871 l 1
 555 813 507 766 450 766 c 0xec
 428 766 412 771 382 785 c 0
 345 804 325 811 311 811 c 0xdc
 287 811 271 797 258 766 c 1
 229 766 l 1xec
 243 831 280 866 335 866 c 0xdc
 359 866 371 862 424 836 c 0
 448 825 459 821 471 821 c 0xec
 499 821 515 834 530 871 c 1
EndSplineSet
KernsSLIF: 84 -17 0 0 86 -56 0 0 89 -52 0 0
Ligature: 0 0 'liga' O tildecomb
EndChar
StartChar: Ohungarumlaut
Encoding: 291 336 185
Width: 786
Flags: W
HStem: -20 42<370 410> 667 42<369 412>
VStem: 22 107<341 378> 657 107<337 369>
Fore
402 709 m 0
 624 709 764 577 764 367 c 0
 764 147 594 -20 370 -20 c 0
 168 -20 22 131 22 341 c 0
 22 561 174 709 402 709 c 0
385 667 m 0
 221 667 129 563 129 378 c 0
 129 164 242 22 410 22 c 0
 565 22 657 139 657 337 c 0
 657 545 556 667 385 667 c 0
206 737 m 1
 334 885 l 2
 351 905 373 918 389 918 c 0
 406 918 420 903 420 885 c 0
 420 869 410 856 381 835 c 2
 246 737 l 1
 206 737 l 1
366 737 m 1
 494 885 l 2
 511 905 533 918 549 918 c 0
 566 918 580 903 580 885 c 0
 580 869 570 856 541 835 c 2
 406 737 l 1
 366 737 l 1
EndSplineSet
Ligature: 0 0 'liga' O uni030B
EndChar
StartChar: Racute
Encoding: 292 340 186
Width: 668
Flags: W
HStem: 0 21G<142 194 591.5 601.5> 654 35<202 327>
VStem: 121 95<120 606> 476 100<521 542>
DStem: 304 298 381 349 488 51 608 53
Fore
216 642 m 1
 216 120 l 2
 216 41 221 33 267 30 c 2
 315 27 l 1
 315 -3 l 1
 256 -1 220 0 168 0 c 0
 116 0 81 -1 22 -3 c 1
 22 27 l 1
 70 30 l 2
 116 33 121 41 121 120 c 2
 121 569 l 2
 121 647 116 656 70 659 c 2
 29 662 l 1
 29 692 l 1
 169 689 169 689 202 689 c 0
 236 689 236 689 366 692 c 2
 382 692 l 2
 506 692 576 638 576 542 c 0
 576 484 548 434 496 397 c 0
 463 374 437 363 381 349 c 1
 608 53 l 2
 621 36 637 30 669 27 c 1
 669 -3 l 1
 606 0 606 0 597 0 c 0
 586 0 576 0 529 -3 c 1
 506 28 l 2
 500 35 494 43 488 51 c 2
 304 298 l 2
 295 310 292 314 278 330 c 0
 266 343 263 347 252 360 c 1
 258 372 l 1
 271 371 280 371 287 371 c 0
 403 371 476 429 476 521 c 0
 476 606 418 654 314 654 c 0
 280 654 250 650 216 642 c 1
246 737 m 1
 384 875 l 2
 406 897 424 908 439 908 c 0
 456 908 470 893 470 874 c 0
 470 856 463 848 430 827 c 2
 286 737 l 1
 246 737 l 1
EndSplineSet
Ligature: 0 0 'liga' R acutecomb
EndChar
StartChar: Rcaron
Encoding: 293 344 187
Width: 668
Flags: W
HStem: 0 21G<142 194 591.5 601.5> 654 35<202 337>
VStem: 121 95<120 606> 476 100<521 542>
DStem: 304 298 381 349 488 51 608 53
Fore
216 642 m 1
 216 120 l 2
 216 41 221 33 267 30 c 2
 315 27 l 1
 315 -3 l 1
 256 -1 220 0 168 0 c 0
 116 0 81 -1 22 -3 c 1
 22 27 l 1
 70 30 l 2
 116 33 121 41 121 120 c 2
 121 569 l 2
 121 647 116 656 70 659 c 2
 29 662 l 1
 29 692 l 1
 169 689 169 689 202 689 c 0
 236 689 236 689 366 692 c 2
 382 692 l 2
 506 692 576 638 576 542 c 0
 576 484 548 434 496 397 c 0
 463 374 437 363 381 349 c 1
 608 53 l 2
 621 36 637 30 669 27 c 1
 669 -3 l 1
 606 0 606 0 597 0 c 0
 586 0 576 0 529 -3 c 1
 506 28 l 2
 500 35 494 43 488 51 c 2
 304 298 l 2
 295 310 292 314 278 330 c 0
 266 343 263 347 252 360 c 1
 258 372 l 1
 271 371 280 371 287 371 c 0
 403 371 476 429 476 521 c 0
 476 606 418 654 314 654 c 0
 280 654 250 650 216 642 c 1
335 805 m 1
 457 908 l 1
 491 908 l 1
 366 741 l 1
 304 741 l 1
 179 908 l 1
 214 908 l 1
 335 805 l 1
EndSplineSet
Ligature: 0 0 'liga' R uni030C
EndChar
StartChar: Sacute
Encoding: 294 346 188
Width: 525
Flags: W
HStem: -20 44<203 240> 667 42<257 283>
VStem: 24 84<484 523> 419 84<179 230>
Fore
447 526 m 1
 415 526 l 1
 409 583 l 2
 406 612 395 627 362 644 c 0
 335 659 298 667 259 667 c 0
 171 667 108 607 108 523 c 0
 108 446 151 413 273 397 c 0
 385 382 427 369 462 336 c 0
 490 310 503 277 503 230 c 0
 503 85 377 -20 203 -20 c 0
 145 -20 87 -7 30 18 c 1
 36 63 38 85 38 131 c 0
 38 137 38 153 37 171 c 1
 69 171 l 1
 77 104 l 2
 82 63 160 24 240 24 c 0
 344 24 419 89 419 179 c 0
 419 217 407 246 381 267 c 1
 355 290 320 301 243 312 c 0
 146 325 100 341 66 372 c 0
 37 399 24 435 24 484 c 0
 24 615 132 709 281 709 c 0
 336 709 381 699 461 667 c 1
 451 613 447 579 447 526 c 1
174 737 m 1
 312 875 l 2
 334 897 352 908 367 908 c 0
 384 908 398 893 398 874 c 0
 398 856 391 848 358 827 c 2
 214 737 l 1
 174 737 l 1
EndSplineSet
Ligature: 0 0 'liga' S acutecomb
EndChar
StartChar: Scaron
Encoding: 295 352 189
Width: 525
Flags: W
HStem: -20 44<203 240> 667 42<257 283>
VStem: 24 84<484 523> 419 84<179 230>
Fore
447 526 m 1
 415 526 l 1
 409 583 l 2
 406 612 395 627 362 644 c 0
 335 659 298 667 259 667 c 0
 171 667 108 607 108 523 c 0
 108 446 151 413 273 397 c 0
 385 382 427 369 462 336 c 0
 490 310 503 277 503 230 c 0
 503 85 377 -20 203 -20 c 0
 145 -20 87 -7 30 18 c 1
 36 63 38 85 38 131 c 0
 38 137 38 153 37 171 c 1
 69 171 l 1
 77 104 l 2
 82 63 160 24 240 24 c 0
 344 24 419 89 419 179 c 0
 419 217 407 246 381 267 c 1
 355 290 320 301 243 312 c 0
 146 325 100 341 66 372 c 0
 37 399 24 435 24 484 c 0
 24 615 132 709 281 709 c 0
 336 709 381 699 461 667 c 1
 451 613 447 579 447 526 c 1
263 805 m 1
 385 908 l 1
 419 908 l 1
 294 741 l 1
 232 741 l 1
 107 908 l 1
 142 908 l 1
 263 805 l 1
EndSplineSet
Ligature: 0 0 'liga' S uni030C
EndChar
StartChar: Scedilla
Encoding: 296 350 190
Width: 525
Flags: W
HStem: -225 36<215 246> -107 36<245 275> -20 44<203 240> 667 42<257 283>
VStem: 24 84<484 523> 285 75<-148 -139> 419 84<179 230>
DStem: 235 -19 272 -14 197 -108 248 -75
Fore
447 526 m 1
 415 526 l 1
 409 583 l 2
 406 612 395 627 362 644 c 0
 335 659 298 667 259 667 c 0
 171 667 108 607 108 523 c 0
 108 446 151 413 273 397 c 0
 386 382 427 368 462 336 c 0
 491 309 503 277 503 230 c 0
 503 106 416 14 272 -14 c 1
 248 -75 l 1
 258 -72 265 -71 275 -71 c 0
 327 -71 360 -98 360 -141 c 0
 360 -193 312 -225 236 -225 c 0
 209 -225 195 -222 152 -209 c 1
 166 -178 l 1
 199 -187 213 -189 231 -189 c 0
 266 -189 285 -174 285 -146 c 0
 285 -123 269 -107 245 -107 c 0
 232 -107 223 -109 204 -114 c 1
 197 -108 l 1
 235 -19 l 1
 221 -20 213 -20 203 -20 c 0
 145 -20 87 -7 30 18 c 1
 36 63 38 85 38 131 c 0
 38 137 38 153 37 171 c 1
 69 171 l 1
 77 104 l 2
 82 63 160 24 240 24 c 0
 344 24 419 89 419 179 c 0
 419 217 407 246 381 267 c 1
 355 290 320 301 243 312 c 0
 146 325 100 341 66 372 c 0
 37 399 24 435 24 484 c 0
 24 615 132 709 281 709 c 0
 336 709 381 699 461 667 c 1
 451 613 447 579 447 526 c 1
EndSplineSet
Ligature: 0 0 'liga' S uni0327
EndChar
StartChar: Tcaron
Encoding: 297 356 191
Width: 613
Flags: W
HStem: 0 21G<280 332> 643 48<18 255 221 515>
VStem: 259 95<120 590>
Fore
255 643 m 1
 100 643 l 2
 72 643 61 634 60 610 c 1
 56 531 l 1
 25 531 l 1
 25 596 23 635 18 692 c 1
 86 691 l 2
 157 690 211 689 221 689 c 2
 379 689 l 2
 394 689 423 689 462 690 c 0
 490 691 523 691 595 692 c 1
 590 635 588 596 588 531 c 1
 557 531 l 1
 553 610 l 1
 552 634 541 643 513 643 c 2
 358 643 l 1
 355 610 354 588 354 543 c 2
 354 120 l 2
 354 41 359 33 405 30 c 2
 453 27 l 1
 453 -3 l 1
 394 -1 358 0 306 0 c 0
 254 0 219 -1 160 -3 c 1
 160 27 l 1
 208 30 l 2
 254 33 259 41 259 120 c 2
 259 543 l 2
 259 586 258 609 255 643 c 1
307 805 m 1
 429 908 l 1
 463 908 l 1
 338 741 l 1
 276 741 l 1
 151 908 l 1
 186 908 l 1
 307 805 l 1
EndSplineSet
Ligature: 0 0 'liga' T uni030C
EndChar
StartChar: Udieresis
Encoding: 298 220 192
Width: 778
Flags: W
HStem: -20 62<376 413> 768 100<299 307 501 509>
VStem: 111 95<203 605> 254 100<818 829> 453 100<818 829> 618 46<247 605>
Fore
664 569 m 2
 664 280 l 2
 664 169 642 94 595 47 c 0
 550 1 481 -20 378 -20 c 0
 278 -20 207 1 167 42 c 0
 129 81 111 136 111 214 c 2
 111 569 l 2
 111 648 106 656 60 659 c 2
 12 662 l 1
 12 692 l 1
 84 690 108 689 158 689 c 0
 210 689 232 689 305 692 c 1
 305 662 l 1
 257 659 l 2
 211 656 206 648 206 569 c 2
 206 225 l 2
 206 97 266 42 405 42 c 0
 550 42 618 108 618 249 c 2
 618 569 l 2
 618 647 613 656 567 659 c 2
 523 662 l 1
 523 692 l 1
 622 689 622 689 639 689 c 0
 654 689 654 689 759 692 c 1
 759 662 l 1
 715 659 l 2
 669 656 664 647 664 569 c 2
305 868 m 0
 334 868 354 847 354 818 c 0
 354 788 334 768 304 768 c 0
 274 768 254 788 254 818 c 0
 254 848 274 868 305 868 c 0
504 868 m 0
 533 868 553 847 553 818 c 0
 553 788 533 768 503 768 c 0
 473 768 453 788 453 818 c 0
 453 848 473 868 504 868 c 0
EndSplineSet
KernsSLIF: 65 -80 0 0 98 24 0 0 44 -66 0 0 109 -39 0 0 110 -33 0 0 112 -35 0 0 46 -49 0 0 114 -41 0 0
Ligature: 0 0 'liga' U uni0308
EndChar
StartChar: Uacute
Encoding: 299 218 193
Width: 778
Flags: W
HStem: -20 62<376 413>
VStem: 111 95<203 605> 618 46<247 605>
Fore
664 569 m 2
 664 280 l 2
 664 169 642 94 595 47 c 0
 550 1 481 -20 378 -20 c 0
 278 -20 207 1 167 42 c 0
 129 81 111 136 111 214 c 2
 111 569 l 2
 111 648 106 656 60 659 c 2
 12 662 l 1
 12 692 l 1
 84 690 108 689 158 689 c 0
 210 689 232 689 305 692 c 1
 305 662 l 1
 257 659 l 2
 211 656 206 648 206 569 c 2
 206 225 l 2
 206 97 266 42 405 42 c 0
 550 42 618 108 618 249 c 2
 618 569 l 2
 618 647 613 656 567 659 c 2
 523 662 l 1
 523 692 l 1
 622 689 622 689 639 689 c 0
 654 689 654 689 759 692 c 1
 759 662 l 1
 715 659 l 2
 669 656 664 647 664 569 c 2
328 737 m 1
 466 875 l 2
 488 897 506 908 521 908 c 0
 538 908 552 893 552 874 c 0
 552 856 545 848 512 827 c 2
 368 737 l 1
 328 737 l 1
EndSplineSet
KernsSLIF: 65 -80 0 0 44 -66 0 0 109 -39 0 0 110 -33 0 0 112 -35 0 0 46 -49 0 0 114 -41 0 0
Ligature: 0 0 'liga' U acutecomb
EndChar
StartChar: Ugrave
Encoding: 300 217 194
Width: 778
Flags: W
HStem: -20 62<376 413>
VStem: 111 95<203 605> 618 46<247 605>
Fore
664 569 m 2
 664 280 l 2
 664 169 642 94 595 47 c 0
 550 1 481 -20 378 -20 c 0
 278 -20 207 1 167 42 c 0
 129 81 111 136 111 214 c 2
 111 569 l 2
 111 648 106 656 60 659 c 2
 12 662 l 1
 12 692 l 1
 84 690 108 689 158 689 c 0
 210 689 232 689 305 692 c 1
 305 662 l 1
 257 659 l 2
 211 656 206 648 206 569 c 2
 206 225 l 2
 206 97 266 42 405 42 c 0
 550 42 618 108 618 249 c 2
 618 569 l 2
 618 647 613 656 567 659 c 2
 523 662 l 1
 523 692 l 1
 622 689 622 689 639 689 c 0
 654 689 654 689 759 692 c 1
 759 662 l 1
 715 659 l 2
 669 656 664 647 664 569 c 2
454 737 m 1
 310 827 l 2
 277 848 270 856 270 874 c 0
 270 893 284 908 301 908 c 0
 315 908 335 896 356 875 c 2
 494 737 l 1
 454 737 l 1
EndSplineSet
KernsSLIF: 65 -80 0 0
Ligature: 0 0 'liga' U gravecomb
EndChar
StartChar: Ucircumflex
Encoding: 301 219 195
Width: 778
Flags: W
HStem: -20 62<376 415>
VStem: 111 95<203 605> 618 46<247 605>
Fore
664 569 m 2
 664 280 l 2
 664 169 642 94 595 47 c 0
 550 1 481 -20 378 -20 c 0
 278 -20 207 1 167 42 c 0
 129 81 111 136 111 214 c 2
 111 569 l 2
 111 648 106 656 60 659 c 2
 12 662 l 1
 12 692 l 1
 84 690 108 689 158 689 c 0
 210 689 232 689 305 692 c 1
 305 662 l 1
 257 659 l 2
 211 656 206 648 206 569 c 2
 206 225 l 2
 206 97 266 42 405 42 c 0
 550 42 618 108 618 249 c 2
 618 569 l 2
 618 647 613 656 567 659 c 2
 523 662 l 1
 523 692 l 1
 622 689 622 689 639 689 c 0
 654 689 654 689 759 692 c 1
 759 662 l 1
 715 659 l 2
 669 656 664 647 664 569 c 2
384 908 m 1
 446 908 l 1
 571 741 l 1
 536 741 l 1
 415 844 l 1
 294 741 l 1
 259 741 l 1
 384 908 l 1
EndSplineSet
KernsSLIF: 65 -80 0 0
Ligature: 0 0 'liga' U uni0302
EndChar
StartChar: Uring
Encoding: 302 366 196
Width: 778
Flags: W
HStem: -20 62<376 413> 743 36<389 397> 907 36<377 397>
VStem: 111 95<203 605> 289 38<830.266 847> 451 38<830.207 846> 618 46<247 605>
Fore
664 569 m 2
 664 280 l 2
 664 169 642 94 595 47 c 0
 550 1 481 -20 378 -20 c 0
 278 -20 207 1 167 42 c 0
 129 81 111 136 111 214 c 2
 111 569 l 2
 111 648 106 656 60 659 c 2
 12 662 l 1
 12 692 l 1
 84 690 108 689 158 689 c 0
 210 689 232 689 305 692 c 1
 305 662 l 1
 257 659 l 2
 211 656 206 648 206 569 c 2
 206 225 l 2
 206 97 266 42 405 42 c 0
 550 42 618 108 618 249 c 2
 618 569 l 2
 618 647 613 656 567 659 c 2
 523 662 l 1
 523 692 l 1
 622 689 622 689 639 689 c 0
 654 689 654 689 759 692 c 1
 759 662 l 1
 715 659 l 2
 669 656 664 647 664 569 c 2
391 943 m 0
 444 943 489 898 489 843 c 0
 489 787 444 743 389 743 c 0
 333 743 289 787 289 844 c 0
 289 899 334 943 391 943 c 0
390 907 m 0
 352 907 327 882 327 844 c 0
 327 804 351 779 389 779 c 0
 426 779 451 805 451 843 c 0
 451 881 426 907 390 907 c 0
EndSplineSet
Ligature: 0 0 'liga' U uni030A
EndChar
StartChar: Uhungarumlaut
Encoding: 303 368 197
Width: 778
Flags: W
HStem: -20 62<375 416>
VStem: 111 95<203 605> 618 46<247 605>
Fore
664 569 m 2
 664 280 l 2
 664 169 642 94 595 47 c 0
 550 1 481 -20 378 -20 c 0
 278 -20 207 1 167 42 c 0
 129 81 111 136 111 214 c 2
 111 569 l 2
 111 648 106 656 60 659 c 2
 12 662 l 1
 12 692 l 1
 84 690 108 689 158 689 c 0
 210 689 232 689 305 692 c 1
 305 662 l 1
 257 659 l 2
 211 656 206 648 206 569 c 2
 206 225 l 2
 206 97 266 42 405 42 c 0
 550 42 618 108 618 249 c 2
 618 569 l 2
 618 647 613 656 567 659 c 2
 523 662 l 1
 523 692 l 1
 622 689 622 689 639 689 c 0
 654 689 654 689 759 692 c 1
 759 662 l 1
 715 659 l 2
 669 656 664 647 664 569 c 2
202 737 m 1
 330 885 l 2
 347 905 369 918 385 918 c 0
 402 918 416 903 416 885 c 0
 416 869 406 856 377 835 c 2
 242 737 l 1
 202 737 l 1
362 737 m 1
 490 885 l 2
 507 905 529 918 545 918 c 0
 562 918 576 903 576 885 c 0
 576 869 566 856 537 835 c 2
 402 737 l 1
 362 737 l 1
EndSplineSet
Ligature: 0 0 'liga' U uni030B
EndChar
StartChar: Yacute
Encoding: 304 221 198
Width: 667
Flags: W
HStem: 0 21G<320 372> 674 20G<574 654>
VStem: 299 95<120 270>
DStem: 166 518 220 602 290 302 363 341
Fore
9 680 m 1
 124 704 l 2
 127 705 129 705 129 705 c 2
 147 706 188 660 220 602 c 2
 363 341 l 1
 466 504 l 2
 505 566 536 620 574 694 c 1
 654 694 l 1
 654 679 l 1
 573 582 540 537 466 426 c 0
 408 338 394 304 394 249 c 2
 394 120 l 2
 394 41 399 33 445 30 c 2
 493 27 l 1
 493 -3 l 1
 434 -1 398 0 346 0 c 0
 294 0 259 -1 200 -3 c 1
 200 27 l 1
 248 30 l 2
 294 33 299 41 299 120 c 2
 299 262 l 2
 299 278 296 292 290 302 c 2
 166 518 l 2
 124 591 72 643 38 648 c 2
 9 651 l 1
 9 680 l 1
276 737 m 1
 414 875 l 2
 436 897 454 908 469 908 c 0
 486 908 500 893 500 874 c 0
 500 856 493 848 460 827 c 2
 316 737 l 1
 276 737 l 1
EndSplineSet
Ligature: 0 0 'liga' Y acutecomb
EndChar
StartChar: Zacute
Encoding: 305 377 199
Width: 667
Flags: W
HStem: -3 47<151 326.898 151 632> 0 44<151 355> 648 43<80 500>
DStem: 414 530 637 663 112 142 151 44
Fore
637 663 m 1xa0
 151 44 l 1
 424 44 l 2
 577 44 591 50 598 116 c 2
 604 173 l 1
 638 173 l 1
 633 118 632 83 632 -3 c 1xa0
 355 0 l 1
 327 0 l 1x60
 15 -3 l 1
 15 25 l 1
 79 101 98 123 112 142 c 2
 414 530 l 2
 428 548 442 565 455 583 c 0
 475 608 485 623 500 648 c 1
 272 648 l 2
 150 648 123 640 120 601 c 1
 114 530 l 1
 80 530 l 1
 82 567 83 585 83 611 c 0
 83 637 82 655 80 692 c 1
 245 691 l 1
 427 689 l 1
 477 689 l 1
 633 692 l 1
 637 663 l 1xa0
285 737 m 1
 423 875 l 2
 445 897 463 908 478 908 c 0
 495 908 509 893 509 874 c 0
 509 856 502 848 469 827 c 2
 325 737 l 1
 285 737 l 1
EndSplineSet
Ligature: 0 0 'liga' Z acutecomb
EndChar
StartChar: Zcaron
Encoding: 306 381 200
Width: 667
Flags: W
HStem: -3 47<151 326.898 151 632> 0 44<151 355> 648 43<80 500>
DStem: 414 530 637 663 112 142 151 44
Fore
637 663 m 1xa0
 151 44 l 1
 424 44 l 2
 577 44 591 50 598 116 c 2
 604 173 l 1
 638 173 l 1
 633 118 632 83 632 -3 c 1xa0
 355 0 l 1
 327 0 l 1x60
 15 -3 l 1
 15 25 l 1
 79 101 98 123 112 142 c 2
 414 530 l 2
 428 548 442 565 455 583 c 0
 475 608 485 623 500 648 c 1
 272 648 l 2
 150 648 123 640 120 601 c 1
 114 530 l 1
 80 530 l 1
 82 567 83 585 83 611 c 0
 83 637 82 655 80 692 c 1
 245 691 l 1
 427 689 l 1
 477 689 l 1
 633 692 l 1
 637 663 l 1xa0
345 805 m 1
 467 908 l 1
 501 908 l 1
 376 741 l 1
 314 741 l 1
 189 908 l 1
 224 908 l 1
 345 805 l 1
EndSplineSet
Ligature: 0 0 'liga' Z uni030C
EndChar
StartChar: Zdotaccent
Encoding: 307 379 201
Width: 667
Flags: W
HStem: -3 47<151 326.898 151 632> 0 44<151 355> 648 43<80 500> 768 100<350 358>
VStem: 303 100<818 820>
DStem: 414 530 637 663 112 142 151 44
Fore
637 663 m 1xb8
 151 44 l 1
 424 44 l 2
 577 44 591 50 598 116 c 2
 604 173 l 1
 638 173 l 1
 633 118 632 83 632 -3 c 1xb8
 355 0 l 1
 327 0 l 1x78
 15 -3 l 1
 15 25 l 1
 79 101 98 123 112 142 c 2
 414 530 l 2
 428 548 442 565 455 583 c 0
 475 608 485 623 500 648 c 1
 272 648 l 2
 150 648 123 640 120 601 c 1
 114 530 l 1
 80 530 l 1
 82 567 83 585 83 611 c 0
 83 637 82 655 80 692 c 1
 245 691 l 1
 427 689 l 1
 477 689 l 1
 633 692 l 1
 637 663 l 1xb8
354 868 m 0
 383 868 403 847 403 818 c 0
 403 788 383 768 353 768 c 0
 323 768 303 788 303 818 c 0
 303 848 323 868 354 868 c 0
EndSplineSet
Ligature: 0 0 'liga' Z uni0307
EndChar
StartChar: Amacron
Encoding: 308 256 202
Width: 778
Flags: W
HStem: 0 21G<116 130.5 621 638.5> 229 40<240 511> 680 20G<376 408> 769 53<234 546>
DStem: 284 484 367 567 106 79 240 269 284 484 223 229 106 79 195 162 367 567 408 700 493 269 650 132
Fore
408 700 m 1
 650 132 l 1
 685 51 696 34 722 30 c 2
 756 27 l 1
 756 -3 l 1
 648 0 648 0 629 0 c 0
 613 0 613 0 490 -3 c 1
 490 27 l 1
 537 30 l 2
 562 32 578 39 578 50 c 0
 578 59 574 72 557 114 c 2
 511 229 l 1
 223 229 l 1
 195 162 l 2
 174 112 160 69 160 56 c 0
 160 40 173 33 208 30 c 2
 245 27 l 1
 245 -3 l 1
 137 0 137 0 124 0 c 0
 108 0 108 0 15 -3 c 1
 15 27 l 1
 52 30 l 2
 74 32 94 50 106 79 c 1
 284 484 l 1
 337 605 l 1
 376 700 l 1
 408 700 l 1
240 269 m 1
 493 269 l 1
 367 567 l 1
 240 269 l 1
546 769 m 1
 234 769 l 1
 234 822 l 1
 546 822 l 1
 546 769 l 1
EndSplineSet
Ligature: 0 0 'liga' A uni0304
EndChar
StartChar: Tcommaaccent
Encoding: 309 354 203
Width: 613
Flags: W
HStem: -20 20G<280 332> 643 48<18 255 221 515>
VStem: 259 95<120 591>
Fore
255 643 m 1
 100 643 l 2
 72 643 61 634 60 610 c 1
 56 531 l 1
 25 531 l 1
 25 596 23 635 18 692 c 1
 86 691 l 2
 157 690 211 689 221 689 c 2
 379 689 l 2
 394 689 423 689 462 690 c 0
 490 691 523 691 595 692 c 1
 590 635 588 596 588 531 c 1
 557 531 l 1
 553 610 l 1
 552 634 541 643 513 643 c 2
 358 643 l 1
 355 610 354 588 354 543 c 2
 354 120 l 2
 354 41 359 33 405 30 c 2
 453 27 l 1
 453 -3 l 1
 394 -1 358 0 306 0 c 0
 254 0 219 -1 160 -3 c 1
 160 27 l 1
 208 30 l 2
 254 33 259 41 259 120 c 2
 259 543 l 2
 259 586 258 609 255 643 c 1
247 -253 m 1
 208 -274 l 1
 194 -265 l 1
 237 -196 258 -136 264 -64 c 1
 311 -51 319 -48 352 -37 c 1
 363 -49 l 1
 333 -127 299 -186 247 -253 c 1
EndSplineSet
Ligature: 0 0 'liga' T uni0327
EndChar
StartChar: Ydieresis
Encoding: 310 376 204
Width: 667
Flags: W
HStem: 0 21G<320 372> 674 20G<574 654> 768 100<246 255 440 458>
VStem: 202 100<818 820> 299 95<120 270> 401 100<818 820>
DStem: 166 518 220 602 290 302 363 341
Fore
9 680 m 1xec
 124 704 l 2
 127 705 129 705 129 705 c 2
 147 706 188 660 220 602 c 2
 363 341 l 1
 466 504 l 2
 505 566 536 620 574 694 c 1
 654 694 l 1
 654 679 l 1
 573 582 540 537 466 426 c 0
 408 338 394 304 394 249 c 2
 394 120 l 2
 394 41 399 33 445 30 c 2
 493 27 l 1
 493 -3 l 1
 434 -1 398 0 346 0 c 0
 294 0 259 -1 200 -3 c 1
 200 27 l 1
 248 30 l 2
 294 33 299 41 299 120 c 2
 299 262 l 2
 299 278 296 292 290 302 c 2
 166 518 l 2
 124 591 72 643 38 648 c 2
 9 651 l 1
 9 680 l 1xec
253 868 m 0
 282 868 302 847 302 818 c 0
 302 788 282 768 252 768 c 0
 222 768 202 788 202 818 c 0xf4
 202 848 222 868 253 868 c 0
452 868 m 0
 481 868 501 847 501 818 c 0
 501 788 481 768 451 768 c 0
 421 768 401 788 401 818 c 0
 401 848 421 868 452 868 c 0
EndSplineSet
Ligature: 0 0 'liga' Y uni0308
EndChar
StartChar: Emacron
Encoding: 311 274 205
Width: 611
Flags: W
HStem: -3 42<277 389> 0 164<537 557> 330 42<261 375> 650 39<200 375> 769 53<150 462>
VStem: 121 95<92 327 120 642> 505 35<537 580.794>
Fore
22 662 m 1xbe
 22 692 l 1
 121 690 166 689 200 689 c 0
 227 689 270 690 333 691 c 0
 374 692 407 692 432 692 c 0
 476 692 507 691 556 689 c 1
 545 645 540 597 540 537 c 1
 505 537 l 1
 505 602 l 2
 505 625 502 630 478 636 c 0
 446 645 390 650 333 650 c 0
 264 650 247 649 216 642 c 1
 216 375 l 1
 250 373 284 372 326 372 c 0
 392 372 420 375 438 383 c 1
 442 391 445 400 446 409 c 1
 451 461 l 1
 481 461 l 1
 478 361 478 361 478 345 c 0
 478 327 478 327 481 234 c 1
 451 234 l 1
 446 293 l 1
 438 318 l 1
 420 327 393 330 319 330 c 0
 274 330 244 329 216 327 c 1
 216 47 l 1
 245 41 263 39 315 39 c 0xbe
 405 39 478 44 499 51 c 0
 513 56 526 87 532 130 c 0
 533 134 535 148 537 164 c 1
 572 164 l 1
 562 112 556 58 556 0 c 1x7e
 420 -3 420 -3 389 -3 c 0xbe
 367 -3 367 -3 228 -1 c 0
 190 0 162 0 157 0 c 0x7e
 129 0 100 -1 34 -3 c 1
 34 27 l 1
 70 30 l 2
 117 34 121 41 121 120 c 2
 121 569 l 2
 121 648 116 656 70 659 c 2
 22 662 l 1xbe
462 769 m 1
 150 769 l 1
 150 822 l 1
 462 822 l 1
 462 769 l 1
EndSplineSet
Ligature: 0 0 'liga' E uni0304
EndChar
StartChar: Imacron
Encoding: 312 298 206
Width: 337
Flags: W
HStem: 0 21G<142 194> 769 53<13 325>
VStem: 121 95<120 606>
Fore
216 569 m 2
 216 120 l 2
 216 41 221 33 267 30 c 2
 315 27 l 1
 315 -3 l 1
 256 -1 220 0 168 0 c 0
 116 0 81 -1 22 -3 c 1
 22 27 l 1
 70 30 l 2
 116 33 121 41 121 120 c 2
 121 569 l 2
 121 648 116 656 70 659 c 2
 22 662 l 1
 22 692 l 1
 94 690 118 689 168 689 c 0
 220 689 242 689 315 692 c 1
 315 662 l 1
 267 659 l 2
 221 656 216 648 216 569 c 2
325 769 m 1
 13 769 l 1
 13 822 l 1
 325 822 l 1
 325 769 l 1
EndSplineSet
Ligature: 0 0 'liga' I uni0304
EndChar
StartChar: Iogonek
Encoding: 313 302 207
Width: 337
Flags: W
HStem: -145 41<225 247> -20 20G<165 210>
VStem: 121 95<120 608> 160 47<-81 -64>
Fore
315 27 m 1xe0
 315 -3 l 1
 296 -1 288 -1 279 -1 c 0
 236 -1 207 -26 207 -64 c 0
 207 -85 226 -104 247 -104 c 0
 270 -104 294 -92 321 -68 c 1
 337 -89 l 1
 291 -129 260 -145 225 -145 c 0
 189 -145 160 -117 160 -81 c 0xd0
 160 -50 176 -23 210 0 c 1
 165 0 l 2
 116 0 81 -1 22 -3 c 1
 22 27 l 1
 70 30 l 2
 116 33 121 41 121 120 c 2
 121 569 l 2
 121 648 116 656 70 659 c 2
 22 662 l 1
 22 692 l 1
 94 690 118 689 168 689 c 0
 220 689 242 689 315 692 c 1
 315 662 l 1
 267 659 l 2
 221 656 216 648 216 569 c 2
 216 120 l 2
 216 41 221 33 267 30 c 2
 315 27 l 1xe0
EndSplineSet
Ligature: 0 0 'liga' I uni0328
EndChar
StartChar: Kcommaaccent
Encoding: 314 310 208
Width: 726
Flags: W
HStem: -20 20G<142 194 649 660.5>
VStem: 121 95<120 325 120 607> 523 169<661 692>
DStem: 226 332 306 382 574 -3 636 70
Fore
216 325 m 1
 216 120 l 2
 216 41 221 33 267 30 c 2
 315 27 l 1
 315 -3 l 1
 256 -1 220 0 168 0 c 0
 116 0 81 -1 22 -3 c 1
 22 27 l 1
 70 30 l 2
 116 33 121 41 121 120 c 2
 121 569 l 2
 121 648 116 656 70 659 c 2
 22 662 l 1
 22 692 l 1
 94 690 118 689 168 689 c 0
 220 689 242 689 315 692 c 1
 315 662 l 1
 267 659 l 2
 221 656 216 648 216 569 c 2
 216 355 l 1
 494 626 l 2
 510 642 523 659 523 665 c 2
 523 692 l 1
 581 690 598 689 612 689 c 0
 629 689 629 689 692 692 c 1
 692 662 l 1
 650 660 l 2
 624 659 599 646 572 622 c 2
 306 382 l 1
 636 70 l 2
 667 41 683 30 698 29 c 2
 719 27 l 1
 719 -3 l 1
 669 0 667 0 654 0 c 0
 644 0 644 0 574 -3 c 1
 226 332 l 1
 216 325 l 1
303 -253 m 1
 264 -274 l 1
 250 -265 l 1
 293 -196 314 -136 320 -64 c 1
 367 -51 375 -48 408 -37 c 1
 419 -49 l 1
 389 -127 355 -186 303 -253 c 1
EndSplineSet
Ligature: 0 0 'liga' K uni0327
EndChar
StartChar: Lcommaaccent
Encoding: 315 315 209
Width: 611
Flags: W
HStem: -3 42<264 397> -1 40<211 301> 0 172<554 566>
VStem: 121 95<78.9653 607>
Fore
216 569 m 2x90
 216 47 l 1
 242 41 265 39 301 39 c 0x90
 420 39 507 46 520 57 c 0
 526 62 533 82 539 111 c 0
 540 112 541 119 542 122 c 1
 554 172 l 1
 586 172 l 1
 576 75 572 43 565 0 c 1x30
 429 -3 429 -3 397 -3 c 0x90
 369 -3 260 -2 211 -1 c 0x50
 189 0 173 0 164 0 c 0x30
 138 0 131 0 65 -3 c 1
 65 20 l 1
 96 36 l 2
 112 44 121 66 121 95 c 2
 121 569 l 2
 121 648 116 656 70 659 c 2
 22 662 l 1
 22 692 l 1
 94 690 118 689 168 689 c 0
 220 689 242 689 315 692 c 1
 315 662 l 1
 267 659 l 2
 221 656 216 648 216 569 c 2x90
246 -253 m 1
 207 -274 l 1
 193 -265 l 1
 236 -196 257 -136 263 -64 c 1
 310 -51 318 -48 351 -37 c 1
 362 -49 l 1
 332 -127 298 -186 246 -253 c 1
EndSplineSet
Ligature: 0 0 'liga' L uni0327
EndChar
StartChar: Ncommaaccent
Encoding: 316 325 210
Width: 831
Flags: W
HStem: -20 20G<124.5 140.5>
VStem: 112 46<120 583> 672 46<98 607>
DStem: 158 583 191 692 631 -4 672 98
Fore
137 689 m 1
 191 692 l 1
 672 98 l 1
 672 569 l 2
 672 647 667 656 621 659 c 2
 577 662 l 1
 577 692 l 1
 676 689 676 689 693 689 c 0
 708 689 708 689 813 692 c 1
 813 662 l 1
 769 659 l 2
 723 656 718 647 718 569 c 2
 718 17 l 2
 718 11 719 3 720 -8 c 0
 721 -15 721 -16 721 -20 c 1
 631 -4 l 1
 158 583 l 1
 158 120 l 2
 158 42 163 33 209 30 c 2
 253 27 l 1
 253 -3 l 1
 148 0 148 0 133 0 c 0
 116 0 116 0 17 -3 c 1
 17 27 l 1
 61 30 l 2
 107 33 112 42 112 120 c 2
 112 569 l 2
 112 647 107 656 61 659 c 2
 17 662 l 1
 17 692 l 1
 72 690 81 690 137 689 c 1
356 -253 m 1
 317 -274 l 1
 303 -265 l 1
 346 -196 367 -136 373 -64 c 1
 420 -51 428 -48 461 -37 c 1
 472 -49 l 1
 442 -127 408 -186 356 -253 c 1
EndSplineSet
Ligature: 0 0 'liga' N uni0327
EndChar
StartChar: Omacron
Encoding: 317 332 211
Width: 786
Flags: W
HStem: -20 42<370 410> 667 42<369 412> 769 53<238 550>
VStem: 22 107<341 378> 657 107<337 369>
Fore
402 709 m 0
 624 709 764 577 764 367 c 0
 764 147 594 -20 370 -20 c 0
 168 -20 22 131 22 341 c 0
 22 561 174 709 402 709 c 0
385 667 m 0
 221 667 129 563 129 378 c 0
 129 164 242 22 410 22 c 0
 565 22 657 139 657 337 c 0
 657 545 556 667 385 667 c 0
550 769 m 1
 238 769 l 1
 238 822 l 1
 550 822 l 1
 550 769 l 1
EndSplineSet
Ligature: 0 0 'liga' O uni0304
EndChar
StartChar: Rcommaaccent
Encoding: 318 342 212
Width: 668
Flags: W
HStem: -20 20G<142 194 591.5 601.5> 654 35<202 327>
VStem: 121 95<120 607> 476 100<521 542>
DStem: 304 298 381 349 488 51 608 53
Fore
216 642 m 1
 216 120 l 2
 216 41 221 33 267 30 c 2
 315 27 l 1
 315 -3 l 1
 256 -1 220 0 168 0 c 0
 116 0 81 -1 22 -3 c 1
 22 27 l 1
 70 30 l 2
 116 33 121 41 121 120 c 2
 121 569 l 2
 121 647 116 656 70 659 c 2
 29 662 l 1
 29 692 l 1
 169 689 169 689 202 689 c 0
 236 689 236 689 366 692 c 2
 382 692 l 2
 506 692 576 638 576 542 c 0
 576 484 548 434 496 397 c 0
 463 374 437 363 381 349 c 1
 608 53 l 2
 621 36 637 30 669 27 c 1
 669 -3 l 1
 606 0 606 0 597 0 c 0
 586 0 576 0 529 -3 c 1
 506 28 l 2
 500 35 494 43 488 51 c 2
 304 298 l 2
 295 310 292 314 278 330 c 0
 266 343 263 347 252 360 c 1
 258 372 l 1
 271 371 280 371 287 371 c 0
 403 371 476 429 476 521 c 0
 476 606 418 654 314 654 c 0
 280 654 250 650 216 642 c 1
274 -253 m 1
 235 -274 l 1
 221 -265 l 1
 264 -196 285 -136 291 -64 c 1
 338 -51 346 -48 379 -37 c 1
 390 -49 l 1
 360 -127 326 -186 274 -253 c 1
EndSplineSet
Ligature: 0 0 'liga' R uni0327
EndChar
StartChar: Gcommaaccent
Encoding: 319 290 213
Width: 763
Flags: W
HStem: -20 42<412 453> 667 42<413 456>
VStem: 22 107<333 367> 596 92<77 207> 641 31<516 551.075>
Fore
641 516 m 1xe8
 641 569 l 2xe8
 641 607 616 630 558 649 c 0
 520 661 476 667 424 667 c 0
 237 667 129 555 129 362 c 0
 129 154 255 22 453 22 c 0
 519 22 579 36 590 55 c 0
 594 62 596 74 596 98 c 2
 596 199 l 2
 596 223 587 232 562 234 c 2
 479 241 l 1
 479 271 l 1
 566 269 572 269 601 269 c 0
 632 269 635 269 724 271 c 1
 728 246 l 1
 699 236 l 2
 689 232 688 230 688 199 c 2
 688 31 l 1xf0
 552 -7 483 -20 412 -20 c 0
 296 -20 188 20 119 89 c 1
 56 150 22 240 22 341 c 0
 22 563 192 709 450 709 c 0
 530 709 581 700 692 668 c 1
 678 614 672 567 672 516 c 1
 641 516 l 1xe8
322 -253 m 1
 283 -274 l 1
 269 -265 l 1
 312 -196 333 -136 339 -64 c 1
 386 -51 394 -48 427 -37 c 1
 438 -49 l 1
 408 -127 374 -186 322 -253 c 1
EndSplineSet
Ligature: 0 0 'liga' G uni0327
EndChar
StartChar: Umacron
Encoding: 320 362 214
Width: 778
Flags: W
HStem: -20 62<376 413> 769 53<234 546>
VStem: 111 95<203 605> 618 46<247 605>
Fore
664 569 m 2
 664 280 l 2
 664 169 642 94 595 47 c 0
 550 1 481 -20 378 -20 c 0
 278 -20 207 1 167 42 c 0
 129 81 111 136 111 214 c 2
 111 569 l 2
 111 648 106 656 60 659 c 2
 12 662 l 1
 12 692 l 1
 84 690 108 689 158 689 c 0
 210 689 232 689 305 692 c 1
 305 662 l 1
 257 659 l 2
 211 656 206 648 206 569 c 2
 206 225 l 2
 206 97 266 42 405 42 c 0
 550 42 618 108 618 249 c 2
 618 569 l 2
 618 647 613 656 567 659 c 2
 523 662 l 1
 523 692 l 1
 622 689 622 689 639 689 c 0
 654 689 654 689 759 692 c 1
 759 662 l 1
 715 659 l 2
 669 656 664 647 664 569 c 2
546 769 m 1
 234 769 l 1
 234 822 l 1
 546 822 l 1
 546 769 l 1
EndSplineSet
Ligature: 0 0 'liga' U uni0304
EndChar
StartChar: Uogonek
Encoding: 321 370 215
Width: 778
Flags: W
HStem: -145 41<525 547> -20 62<374 407>
VStem: 111 95<206 608> 460 47<-81 -64> 618 46<247 608>
Fore
622 -68 m 1
 638 -89 l 1
 592 -129 560 -145 525 -145 c 0
 489 -145 460 -117 460 -81 c 0
 460 -53 477 -24 505 -4 c 1
 462 -15 424 -20 375 -20 c 0
 277 -20 207 1 167 42 c 0
 129 81 111 136 111 214 c 2
 111 569 l 2
 111 648 106 656 60 659 c 2
 12 662 l 1
 12 692 l 1
 84 690 108 689 158 689 c 0
 210 689 232 689 305 692 c 1
 305 662 l 1
 257 659 l 2
 211 656 206 648 206 569 c 2
 206 225 l 2
 206 97 266 42 405 42 c 0
 550 42 618 108 618 249 c 2
 618 569 l 2
 618 647 613 656 567 659 c 2
 523 662 l 1
 523 692 l 1
 622 689 622 689 639 689 c 0
 654 689 654 689 759 692 c 1
 759 662 l 1
 715 659 l 2
 669 656 664 647 664 569 c 2
 664 280 l 2
 664 202 650 130 625 86 c 0
 611 61 611 61 559 16 c 0
 526 -13 507 -42 507 -64 c 0
 507 -85 526 -104 547 -104 c 0
 570 -104 595 -92 622 -68 c 1
EndSplineSet
Ligature: 0 0 'liga' U uni0328
EndChar
StartChar: adieresis
Encoding: 322 228 216
Width: 500
Flags: W
HStem: -12 57<158 193> 416 53<188 246> 537 100<140 145 335 353>
VStem: 32 86<111 127> 92 100<587 597> 291 100<587 597> 324 80<123 270>
Fore
324 82 m 1xf2
 200 -4 l 2
 193 -9 176 -12 158 -12 c 0
 79 -12 32 33 32 111 c 0
 32 198 89 245 225 270 c 2
 324 288 l 1
 321 379 282 416 188 416 c 0
 142 416 132 409 111 362 c 1
 98 331 l 1
 72 338 l 1
 72 403 l 1
 125 435 l 2
 163 458 203 469 246 469 c 0
 362 469 404 416 404 270 c 2
 404 87 l 2
 404 38 408 30 432 29 c 2
 471 27 l 1
 471 -3 l 1
 427 -1 402 0 397 0 c 0
 384 0 384 0 319 -3 c 1
 324 82 l 1xf2
324 124 m 1
 324 256 l 1
 248 245 193 231 168 216 c 0
 138 197 118 162 118 125 c 0
 118 82 153 45 193 45 c 0
 232 45 295 83 324 124 c 1
143 637 m 0
 172 637 192 616 192 587 c 0
 192 557 172 537 142 537 c 0
 112 537 92 557 92 587 c 0xe8
 92 617 112 637 143 637 c 0
342 637 m 0
 371 637 391 616 391 587 c 0
 391 557 371 537 341 537 c 0
 311 537 291 557 291 587 c 0xe4
 291 617 311 637 342 637 c 0
EndSplineSet
KernsSLIF: 118 -36 0 0 119 -36 0 0 121 -39 0 0
Ligature: 0 0 'liga' a uni0308
EndChar
StartChar: aacute
Encoding: 323 225 217
Width: 500
Flags: W
HStem: -12 57<158 193> 416 53<188 246>
VStem: 32 86<111 127> 324 80<123 270>
Fore
324 82 m 1
 200 -4 l 2
 193 -9 176 -12 158 -12 c 0
 79 -12 32 33 32 111 c 0
 32 198 89 245 225 270 c 2
 324 288 l 1
 321 379 282 416 188 416 c 0
 142 416 132 409 111 362 c 1
 98 331 l 1
 72 338 l 1
 72 403 l 1
 125 435 l 2
 163 458 203 469 246 469 c 0
 362 469 404 416 404 270 c 2
 404 87 l 2
 404 38 408 30 432 29 c 2
 471 27 l 1
 471 -3 l 1
 427 -1 402 0 397 0 c 0
 384 0 384 0 319 -3 c 1
 324 82 l 1
324 124 m 1
 324 256 l 1
 248 245 193 231 168 216 c 0
 138 197 118 162 118 125 c 0
 118 82 153 45 193 45 c 0
 232 45 295 83 324 124 c 1
162 506 m 1
 300 644 l 2
 322 666 340 677 355 677 c 0
 372 677 386 662 386 643 c 0
 386 625 379 617 346 596 c 2
 202 506 l 1
 162 506 l 1
EndSplineSet
KernsSLIF: 118 -36 0 0 119 -36 0 0 121 -39 0 0
Ligature: 0 0 'liga' a acutecomb
EndChar
StartChar: agrave
Encoding: 324 224 218
Width: 500
Flags: W
HStem: -12 57<158 193> 416 53<188 246>
VStem: 32 86<111 127> 324 80<123 270>
Fore
324 82 m 1
 200 -4 l 2
 193 -9 176 -12 158 -12 c 0
 79 -12 32 33 32 111 c 0
 32 198 89 245 225 270 c 2
 324 288 l 1
 321 379 282 416 188 416 c 0
 142 416 132 409 111 362 c 1
 98 331 l 1
 72 338 l 1
 72 403 l 1
 125 435 l 2
 163 458 203 469 246 469 c 0
 362 469 404 416 404 270 c 2
 404 87 l 2
 404 38 408 30 432 29 c 2
 471 27 l 1
 471 -3 l 1
 427 -1 402 0 397 0 c 0
 384 0 384 0 319 -3 c 1
 324 82 l 1
324 124 m 1
 324 256 l 1
 248 245 193 231 168 216 c 0
 138 197 118 162 118 125 c 0
 118 82 153 45 193 45 c 0
 232 45 295 83 324 124 c 1
298 506 m 1
 154 596 l 2
 121 617 114 625 114 643 c 0
 114 662 128 677 145 677 c 0
 159 677 179 665 200 644 c 2
 338 506 l 1
 298 506 l 1
EndSplineSet
KernsSLIF: 118 -36 0 0 119 -36 0 0 121 -39 0 0
Ligature: 0 0 'liga' a gravecomb
EndChar
StartChar: acircumflex
Encoding: 325 226 219
Width: 500
Flags: W
HStem: -12 57<158 193> 416 53<188 246>
VStem: 32 86<111 127> 324 80<123 270>
Fore
324 82 m 1
 200 -4 l 2
 193 -9 176 -12 158 -12 c 0
 79 -12 32 33 32 111 c 0
 32 198 89 245 225 270 c 2
 324 288 l 1
 321 379 282 416 188 416 c 0
 142 416 132 409 111 362 c 1
 98 331 l 1
 72 338 l 1
 72 403 l 1
 125 435 l 2
 163 458 203 469 246 469 c 0
 362 469 404 416 404 270 c 2
 404 87 l 2
 404 38 408 30 432 29 c 2
 471 27 l 1
 471 -3 l 1
 427 -1 402 0 397 0 c 0
 384 0 384 0 319 -3 c 1
 324 82 l 1
324 124 m 1
 324 256 l 1
 248 245 193 231 168 216 c 0
 138 197 118 162 118 125 c 0
 118 82 153 45 193 45 c 0
 232 45 295 83 324 124 c 1
207 677 m 1
 269 677 l 1
 394 510 l 1
 359 510 l 1
 238 613 l 1
 117 510 l 1
 82 510 l 1
 207 677 l 1
EndSplineSet
Ligature: 0 0 'liga' a uni0302
EndChar
StartChar: abreve
Encoding: 326 259 220
Width: 500
Flags: W
HStem: -12 57<158 193> 416 53<188 246> 506 60<251 257>
VStem: 32 86<111 127> 324 80<123 270>
Fore
324 82 m 1
 200 -4 l 2
 193 -9 176 -12 158 -12 c 0
 79 -12 32 33 32 111 c 0
 32 198 89 245 225 270 c 2
 324 288 l 1
 321 379 282 416 188 416 c 0
 142 416 132 409 111 362 c 1
 98 331 l 1
 72 338 l 1
 72 403 l 1
 125 435 l 2
 163 458 203 469 246 469 c 0
 362 469 404 416 404 270 c 2
 404 87 l 2
 404 38 408 30 432 29 c 2
 471 27 l 1
 471 -3 l 1
 427 -1 402 0 397 0 c 0
 384 0 384 0 319 -3 c 1
 324 82 l 1
324 124 m 1
 324 256 l 1
 248 245 193 231 168 216 c 0
 138 197 118 162 118 125 c 0
 118 82 153 45 193 45 c 0
 232 45 295 83 324 124 c 1
110 664 m 1
 140 664 l 1
 143 607 189 566 251 566 c 0
 313 566 359 607 362 664 c 1
 392 664 l 1
 390 620 384 598 368 571 c 0
 344 529 302 506 251 506 c 0
 197 506 154 531 130 577 c 0
 117 603 112 623 110 664 c 1
EndSplineSet
Ligature: 0 0 'liga' a uni0306
EndChar
StartChar: atilde
Encoding: 327 227 221
Width: 500
Flags: W
HStem: -12 57<158 193> 416 53<188 246> 535 55<300 321> 580 55<161 185>
VStem: 32 86<111 127> 324 80<123 270>
Fore
324 82 m 1xcc
 200 -4 l 2
 193 -9 176 -12 158 -12 c 0
 79 -12 32 33 32 111 c 0
 32 198 89 245 225 270 c 2
 324 288 l 1
 321 379 282 416 188 416 c 0
 142 416 132 409 111 362 c 1
 98 331 l 1
 72 338 l 1
 72 403 l 1
 125 435 l 2
 163 458 203 469 246 469 c 0
 362 469 404 416 404 270 c 2
 404 87 l 2
 404 38 408 30 432 29 c 2
 471 27 l 1
 471 -3 l 1
 427 -1 402 0 397 0 c 0
 384 0 384 0 319 -3 c 1
 324 82 l 1xcc
324 124 m 1
 324 256 l 1
 248 245 193 231 168 216 c 0
 138 197 118 162 118 125 c 0
 118 82 153 45 193 45 c 0
 232 45 295 83 324 124 c 1
380 640 m 1
 409 640 l 1
 405 582 357 535 300 535 c 0xec
 278 535 262 540 232 554 c 0
 195 573 175 580 161 580 c 0xdc
 137 580 121 566 108 535 c 1
 79 535 l 1xec
 93 600 130 635 185 635 c 0xdc
 209 635 221 631 274 605 c 0
 298 594 309 590 321 590 c 0xec
 349 590 365 603 380 640 c 1
EndSplineSet
Ligature: 0 0 'liga' a tildecomb
EndChar
StartChar: aring
Encoding: 328 229 222
Width: 500
Flags: W
HStem: -12 57<158 193> 416 53<188 246> 512 36<250 257> 676 36<239 257>
VStem: 32 86<111 127> 150 38<599.266 616> 312 38<599.207 615> 324 80<123 270>
Fore
324 82 m 1xfd
 200 -4 l 2
 193 -9 176 -12 158 -12 c 0
 79 -12 32 33 32 111 c 0
 32 198 89 245 225 270 c 2
 324 288 l 1
 321 379 282 416 188 416 c 0
 142 416 132 409 111 362 c 1
 98 331 l 1
 72 338 l 1
 72 403 l 1
 125 435 l 2
 163 458 203 469 246 469 c 0
 362 469 404 416 404 270 c 2
 404 87 l 2
 404 38 408 30 432 29 c 2
 471 27 l 1
 471 -3 l 1
 427 -1 402 0 397 0 c 0
 384 0 384 0 319 -3 c 1
 324 82 l 1xfd
324 124 m 1
 324 256 l 1
 248 245 193 231 168 216 c 0
 138 197 118 162 118 125 c 0
 118 82 153 45 193 45 c 0
 232 45 295 83 324 124 c 1
252 712 m 0
 305 712 350 667 350 612 c 0xfe
 350 556 305 512 250 512 c 0
 194 512 150 556 150 613 c 0
 150 668 195 712 252 712 c 0
251 676 m 0
 213 676 188 651 188 613 c 0
 188 573 212 548 250 548 c 0
 287 548 312 574 312 612 c 0
 312 650 287 676 251 676 c 0
EndSplineSet
KernsSLIF: 118 -36 0 0 119 -36 0 0 121 -39 0 0
Ligature: 0 0 'liga' a uni030A
EndChar
StartChar: aogonek
Encoding: 329 261 223
Width: 500
Flags: W
HStem: -145 41<428 450> -12 57<158 193> 416 53<188 246>
VStem: 32 86<111 127> 324 80<123 270> 363 47<-81 -62>
Fore
471 27 m 1xf8
 471 -3 l 1
 467 -2 462 -2 460 -2 c 0
 433 -2 410 -30 410 -62 c 0
 410 -85 428 -104 450 -104 c 0
 473 -104 497 -92 524 -68 c 1
 540 -89 l 1
 494 -129 463 -145 428 -145 c 0
 392 -145 363 -117 363 -81 c 0xf4
 363 -50 379 -23 413 0 c 1
 407 0 l 1
 396 0 l 2
 384 0 384 0 319 -3 c 1
 324 82 l 1
 200 -4 l 2
 193 -9 176 -12 158 -12 c 0
 79 -12 32 33 32 111 c 0
 32 198 89 245 225 270 c 2
 324 288 l 1
 321 379 282 416 188 416 c 0
 142 416 132 409 111 362 c 1
 98 331 l 1
 72 338 l 1
 72 403 l 1
 125 435 l 2
 163 458 203 469 246 469 c 0
 362 469 404 416 404 270 c 2
 404 87 l 2
 404 38 408 30 432 29 c 2
 471 27 l 1xf8
324 124 m 1xf8
 324 256 l 1
 248 245 193 231 168 216 c 0
 138 197 118 162 118 125 c 0
 118 82 153 45 193 45 c 0
 232 45 295 83 324 124 c 1xf8
EndSplineSet
Ligature: 0 0 'liga' a uni0328
EndChar
StartChar: cacute
Encoding: 330 263 224
Width: 444
Flags: W
HStem: -20 52<255 298> 417 52<254 297>
VStem: 26 88<210 250>
Fore
399 311 m 1
 371 311 l 1
 364 372 l 1
 346 397 298 417 254 417 c 0
 164 417 114 357 114 250 c 0
 114 118 187 32 298 32 c 0
 334 32 366 41 403 61 c 1
 413 46 l 1
 392 14 l 2
 382 -1 307 -20 255 -20 c 0
 121 -20 26 75 26 210 c 0
 26 298 63 368 133 412 c 0
 193 450 249 469 297 469 c 0
 338 469 373 458 413 434 c 1
 404 398 399 357 399 311 c 1
220 506 m 1
 358 644 l 2
 380 666 398 677 413 677 c 0
 430 677 444 662 444 643 c 0
 444 625 437 617 404 596 c 2
 260 506 l 1
 220 506 l 1
EndSplineSet
Ligature: 0 0 'liga' c acutecomb
EndChar
StartChar: ccaron
Encoding: 331 269 225
Width: 444
Flags: W
HStem: -20 52<255 298> 417 52<254 297>
VStem: 26 88<210 250>
Fore
399 311 m 1
 371 311 l 1
 364 372 l 1
 346 397 298 417 254 417 c 0
 164 417 114 357 114 250 c 0
 114 118 187 32 298 32 c 0
 334 32 366 41 403 61 c 1
 413 46 l 1
 392 14 l 2
 382 -1 307 -20 255 -20 c 0
 121 -20 26 75 26 210 c 0
 26 298 63 368 133 412 c 0
 193 450 249 469 297 469 c 0
 338 469 373 458 413 434 c 1
 404 398 399 357 399 311 c 1
262 574 m 1
 384 677 l 1
 418 677 l 1
 293 510 l 1
 231 510 l 1
 106 677 l 1
 141 677 l 1
 262 574 l 1
EndSplineSet
Ligature: 0 0 'liga' c uni030C
EndChar
StartChar: ccedilla
Encoding: 332 231 226
Width: 444
Flags: W
HStem: -225 36<217 245> -107 36<245 275> -20 52<269 298> 417 52<254 297>
VStem: 26 88<210 250> 285 75<-148 -139>
DStem: 235 -19 269 -20 197 -108 248 -75
Fore
269 -20 m 1
 248 -75 l 1
 258 -72 265 -71 275 -71 c 0
 327 -71 360 -98 360 -141 c 0
 360 -193 312 -225 236 -225 c 0
 209 -225 195 -222 152 -209 c 1
 166 -178 l 1
 199 -187 213 -189 231 -189 c 0
 266 -189 285 -174 285 -146 c 0
 285 -123 269 -107 245 -107 c 0
 232 -107 223 -109 204 -114 c 1
 197 -108 l 1
 235 -19 l 1
 110 -9 26 82 26 210 c 0
 26 298 63 368 133 412 c 0
 193 450 249 469 297 469 c 0
 338 469 373 458 413 434 c 1
 404 398 399 357 399 311 c 1
 371 311 l 1
 364 372 l 1
 346 397 298 417 254 417 c 0
 164 417 114 357 114 250 c 0
 114 118 187 32 298 32 c 0
 334 32 366 41 403 61 c 1
 413 46 l 1
 392 14 l 1
 380 0 313 -19 269 -20 c 1
EndSplineSet
Ligature: 0 0 'liga' c uni0327
EndChar
StartChar: dcaron
Encoding: 333 271 227
Width: 671
Flags: W
HStem: -12 57<256 275> 422 47<266 293>
VStem: 35 87<216 249> 412 84<179 718>
Fore
412 437 m 1
 412 620 l 2
 412 650 405 661 387 661 c 2
 331 661 l 1
 331 689 l 1
 410 701 443 709 487 726 c 1
 496 718 l 1
 496 102 l 2
 496 39 499 32 533 30 c 2
 579 27 l 1
 579 -3 l 1
 558 -2 538 -2 531 -1 c 0
 510 0 496 0 488 0 c 0
 476 0 460 -1 411 -3 c 1
 416 89 l 1
 305 -4 l 2
 300 -8 277 -12 257 -12 c 0
 192 -12 145 1 111 30 c 0
 62 70 35 136 35 216 c 0
 35 301 72 374 129 404 c 2
 217 450 l 2
 242 463 266 469 293 469 c 0
 328 469 356 461 412 437 c 1
412 221 m 2
 412 350 l 2
 412 358 400 371 379 385 c 0
 344 409 304 422 266 422 c 0
 176 422 122 358 122 249 c 0
 122 130 185 45 273 45 c 0
 320 45 369 76 397 123 c 0
 410 146 412 156 412 221 c 2
561 514 m 1
 522 492 l 1
 508 501 l 1
 551 571 572 631 578 702 c 1
 666 729 l 1
 677 717 l 1
 647 640 613 580 561 514 c 1
EndSplineSet
Ligature: 0 0 'liga' d uni030C
EndChar
StartChar: edieresis
Encoding: 334 235 228
Width: 479
Flags: W
HStem: -20 53<250 294> 230 34<189 299> 436 33<245 266> 537 100<136 149 328 347>
VStem: 26 95<219 270> 90 100<575.756 590> 289 100<575.756 590>
Fore
437 70 m 1xfa
 417 36 l 2
 413 30 392 17 365 6 c 0
 324 -12 287 -20 250 -20 c 0
 175 -20 108 11 68 64 c 0
 41 102 26 156 26 219 c 0
 26 323 59 385 141 432 c 0
 182 456 225 469 262 469 c 0
 374 469 448 394 448 279 c 0
 448 267 447 258 446 244 c 1
 377 233 334 230 265 230 c 2
 119 230 l 1
 121 172 128 144 147 111 c 0
 175 62 229 33 294 33 c 0
 337 33 360 42 424 80 c 1
 437 70 l 1xfa
359 267 m 1
 356 334 349 363 327 396 c 0
 309 423 283 436 250 436 c 0
 202 436 159 409 138 365 c 0
 125 339 121 317 121 270 c 1
 175 265 201 264 247 264 c 0
 283 264 307 265 359 267 c 1
141 637 m 0
 170 637 190 616 190 587 c 0
 190 557 170 537 140 537 c 0
 110 537 90 557 90 587 c 0xf6
 90 617 110 637 141 637 c 0
340 637 m 0
 369 637 389 616 389 587 c 0
 389 557 369 537 339 537 c 0
 309 537 289 557 289 587 c 0
 289 617 309 637 340 637 c 0
EndSplineSet
Ligature: 0 0 'liga' e uni0308
EndChar
StartChar: eacute
Encoding: 335 233 229
Width: 479
Flags: W
HStem: -20 53<250 294> 230 34<189 299> 436 33<245 266>
VStem: 26 95<219 270>
Fore
437 70 m 1
 417 36 l 2
 413 30 392 17 365 6 c 0
 324 -12 287 -20 250 -20 c 0
 175 -20 108 11 68 64 c 0
 41 102 26 156 26 219 c 0
 26 323 59 385 141 432 c 0
 182 456 225 469 262 469 c 0
 374 469 448 394 448 279 c 0
 448 267 447 258 446 244 c 1
 377 233 334 230 265 230 c 2
 119 230 l 1
 121 172 128 144 147 111 c 0
 175 62 229 33 294 33 c 0
 337 33 360 42 424 80 c 1
 437 70 l 1
359 267 m 1
 356 334 349 363 327 396 c 0
 309 423 283 436 250 436 c 0
 202 436 159 409 138 365 c 0
 125 339 121 317 121 270 c 1
 175 265 201 264 247 264 c 0
 283 264 307 265 359 267 c 1
151 506 m 1
 289 644 l 2
 311 666 329 677 344 677 c 0
 361 677 375 662 375 643 c 0
 375 625 368 617 335 596 c 2
 191 506 l 1
 151 506 l 1
EndSplineSet
KernsSLIF: 118 -12 0 0 119 -12 0 0 121 -15 0 0
Ligature: 0 0 'liga' e acutecomb
EndChar
StartChar: egrave
Encoding: 336 232 230
Width: 479
Flags: W
HStem: -20 53<250 294> 230 34<189 299> 436 33<245 266>
VStem: 26 95<219 270>
Fore
437 70 m 1
 417 36 l 2
 413 30 392 17 365 6 c 0
 324 -12 287 -20 250 -20 c 0
 175 -20 108 11 68 64 c 0
 41 102 26 156 26 219 c 0
 26 323 59 385 141 432 c 0
 182 456 225 469 262 469 c 0
 374 469 448 394 448 279 c 0
 448 267 447 258 446 244 c 1
 377 233 334 230 265 230 c 2
 119 230 l 1
 121 172 128 144 147 111 c 0
 175 62 229 33 294 33 c 0
 337 33 360 42 424 80 c 1
 437 70 l 1
359 267 m 1
 356 334 349 363 327 396 c 0
 309 423 283 436 250 436 c 0
 202 436 159 409 138 365 c 0
 125 339 121 317 121 270 c 1
 175 265 201 264 247 264 c 0
 283 264 307 265 359 267 c 1
288 506 m 1
 144 596 l 2
 111 617 104 625 104 643 c 0
 104 662 118 677 135 677 c 0
 149 677 169 665 190 644 c 2
 328 506 l 1
 288 506 l 1
EndSplineSet
Ligature: 0 0 'liga' e gravecomb
EndChar
StartChar: ecircumflex
Encoding: 337 234 231
Width: 479
Flags: W
HStem: -20 53<250 294> 230 34<201 299> 436 33<245 266>
VStem: 26 95<219 270>
Fore
437 70 m 1
 417 36 l 2
 413 30 392 17 365 6 c 0
 324 -12 287 -20 250 -20 c 0
 175 -20 108 11 68 64 c 0
 41 102 26 156 26 219 c 0
 26 323 59 385 141 432 c 0
 182 456 225 469 262 469 c 0
 374 469 448 394 448 279 c 0
 448 267 447 258 446 244 c 1
 377 233 334 230 265 230 c 2
 119 230 l 1
 121 172 128 144 147 111 c 0
 175 62 229 33 294 33 c 0
 337 33 360 42 424 80 c 1
 437 70 l 1
359 267 m 1
 356 334 349 363 327 396 c 0
 309 423 283 436 250 436 c 0
 202 436 159 409 138 365 c 0
 125 339 121 317 121 270 c 1
 175 265 201 264 247 264 c 0
 283 264 307 265 359 267 c 1
209 677 m 1
 271 677 l 1
 396 510 l 1
 361 510 l 1
 240 613 l 1
 119 510 l 1
 84 510 l 1
 209 677 l 1
EndSplineSet
KernsSLIF: 118 -12 0 0 119 -12 0 0 121 -15 0 0
Ligature: 0 0 'liga' e uni0302
EndChar
StartChar: ecaron
Encoding: 338 283 232
Width: 479
Flags: W
HStem: -20 53<250 294> 230 34<201 299> 436 33<245 266>
VStem: 26 95<219 270>
Fore
437 70 m 1
 417 36 l 2
 413 30 392 17 365 6 c 0
 324 -12 287 -20 250 -20 c 0
 175 -20 108 11 68 64 c 0
 41 102 26 156 26 219 c 0
 26 323 59 385 141 432 c 0
 182 456 225 469 262 469 c 0
 374 469 448 394 448 279 c 0
 448 267 447 258 446 244 c 1
 377 233 334 230 265 230 c 2
 119 230 l 1
 121 172 128 144 147 111 c 0
 175 62 229 33 294 33 c 0
 337 33 360 42 424 80 c 1
 437 70 l 1
359 267 m 1
 356 334 349 363 327 396 c 0
 309 423 283 436 250 436 c 0
 202 436 159 409 138 365 c 0
 125 339 121 317 121 270 c 1
 175 265 201 264 247 264 c 0
 283 264 307 265 359 267 c 1
240 574 m 1
 362 677 l 1
 396 677 l 1
 271 510 l 1
 209 510 l 1
 84 677 l 1
 119 677 l 1
 240 574 l 1
EndSplineSet
Ligature: 0 0 'liga' e uni030C
EndChar
StartChar: edotaccent
Encoding: 339 279 233
Width: 479
Flags: W
HStem: -20 53<250 294> 230 34<189 299> 436 33<245 266> 537 100<233 251>
VStem: 26 95<219 270> 189 100<575.756 590>
Fore
437 70 m 1
 417 36 l 2
 413 30 392 17 365 6 c 0
 324 -12 287 -20 250 -20 c 0
 175 -20 108 11 68 64 c 0
 41 102 26 156 26 219 c 0
 26 323 59 385 141 432 c 0
 182 456 225 469 262 469 c 0
 374 469 448 394 448 279 c 0
 448 267 447 258 446 244 c 1
 377 233 334 230 265 230 c 2
 119 230 l 1
 121 172 128 144 147 111 c 0
 175 62 229 33 294 33 c 0
 337 33 360 42 424 80 c 1
 437 70 l 1
359 267 m 1
 356 334 349 363 327 396 c 0
 309 423 283 436 250 436 c 0
 202 436 159 409 138 365 c 0
 125 339 121 317 121 270 c 1
 175 265 201 264 247 264 c 0
 283 264 307 265 359 267 c 1
240 637 m 0
 269 637 289 616 289 587 c 0
 289 557 269 537 239 537 c 0
 209 537 189 557 189 587 c 0
 189 617 209 637 240 637 c 0
EndSplineSet
Ligature: 0 0 'liga' e uni0307
EndChar
StartChar: eogonek
Encoding: 340 281 234
Width: 479
Flags: W
HStem: -145 41<349 371> -20 53<250 294> 230 34<201 299> 436 33<245 266>
VStem: 26 95<219 270> 284 47<-81 -64>
Fore
445 -68 m 1
 461 -89 l 1
 416 -129 384 -145 349 -145 c 0
 313 -145 284 -117 284 -81 c 0
 284 -56 297 -30 320 -10 c 1
 292 -18 275 -20 250 -20 c 0
 175 -20 108 11 68 64 c 0
 41 101 26 156 26 219 c 0
 26 323 59 385 141 432 c 0
 182 456 225 469 262 469 c 0
 374 469 448 394 448 279 c 0
 448 267 447 258 446 244 c 1
 377 233 334 230 265 230 c 2
 119 230 l 1
 121 172 128 144 147 111 c 0
 175 62 229 33 294 33 c 0
 337 33 360 42 424 80 c 1
 437 70 l 1
 417 36 l 1
 416 33 415 33 385 11 c 0
 349 -16 331 -40 331 -64 c 0
 331 -85 350 -104 371 -104 c 0
 394 -104 419 -92 445 -68 c 1
359 267 m 1
 356 334 349 363 327 396 c 0
 309 423 283 436 250 436 c 0
 202 436 159 409 138 365 c 0
 125 339 121 317 121 270 c 1
 175 265 201 264 247 264 c 0
 283 264 307 265 359 267 c 1
EndSplineSet
Ligature: 0 0 'liga' e uni0328
EndChar
StartChar: gbreve
Encoding: 341 287 235
Width: 556
Flags: W
HStem: -283 31<234 273> -14 70<232 321> 150 34<234 251> 435 34<240 276> 506 60<279 289>
VStem: 32 76<-140 -122> 55 84<289 313> 354 84<294 324> 439 79<-102 -66>
Fore
519 378 m 1xfb80
 427 378 l 1
 435 357 438 344 438 324 c 0
 438 271 416 231 371 198 c 0
 330 169 277 150 234 150 c 0
 226 150 220 151 210 152 c 1
 206 148 204 146 198 141 c 0
 172 119 164 108 164 95 c 0
 164 68 188 56 240 56 c 2
 400 56 l 2
 470 56 518 6 518 -66 c 0
 518 -188 399 -283 248 -283 c 0
 121 -283 32 -220 32 -129 c 0xfd80
 32 -98 46 -61 60 -53 c 2
 147 -6 l 1
 99 8 81 24 81 52 c 0
 81 67 86 80 96 95 c 1
 175 156 l 1
 101 164 55 215 55 289 c 0
 55 350 84 399 140 431 c 0
 181 455 232 469 276 469 c 0
 325 469 361 457 398 427 c 1
 540 431 l 1
 544 419 l 1
 519 378 l 1xfb80
240 435 m 0
 176 435 139 390 139 313 c 0xfb80
 139 236 184 184 251 184 c 0
 312 184 354 229 354 294 c 0
 354 379 308 435 240 435 c 0
287 -14 m 0
 218 -14 190 -16 174 -24 c 0
 134 -41 108 -82 108 -127 c 0xfd80
 108 -201 168 -252 255 -252 c 0
 360 -252 439 -188 439 -102 c 0
 439 -37 400 -14 287 -14 c 0
138 664 m 1
 168 664 l 1
 171 607 217 566 279 566 c 0
 341 566 387 607 390 664 c 1
 420 664 l 1
 418 620 412 598 396 571 c 0
 372 529 330 506 279 506 c 0
 225 506 182 531 158 577 c 0
 145 603 140 623 138 664 c 1
EndSplineSet
Ligature: 0 0 'liga' g uni0306
EndChar
StartChar: idieresis
Encoding: 342 239 236
Width: 287
Flags: W
HStem: 0 21G<133.5 158.5> 400 28<23 31.8333> 557 100<41 47 233 251>
VStem: -6 100<607 609> 104 84<102 350> 193 100<607 609>
Fore
188 465 m 1
 188 102 l 2
 188 39 191 32 225 30 c 2
 271 27 l 1
 271 -3 l 1
 171 0 171 0 146 0 c 0
 121 0 121 0 21 -3 c 1
 21 27 l 1
 67 30 l 2
 101 32 104 39 104 102 c 2
 104 327 l 2
 104 393 100 400 60 400 c 2
 23 400 l 1
 23 428 l 1
 76 434 128 448 179 469 c 1
 188 465 l 1
45 657 m 0
 74 657 94 636 94 607 c 0
 94 577 74 557 44 557 c 0
 14 557 -6 577 -6 607 c 0
 -6 637 14 657 45 657 c 0
244 657 m 0
 273 657 293 636 293 607 c 0
 293 577 273 557 243 557 c 0
 213 557 193 577 193 607 c 0
 193 637 213 657 244 657 c 0
EndSplineSet
Ligature: 0 0 'liga' i uni0308
EndChar
StartChar: iacute
Encoding: 343 237 237
Width: 287
Flags: W
HStem: 0 21G<133.5 158.5> 400 28<23 31.8333>
VStem: 104 84<102 350>
Fore
188 465 m 1
 188 102 l 2
 188 39 191 32 225 30 c 2
 271 27 l 1
 271 -3 l 1
 171 0 171 0 146 0 c 0
 121 0 121 0 21 -3 c 1
 21 27 l 1
 67 30 l 2
 101 32 104 39 104 102 c 2
 104 327 l 2
 104 393 100 400 60 400 c 2
 23 400 l 1
 23 428 l 1
 76 434 128 448 179 469 c 1
 188 465 l 1
55 506 m 1
 193 644 l 2
 215 666 233 677 248 677 c 0
 265 677 279 662 279 643 c 0
 279 625 272 617 239 596 c 2
 95 506 l 1
 55 506 l 1
EndSplineSet
Ligature: 0 0 'liga' i acutecomb
EndChar
StartChar: igrave
Encoding: 344 236 238
Width: 287
Flags: W
HStem: 0 21G<133.5 158.5> 400 28<23 31.8333>
VStem: 104 84<102 350>
Fore
188 465 m 1
 188 102 l 2
 188 39 191 32 225 30 c 2
 271 27 l 1
 271 -3 l 1
 171 0 171 0 146 0 c 0
 121 0 121 0 21 -3 c 1
 21 27 l 1
 67 30 l 2
 101 32 104 39 104 102 c 2
 104 327 l 2
 104 393 100 400 60 400 c 2
 23 400 l 1
 23 428 l 1
 76 434 128 448 179 469 c 1
 188 465 l 1
192 506 m 1
 48 596 l 2
 15 617 8 625 8 643 c 0
 8 662 22 677 39 677 c 0
 53 677 73 665 94 644 c 2
 232 506 l 1
 192 506 l 1
EndSplineSet
Ligature: 0 0 'liga' i gravecomb
EndChar
StartChar: icircumflex
Encoding: 345 238 239
Width: 287
Flags: W
HStem: 0 21G<133.5 158.5> 400 28<23 31.8333>
VStem: 104 84<102 350>
Fore
188 465 m 1
 188 102 l 2
 188 39 191 32 225 30 c 2
 271 27 l 1
 271 -3 l 1
 171 0 171 0 146 0 c 0
 121 0 121 0 21 -3 c 1
 21 27 l 1
 67 30 l 2
 101 32 104 39 104 102 c 2
 104 327 l 2
 104 393 100 400 60 400 c 2
 23 400 l 1
 23 428 l 1
 76 434 128 448 179 469 c 1
 188 465 l 1
113 677 m 1
 175 677 l 1
 300 510 l 1
 265 510 l 1
 144 613 l 1
 23 510 l 1
 -12 510 l 1
 113 677 l 1
EndSplineSet
Ligature: 0 0 'liga' i uni0302
EndChar
StartChar: lacute
Encoding: 346 314 240
Width: 291
Flags: W
HStem: 0 21G<133.5 158.5>
VStem: 104 84<102 622>
Fore
23 661 m 1
 23 689 l 1
 102 701 135 709 179 726 c 1
 188 718 l 1
 188 102 l 2
 188 39 191 32 225 30 c 2
 271 27 l 1
 271 -3 l 1
 171 0 171 0 146 0 c 0
 121 0 121 0 21 -3 c 1
 21 27 l 1
 67 30 l 2
 101 32 104 39 104 102 c 2
 104 620 l 2
 104 650 97 661 79 661 c 2
 23 661 l 1
57 737 m 1
 195 875 l 2
 217 897 235 908 250 908 c 0
 267 908 281 893 281 874 c 0
 281 856 274 848 241 827 c 2
 97 737 l 1
 57 737 l 1
EndSplineSet
Ligature: 0 0 'liga' l acutecomb
EndChar
StartChar: lcaron
Encoding: 347 318 241
Width: 375
Flags: W
HStem: 0 21G<133.5 158.5>
VStem: 104 84<102 622>
Fore
23 661 m 1
 23 689 l 1
 102 701 135 709 179 726 c 1
 188 718 l 1
 188 102 l 2
 188 39 191 32 225 30 c 2
 271 27 l 1
 271 -3 l 1
 171 0 171 0 146 0 c 0
 121 0 121 0 21 -3 c 1
 21 27 l 1
 67 30 l 2
 101 32 104 39 104 102 c 2
 104 620 l 2
 104 650 97 661 79 661 c 2
 23 661 l 1
265 514 m 1
 226 492 l 1
 212 501 l 1
 255 571 276 631 282 702 c 1
 370 729 l 1
 381 717 l 1
 351 640 317 580 265 514 c 1
EndSplineSet
Ligature: 0 0 'liga' l uni030C
EndChar
StartChar: nacute
Encoding: 348 324 242
Width: 582
Flags: W
HStem: 0 21G<115.5 144.5 480.5 496> 400 28<7 15.8333> 408 61<299 327>
VStem: 88 84<102 318> 410 84<-3 297>
Fore
410 -3 m 1xb8
 410 281 l 2
 410 358 366 408 299 408 c 0xb8
 238 408 172 359 172 314 c 2
 172 102 l 2
 172 39 175 32 209 30 c 2
 254 27 l 1
 254 -3 l 1
 186 -1 159 0 130 0 c 0
 101 0 74 -1 6 -3 c 1
 6 27 l 1
 51 30 l 2
 85 32 88 39 88 102 c 2
 88 327 l 2
 88 393 84 400 44 400 c 2
 7 400 l 1
 7 428 l 1xd8
 60 434 112 448 163 469 c 1
 172 465 l 1
 172 378 l 1
 248 444 l 2
 269 462 290 469 327 469 c 0
 439 469 494 412 494 295 c 2
 494 102 l 2
 494 38 497 32 531 30 c 2
 572 27 l 1
 572 -3 l 1
 503 0 503 0 489 0 c 0
 472 0 471 0 410 -3 c 1xb8
203 506 m 1
 341 644 l 2
 363 666 381 677 396 677 c 0
 413 677 427 662 427 643 c 0
 427 625 420 617 387 596 c 2
 243 506 l 1
 203 506 l 1
EndSplineSet
Ligature: 0 0 'liga' n acutecomb
EndChar
StartChar: ncaron
Encoding: 349 328 243
Width: 582
Flags: W
HStem: 0 21G<115.5 144.5 480.5 496> 400 28<7 15.8333> 408 61<299 327>
VStem: 88 84<102 318> 410 84<-3 297>
Fore
410 -3 m 1xb8
 410 281 l 2
 410 358 366 408 299 408 c 0xb8
 238 408 172 359 172 314 c 2
 172 102 l 2
 172 39 175 32 209 30 c 2
 254 27 l 1
 254 -3 l 1
 186 -1 159 0 130 0 c 0
 101 0 74 -1 6 -3 c 1
 6 27 l 1
 51 30 l 2
 85 32 88 39 88 102 c 2
 88 327 l 2
 88 393 84 400 44 400 c 2
 7 400 l 1
 7 428 l 1xd8
 60 434 112 448 163 469 c 1
 172 465 l 1
 172 378 l 1
 248 444 l 2
 269 462 290 469 327 469 c 0
 439 469 494 412 494 295 c 2
 494 102 l 2
 494 38 497 32 531 30 c 2
 572 27 l 1
 572 -3 l 1
 503 0 503 0 489 0 c 0
 472 0 471 0 410 -3 c 1xb8
292 574 m 1
 414 677 l 1
 448 677 l 1
 323 510 l 1
 261 510 l 1
 136 677 l 1
 171 677 l 1
 292 574 l 1
EndSplineSet
Ligature: 0 0 'liga' n uni030C
EndChar
StartChar: ntilde
Encoding: 350 241 244
Width: 582
Flags: W
HStem: 0 21G<115.5 144.5 480.5 496> 400 28<7 15.8333> 408 61<299 327> 535 55<342 363> 580 55<203 227>
VStem: 88 84<102 318> 410 84<-3 297>
Fore
410 -3 m 1xa6
 410 281 l 2
 410 358 366 408 299 408 c 0xa6
 238 408 172 359 172 314 c 2
 172 102 l 2
 172 39 175 32 209 30 c 2
 254 27 l 1
 254 -3 l 1
 186 -1 159 0 130 0 c 0
 101 0 74 -1 6 -3 c 1
 6 27 l 1
 51 30 l 2
 85 32 88 39 88 102 c 2
 88 327 l 2
 88 393 84 400 44 400 c 2
 7 400 l 1
 7 428 l 1xc6
 60 434 112 448 163 469 c 1
 172 465 l 1
 172 378 l 1
 248 444 l 2
 269 462 290 469 327 469 c 0
 439 469 494 412 494 295 c 2
 494 102 l 2
 494 38 497 32 531 30 c 2
 572 27 l 1
 572 -3 l 1
 503 0 503 0 489 0 c 0
 472 0 471 0 410 -3 c 1xa6
422 640 m 1
 451 640 l 1
 447 582 399 535 342 535 c 0x96
 320 535 304 540 274 554 c 0
 237 573 217 580 203 580 c 0x8e
 179 580 163 566 150 535 c 1
 121 535 l 1x96
 135 600 172 635 227 635 c 0x8e
 251 635 263 631 316 605 c 0
 340 594 351 590 363 590 c 0x96
 391 590 407 603 422 640 c 1
EndSplineSet
Ligature: 0 0 'liga' n tildecomb
EndChar
StartChar: odieresis
Encoding: 351 246 245
Width: 546
Flags: W
HStem: -20 33<250 289> 436 33<255 279> 537 100<159 177 363 368>
VStem: 32 93<217 251> 116 100<575.756 590> 315 100<575.756 590> 421 93<200 237>
Fore
279 469 m 0xf6
 416 469 514 372 514 237 c 0
 514 87 404 -20 250 -20 c 0
 121 -20 32 76 32 217 c 0
 32 366 133 469 279 469 c 0xf6
261 436 m 0
 173 436 125 371 125 251 c 0
 125 109 191 13 289 13 c 0
 370 13 421 85 421 200 c 0
 421 336 353 436 261 436 c 0
167 637 m 0
 196 637 216 616 216 587 c 0
 216 557 196 537 166 537 c 0
 136 537 116 557 116 587 c 0xee
 116 617 136 637 167 637 c 0
366 637 m 0
 395 637 415 616 415 587 c 0
 415 557 395 537 365 537 c 0
 335 537 315 557 315 587 c 0
 315 617 335 637 366 637 c 0
EndSplineSet
KernsSLIF: 116 -13 0 0 118 -27 0 0 119 -27 0 0 120 -31 0 0 121 -30 0 0
Ligature: 0 0 'liga' o uni0308
EndChar
StartChar: oacute
Encoding: 352 243 246
Width: 546
Flags: W
HStem: -20 33<250 289> 436 33<255 279>
VStem: 32 93<217 251> 421 93<200 237>
Fore
279 469 m 0
 416 469 514 372 514 237 c 0
 514 87 404 -20 250 -20 c 0
 121 -20 32 76 32 217 c 0
 32 366 133 469 279 469 c 0
261 436 m 0
 173 436 125 371 125 251 c 0
 125 109 191 13 289 13 c 0
 370 13 421 85 421 200 c 0
 421 336 353 436 261 436 c 0
179 506 m 1
 317 644 l 2
 339 666 357 677 372 677 c 0
 389 677 403 662 403 643 c 0
 403 625 396 617 363 596 c 2
 219 506 l 1
 179 506 l 1
EndSplineSet
KernsSLIF: 118 -27 0 0 119 -27 0 0 121 -30 0 0
Ligature: 0 0 'liga' o acutecomb
EndChar
StartChar: ograve
Encoding: 353 242 247
Width: 546
Flags: W
HStem: -20 33<250 289> 436 33<255 279>
VStem: 32 93<217 251> 421 93<200 237>
Fore
279 469 m 0
 416 469 514 372 514 237 c 0
 514 87 404 -20 250 -20 c 0
 121 -20 32 76 32 217 c 0
 32 366 133 469 279 469 c 0
261 436 m 0
 173 436 125 371 125 251 c 0
 125 109 191 13 289 13 c 0
 370 13 421 85 421 200 c 0
 421 336 353 436 261 436 c 0
321 506 m 1
 177 596 l 2
 144 617 137 625 137 643 c 0
 137 662 151 677 168 677 c 0
 182 677 202 665 223 644 c 2
 361 506 l 1
 321 506 l 1
EndSplineSet
KernsSLIF: 118 -27 0 0 119 -27 0 0 121 -30 0 0
Ligature: 0 0 'liga' o gravecomb
EndChar
StartChar: ocircumflex
Encoding: 354 244 248
Width: 546
Flags: W
HStem: -20 33<250 289> 436 33<255 279>
VStem: 32 93<217 251> 421 93<200 237>
Fore
279 469 m 0
 416 469 514 372 514 237 c 0
 514 87 404 -20 250 -20 c 0
 121 -20 32 76 32 217 c 0
 32 366 133 469 279 469 c 0
261 436 m 0
 173 436 125 371 125 251 c 0
 125 109 191 13 289 13 c 0
 370 13 421 85 421 200 c 0
 421 336 353 436 261 436 c 0
236 677 m 1
 298 677 l 1
 423 510 l 1
 388 510 l 1
 267 613 l 1
 146 510 l 1
 111 510 l 1
 236 677 l 1
EndSplineSet
KernsSLIF: 116 -13 0 0
Ligature: 0 0 'liga' o uni0302
EndChar
StartChar: otilde
Encoding: 355 245 249
Width: 546
Flags: W
HStem: -20 33<250 289> 436 33<254 279> 535 55<324 345> 580 55<185 209>
VStem: 32 93<217 251> 421 93<200 237>
Fore
279 469 m 0xcc
 416 469 514 372 514 237 c 0
 514 87 404 -20 250 -20 c 0
 121 -20 32 76 32 217 c 0
 32 366 133 469 279 469 c 0xcc
261 436 m 0
 173 436 125 371 125 251 c 0
 125 109 191 13 289 13 c 0
 370 13 421 85 421 200 c 0
 421 336 353 436 261 436 c 0
404 640 m 1
 433 640 l 1
 429 582 381 535 324 535 c 0xec
 302 535 286 540 256 554 c 0
 219 573 199 580 185 580 c 0xdc
 161 580 145 566 132 535 c 1
 103 535 l 1xec
 117 600 154 635 209 635 c 0xdc
 233 635 245 631 298 605 c 0
 322 594 333 590 345 590 c 0xec
 373 590 389 603 404 640 c 1
EndSplineSet
Ligature: 0 0 'liga' o tildecomb
EndChar
StartChar: ohungarumlaut
Encoding: 356 337 250
Width: 546
Flags: W
HStem: -20 33<250 289> 436 33<255 279>
VStem: 32 93<217 251> 421 93<200 237>
Fore
279 469 m 0
 416 469 514 372 514 237 c 0
 514 87 404 -20 250 -20 c 0
 121 -20 32 76 32 217 c 0
 32 366 133 469 279 469 c 0
261 436 m 0
 173 436 125 371 125 251 c 0
 125 109 191 13 289 13 c 0
 370 13 421 85 421 200 c 0
 421 336 353 436 261 436 c 0
86 506 m 1
 214 654 l 2
 231 674 253 687 269 687 c 0
 286 687 300 672 300 654 c 0
 300 638 290 625 261 604 c 2
 126 506 l 1
 86 506 l 1
246 506 m 1
 374 654 l 2
 391 674 413 687 429 687 c 0
 446 687 460 672 460 654 c 0
 460 638 450 625 421 604 c 2
 286 506 l 1
 246 506 l 1
EndSplineSet
Ligature: 0 0 'liga' o uni030B
EndChar
StartChar: racute
Encoding: 357 341 251
Width: 395
Flags: W
HStem: 0 21G<131.5 154> 384 85<277 327> 400 28<23 31.8333>
VStem: 104 84<102 286 327 465>
Fore
23 400 m 1xb0
 23 428 l 1xb0
 76 434 128 448 179 469 c 1xd0
 188 465 l 1
 188 362 l 1
 244 428 l 2xb0
 265 453 297 469 327 469 c 0
 345 469 363 465 374 458 c 1
 365 338 l 1
 344 338 l 1
 328 370 307 384 277 384 c 0xd0
 228 384 188 334 188 274 c 2
 188 102 l 2
 188 36 190 33 235 30 c 2
 287 27 l 1
 287 -3 l 1
 164 0 164 0 144 0 c 0
 119 0 93 -1 21 -3 c 1
 21 27 l 1
 67 30 l 2
 101 32 104 39 104 102 c 2
 104 327 l 2
 104 393 100 400 60 400 c 2
 23 400 l 1xb0
109 506 m 1
 247 644 l 2
 269 666 287 677 302 677 c 0
 319 677 333 662 333 643 c 0
 333 625 326 617 293 596 c 2
 149 506 l 1
 109 506 l 1
EndSplineSet
Ligature: 0 0 'liga' r acutecomb
EndChar
StartChar: sacute
Encoding: 358 347 252
Width: 424
Flags: W
HStem: -20 37<167 196> 436 33<197 224>
VStem: 37 70<324 358> 41 30<91 143> 317 74<109 148> 321 28<331 365>
Fore
41 143 m 1xd8
 71 143 l 1
 71 102 l 2
 71 52 123 17 196 17 c 0
 267 17 317 55 317 109 c 0xd8
 317 147 298 168 253 178 c 0
 185 193 132 209 105 221 c 0
 59 242 37 276 37 324 c 0
 37 414 108 469 224 469 c 0
 265 469 301 462 354 444 c 1
 351 413 350 389 349 331 c 1
 321 331 l 1
 321 354 l 2
 321 401 270 436 203 436 c 0
 142 436 107 408 107 358 c 0xe4
 107 312 134 292 216 276 c 0
 304 259 337 247 363 222 c 1
 382 202 391 179 391 148 c 0
 391 50 298 -20 167 -20 c 0
 121 -20 82 -13 30 4 c 1
 38 44 41 74 41 143 c 1xd8
124 506 m 1
 262 644 l 2
 284 666 302 677 317 677 c 0
 334 677 348 662 348 643 c 0
 348 625 341 617 308 596 c 2
 164 506 l 1
 124 506 l 1
EndSplineSet
Ligature: 0 0 'liga' s acutecomb
EndChar
StartChar: scaron
Encoding: 359 353 253
Width: 424
Flags: W
HStem: -20 37<167 196> 436 33<197 224>
VStem: 37 70<324 358> 41 30<91 143> 317 74<109 148> 321 28<331 365>
Fore
41 143 m 1xd8
 71 143 l 1
 71 102 l 2
 71 52 123 17 196 17 c 0
 267 17 317 55 317 109 c 0xd8
 317 147 298 168 253 178 c 0
 185 193 132 209 105 221 c 0
 59 242 37 276 37 324 c 0
 37 414 108 469 224 469 c 0
 265 469 301 462 354 444 c 1
 351 413 350 389 349 331 c 1
 321 331 l 1
 321 354 l 2
 321 401 270 436 203 436 c 0
 142 436 107 408 107 358 c 0xe4
 107 312 134 292 216 276 c 0
 304 259 337 247 363 222 c 1
 382 202 391 179 391 148 c 0
 391 50 298 -20 167 -20 c 0
 121 -20 82 -13 30 4 c 1
 38 44 41 74 41 143 c 1xd8
213 574 m 1
 335 677 l 1
 369 677 l 1
 244 510 l 1
 182 510 l 1
 57 677 l 1
 92 677 l 1
 213 574 l 1
EndSplineSet
Ligature: 0 0 'liga' s uni030C
EndChar
StartChar: scommaaccent
Encoding: 360 537 254
Width: 424
Flags: W
HStem: -20 37<167 196> 436 33<197 224>
VStem: 37 70<324 358> 41 30<93 143> 317 74<109 148> 321 28<331 360>
Fore
41 143 m 1xd8
 71 143 l 1
 71 102 l 2
 71 52 123 17 196 17 c 0
 267 17 317 55 317 109 c 0xd8
 317 147 298 168 253 178 c 0
 185 193 132 209 105 221 c 0
 59 242 37 276 37 324 c 0
 37 414 108 469 224 469 c 0
 265 469 301 462 354 444 c 1
 351 413 350 389 349 331 c 1
 321 331 l 1
 321 354 l 2
 321 401 270 436 203 436 c 0
 142 436 107 408 107 358 c 0xe4
 107 312 134 292 216 276 c 0
 304 259 337 247 363 222 c 1
 382 202 391 179 391 148 c 0
 391 50 298 -20 167 -20 c 0
 121 -20 82 -13 30 4 c 1
 38 44 41 74 41 143 c 1xd8
152 -253 m 1
 113 -274 l 1
 99 -265 l 1
 142 -196 163 -136 169 -64 c 1
 216 -51 224 -48 257 -37 c 1
 268 -49 l 1
 238 -127 204 -186 152 -253 c 1
EndSplineSet
Ligature: 0 0 'liga' s uni0326
EndChar
StartChar: tcaron
Encoding: 361 357 255
Width: 375
Flags: W
HStem: -12 63<208 237>
VStem: 98 84<94 382 433 506>
Fore
98 382 m 1
 22 378 l 1
 22 399 l 1
 100 434 l 1
 100 504 l 2
 100 534 99 553 96 583 c 1
 127 593 157 606 181 621 c 1
 193 610 l 1
 185 546 182 510 182 468 c 2
 182 430 l 1
 319 436 l 1
 310 382 l 1
 182 382 l 1
 182 120 l 2
 182 71 198 51 237 51 c 0
 256 51 271 56 296 70 c 1
 309 53 l 1
 261 0 l 2
 255 -7 231 -12 208 -12 c 0
 131 -12 98 20 98 94 c 2
 98 382 l 1
265 481 m 1
 226 459 l 1
 212 468 l 1
 255 538 276 598 282 669 c 1
 370 696 l 1
 381 684 l 1
 351 607 317 547 265 481 c 1
EndSplineSet
Ligature: 0 0 'liga' t uni030C
EndChar
